<ttFont>
          <CharString index="0">
            -61 callgsubr
            -5 callgsubr
            hintmask 1011000110000000
            -83 callgsubr
            hintmask 0111001110000000
            -72 callgsubr
            hintmask 1011001110000000
            -58 callsubr
            hintmask 0111000110000000
            -64 callsubr
            hintmask 1011001110000000
            -107 callgsubr
            hintmask 1010010110000000
            -38 callsubr
            -219 hlineto
            hintmask 1011000110000000
            -29 callgsubr
            return
          </CharString>
          <CharString index="1">
            -30 callsubr
            hstemhm
            99 96 -44 189 242 168 hintmask 11010000
            hintmask 10110100
            752 7 callgsubr
            -50 -9 callgsubr
            hintmask 11010100
            -21 -81 -86 callsubr
            hintmask 10110100
            -101 callsubr
            hintmask 11001000
            5 59 rlineto
            0 -64 -9 callgsubr
            hintmask 10101000
            -29 callgsubr
            -12 -54 rlineto
            hintmask 11001000
            74 -12 rlineto
            -15 -1 -49 -16 callgsubr
            hintmask 10101000
            -44 -297 rlineto
            -171 -24 72 -110 167 hhcurveto
            167 98 110 171 24 -72 callsubr
            5 15 rlinecurve
            hintmask 11010100
            77 7 rlineto
            return
          </CharString>
          <CharString index="2">
            -28 -117 -34 -92 -41 -60 rrcurveto
            -60 -40 -33 -30 -27 hhcurveto
            -28 -6 24 27 hvcurveto
            1 70 28 141 41 154 -22 20 rcurveline
            -166 -43 rlineto
            -39 vlineto
            83 -4 rlineto
            -11 -136 -47 -121 -83 vvcurveto
            -46 23 -43 49 84 79 85 111 58 vhcurveto
            return
          </CharString>
          <CharString index="3">
            244 503 rmoveto
            -89 -126 -210 -154 hvcurveto
            -99 -1 42 -51 75 hhcurveto
            86 80 50 90 56 hvcurveto
            -33 25 rlineto
            -65 -48 -56 -37 -50 hhcurveto
            -39 -21 33 64 19 1 20 3 21 hvcurveto
            167 33 100 79 102 vvcurveto
            53 -51 27 -96 vhcurveto
            return
          </CharString>
          <CharString index="4">
            466 504 rmoveto
            -158 -43 6 -39 80 -4 rlineto
            -231 -55 -94 -119 -52 hhcurveto
            -28 -6 24 27 70 30 141 40 154 hvcurveto
            -22 20 -166 -43 rlineto
            -39 vlineto
            83 -4 rlineto
            -11 -136 -47 -121 -83 vvcurveto
            -46 23 -43 49 83 78 83 111 58 vhcurveto
            -22 -176 -5 -30 -6 -35 -6 -31 -7 -29 -8 -9 rrcurveto
            -10 -11 -48 -26 -81 hhcurveto
            -46 -58 15 11 -30 hvcurveto
            return
          </CharString>
          <CharString index="5">
            405 0 148 -127 -21 641 64 -59 59 -44 44 5 -20 hstemhm
            60 983 hintmask 01010010
            hintmask 01001010
            1040 661 rmoveto
            hintmask 01000110
            -26 callgsubr
            hintmask 10010010
            -88 hlineto
            -12 -54 71 -10 rlineto
            0 -9 -37 -10 -26 vhcurveto
            -181 -430 -84 537 rlineto
            -54 hlineto
            -231 -537 -54 385 rlineto
            -7 51 -3 57 0 vvcurveto
            hintmask 01100010
            79 20 rlineto
            hintmask 01001010
            4 49 rlineto
            hintmask 01000110
            0 -118 -5 -28 vhcurveto
            -105 hlineto
            hintmask 01010010
            -13 -54 62 -10 rlineto
            hintmask 01100010
            0 19 -43 7 -42 vhcurveto
            98 -556 rlineto
            62 hlineto
            218 506 89 -506 rlineto
            61 hlineto
            237 545 rlineto
            18 39 41 60 0 vvcurveto
            return
          </CharString>
          <CharString index="6">
            74 -12 rlineto
            -14 0 -50 -16 callgsubr
            -44 -297 rlineto
            -126 -18 -69 -91 -116 hhcurveto
            -110 -42 90 127 18 -72 callsubr
            4 15 59 callgsubr
            return
          </CharString>
          <CharString index="7">
            -32 callsubr
            hstemhm
            9 779 -778 163 443 170 hintmask 1001000100000000
            hintmask 1000100001000000
            788 7 callgsubr
            -76 -5 -77 vhcurveto
            hintmask 1001000001000000
            -80 2 -14 -60 75 -6 rlineto
            -18 -1 -49 -2 -16 vhcurveto
            -58 -395 -199 367 rlineto
            -11 22 -60 133 0 vvcurveto
            hintmask 1000001100000000
            -16 21 rlineto
            hintmask 1001000010000000
            -45 -1 rlineto
            -21 -91 5 0 hvcurveto
            -12 -54 rlineto
            hintmask 1000100010000000
            75 -12 rlineto
            hintmask 0011000010000000
            -15 0 -45 -2 -16 -57 callgsubr
            -2 -50 rlineto
            0 85 5 20 79 41 -7 callsubr
            hintmask 1001000010000000
            -77 7 rlineto
            14 2 50 7 42 vhcurveto
            hintmask 0011000010000000
            56 389 rlineto
            hintmask 1001000010000000
            297 -563 rlineto
            62 hlineto
            0 39 264 6 40 vhcurveto
            34 231 rlineto
            hintmask 0100010001000000
            6 40 18 54 7 19 78 16 rcurveline
            return
          </CharString>
          <CharString index="8">
            -6 -35 -4 -10 -6 -4 -20 -11 -62 -16 -3 -1 -4 -44 rcurveline
            88 hlineto
            -18 -201 -41 -302 -37 -49 rrcurveto
            -16 -12 -64 -22 -46 hhcurveto
            -21 -27 4 1 -1 hvcurveto
            -27 -71 rlineto
            2 10 -1 19 hhcurveto
            132 115 72 125 31 hvcurveto
            23 97 14 182 31 181 rrcurveto
            return
          </CharString>
          <CharString index="9">
            542 170 rmoveto
            -58 -2 rlineto
            0 -6 -37 -3 -10 vhcurveto
            -2 -10 -10 -23 -10 -23 rrcurveto
            -13 -43 -42 -9 -40 hhcurveto
            -114 -62 104 136 197 91 182 167 36 46 -10 -13 36 hvcurveto
            3 -20 2 -21 -1 -9 -7 -47 rcurveline
            58 -4 31 148 rlineto
            16 -59 -57 18 -80 hhcurveto
            -239 -130 -191 -248 return
          </CharString>
          <CharString index="10">
            444 504 rmoveto
            -60 29 callgsubr
            -32 hhcurveto
            -98 -123 -213 -156 -94 35 -52 65 72 72 78 110 53 hvcurveto
            -10 -79 -14 -92 -1 -14 -3 -53 -12 -53 -13 -13 rrcurveto
            -10 -10 -48 -26 -82 hhcurveto
            -45 -58 15 11 -31 hvcurveto
            return
          </CharString>
          <CharString index="11">
            186 -21 184 hintmask 10010100
            hintmask 10001001
            45 callsubr
            hintmask 10010001
            -20 -91 -86 callsubr
            hintmask 10001001
            73 -12 rlineto
            hintmask 10100001
            -6 callsubr
            hintmask 01010010
            -79 -16 -69 callsubr
            79 64 -46 callgsubr
            hintmask 10010010
            -85 -75 callgsubr
            hintmask 01010010
            54 371 rlineto
            hintmask 10010010
            -57 callsubr
            76 7 rcurveline
            return
          </CharString>
          <CharString index="12">
            rmoveto
            -50 -7 -37 -34 -48 hhcurveto
            -49 -27 34 50 7 hvcurveto
            -54 hlineto
            -90 -13 40 -50 88 hhcurveto
            87 54 50 90 13 hvcurveto
            return
          </CharString>
          <CharString index="13">
            -33 0 59 -42 -21 532 -20 138 59 10 -20 hstemhm
            0 558 hintmask 10110100
            436 646 rmoveto
            -83 -126 -223 -301 rlineto
            -35 -48 -94 -114 0 vvcurveto
            -1 -57 rlineto
            339 hlineto
            20 90 -4 0 hvcurveto
            hintmask 01110100
            22 18 35 161 -54 5 -4 -16 -14 -46 -6 -15 rlinecurve
            hintmask 10110100
            -2 -7 -10 -15 -12 -13 rrcurveto
            -4 -22 -34 -5 -30 hhcurveto
            -195 hlineto
            87 132 222 303 126 155 rlineto
            56 -323 vlineto
            -15 callgsubr
            hintmask 10101100
            -29 -169 56 -5 5 26 13 43 5 15 rlinecurve
            21 34 rlineto
            hintmask 10110100
            2 21 35 3 28 hhcurveto
            return
          </CharString>
          <CharString index="14">
            176 -29 callsubr
            332 53 264 -14 callsubr
            9 763 -762 68 callsubr
            60 186 -21 184 hintmask 1010101000000000
            hintmask 1010010000100000
            772 -39 callsubr
            hintmask 1010100000100000
            -20 -91 -86 callsubr
            hintmask 1010010000100000
            73 -12 rlineto
            hintmask 1011000000100000
            -13 0 -46 -3 -17 vhcurveto
            -27 -185 -319 -5 23 160 -57 callsubr
            59 callgsubr
            hintmask 1010100010000000
            4 59 rlineto
            -18 callgsubr
            hintmask 1010010010000000
            -20 -91 -86 callsubr
            hintmask 1010100010000000
            73 -12 rlineto
            -50 callgsubr
            hintmask 1010010010000000
            -63 -431 rlineto
            hintmask 1011000010000000
            -72 callgsubr
            0 94 5 20 vhcurveto
            hintmask 0110100100000000
            79 64 30 callsubr
            -86 -75 callgsubr
            hintmask 1010100100000000
            23 160 rlineto
            319 hlineto
            hintmask 0110100100000000
            -28 -190 rlineto
            hintmask 1010100101000000
            -19 callsubr
            -3 13 callsubr
            79 64 -46 callgsubr
            hintmask 0110100001000000
            -85 -75 callgsubr
            -1 callgsubr
            hintmask 1010100001000000
            76 7 rlineto
            return
          </CharString>
          <CharString index="15">
            rmoveto
            -186 -169 27 -32 80 61 8 6 29 18 27 19 rlinecurve
            51 -43 63 -61 37 32 rlineto
            return
          </CharString>
          <CharString index="16">
            rmoveto
            -175 -150 32 -41 71 60 rlineto
            14 11 103 43 callgsubr
          </CharString>
          <CharString index="17">
            -20 hstemhm
            -2 81 -21 75 106 82 hintmask 11101100
            215 504 rmoveto
            -85 -72 -59 -79 hvcurveto
            -143 181 -22 -82 vvcurveto
            -53 -37 -26 -54 vhcurveto
            hintmask 11110100
            -30 -22 11 18 -21 hvcurveto
            10 94 -37 11 -50 -99 1 -32 rlineto
            -26 23 58 -28 57 hhcurveto
            103 81 64 95 hvcurveto
            hintmask 11101100
            -84 callsubr
            return
          </CharString>
          <CharString index="18">
            rmoveto
            -184 -107 -90 callgsubr
          </CharString>
          <CharString index="19">
            rmoveto
            -223 -100 -89 callgsubr
          </CharString>
          <CharString index="20">
            vlineto
            13 57 -2 0 hvcurveto
            18 13 21 106 -42 3 -7 -26 rlineto
            -1 -5 -16 -25 0 vvcurveto
            0 -37 -6 -18 vhcurveto
            -92 hlineto
            179 142 44 53 74 vvcurveto
            57 -43 33 -77 vhcurveto
            endchar
          </CharString>
          <CharString index="21">
            5 0 hvcurveto
            -13 -54 rlineto
            return
          </CharString>
          <CharString index="22">
            612 54 rmoveto
            -58 10 -25 85 -120 566 -60 -10 -250 -545 rlineto
            return
          </CharString>
          <CharString index="23">
            123 -188 43 75 vvcurveto
            39 42 27 42 20 18 -5 -6 14 vhcurveto
            15 -99 39 -3 32 123 -21 24 rlineto
            0 -68 15 -51 vhcurveto
            return
          </CharString>
          <CharString index="24">
            rmoveto
            46 18 -13 -32 -64 -69 -56 -101 -22 hvcurveto
            96 23 46 91 37 hhcurveto
            return
          </CharString>
          <CharString index="25">
            124 -6 59 -53 53 602 60 -5 -20 70 callsubr
            386 99 hintmask 10100100
            383 715 rmoveto
            -63 -49 -8 -2 -61 hvcurveto
            hintmask 10011100
            -34 2 -61 3 0 vvcurveto
            -13 -54 -33 callgsubr
            hintmask 01101100
            0 93 5 21 vhcurveto
            59 76 -6 40 hhcurveto
            hintmask 10100100
            238 145 176 248 182 -108 115 -190 hvcurveto
            2 -60 rmoveto
            137 60 -107 -136 -187 -86 -172 -189 -42 -45 2 2 -24 hvcurveto
            hintmask 10101100
            -1 4 3 58 7 48 54 371 rcurveline
            6 40 12 53 5 19 rrcurveto
            3 25 34 2 44 hhcurveto
            return
          </CharString>
          <CharString index="26">
            329 424 rmoveto
            15 56 rlineto
            -111 hlineto
            6 36 3 26 8 43 -41 12 rcurveline
            0 -37 -83 -24 -14 vhcurveto
            -25 -14 -39 -9 -33 -9 -4 -44 rcurveline
            91 hlineto
            return
          </CharString>
          <CharString index="27">
            rmoveto
            28 28 6 9 21 hvcurveto
            1 47 rlineto
            0 -30 -3 -30 -63 -38 56 66 83 48 93 90 76 35 -81 -82 -2 vhcurveto
            -4 -186 -89 -224 -301 -87 11 -52 rcurveline
            334 74 147 268 212 vvcurveto
            126 -70 89 -129 -132 -112 -103 -138 -106 73 -67 108 vhcurveto
            endchar
          </CharString>
          <CharString index="28">
            -41 -21 -31 -41 -28 14 -19 31 40 22 29 42 31 -16 17 -29 hvcurveto
            return
          </CharString>
          <CharString index="29">
            139 57 callgsubr
            hstem
            48 104 441 104 vstem
            697 421 rmoveto
            104 -31 86 -62 52 vhcurveto
            100 152 -38 23 -99 -151 rlineto
            21 -38 -47 12 -56 hhcurveto
            -245 -133 -190 -247 -106 31 -85 64 -52 hvcurveto
            -100 -153 35 -23 100 153 rlineto
            -20 39 46 -12 56 hhcurveto
            243 135 189 247 hvcurveto
            -545 -138 rmoveto
            198 93 186 173 45 36 -16 -26 27 vhcurveto
            -335 -512 rlineto
            -27 44 -12 59 67 vvcurveto
            441 138 rmoveto
            -198 -95 -185 -171 -45 -36 14 26 -27 vhcurveto
            336 510 rlineto
            25 -43 13 -59 -65 vvcurveto
            return
          </CharString>
          <CharString index="30">
            -289 -235 67 590 56 209 66 hstem
            -170 627 vstem
            216 478 rmoveto
            17 108 17 42 15 20 rrcurveto
            18 13 65 21 44 hhcurveto
            21 23 -7 0 hvcurveto
            26 70 rlineto
            0 -18 3 -17 -139 -120 -76 -34 callsubr
            236 hlineto
            14 56 rlineto
            -241 hlineto
            endchar
          </CharString>
          <CharString index="31">
            -66 10 19 63 46 105 rlineto
            212 hlineto
            11 -60 10 -108 rlineto
            return
          </CharString>
          <CharString index="32">
            33 callgsubr
            -54 12 -42 23 -30 hvcurveto
            -78 -116 37 -20 72 108 rlineto
            -13 22 26 -7 31 hhcurveto
            141 121 158 184 56 -13 43 -25 30 hvcurveto
            79 118 -38 20 -74 -111 rlineto
            11 -21 -25 6 -28 hhcurveto
            48 -171 rmoveto
            -165 -61 -122 -87 -23 -16 10 21 -11 vhcurveto
            196 292 rlineto
            1 -11 1 -12 -13 vvcurveto
            -65 114 rmoveto
            20 16 -9 -17 11 hvcurveto
            -194 -289 rlineto
            -1 8 0 9 10 vvcurveto
            166 61 122 87 vhcurveto
            return
          </CharString>
          <CharString index="33">
            -48 7 rlineto
            0 -27 -29 -8 -6 vhcurveto
            -13 -10 -80 -56 0 vvcurveto
            14 -33 69 29 -31 -212 -2 -12 -10 -35 -1 -3 rlinecurve
            -55 -8 -2 -38 rlineto
            0 55 3 22 61 40 -3 0 vhcurveto
            return
          </CharString>
          <CharString index="34">
            -15 171 44 3 36 -92 5 rlineto
            9 128 44 135 89 vvcurveto
            return
          </CharString>
          <CharString index="35">
            hvcurveto
            39 267 7 43 12 53 return
          </CharString>
          <CharString index="36">
            280 -13 30 23 rlineto
            4 25 134 4 vvcurveto
            -1 1 -32 10 -2 1 -1 -3 -42 -73 -11 -19 rrcurveto
            -12 -54 -75 -1 -49 hhcurveto
            80 134 64 88 161 205 rrcurveto
            return
          </CharString>
          <CharString index="37">
            63 37 177 34 vvcurveto
            116 -2 vlineto
            -24 16 -151 -43 6 -39 83 -4 rlineto
            4 -22 -1 -46 -8 -68 -46 -167 -50 vvcurveto
            return
          </CharString>
          <CharString index="38">
            -2 -59 callgsubr
            return
          </CharString>
          <CharString index="39">
            -41 39 hhcurveto
            39 56 98 0 hvcurveto
            endchar
          </CharString>
          <CharString index="40">
            rmoveto
            -68 -34 -42 -58 -43 25 -28 52 66 33 42 58 43 -24 28 -50 hvcurveto
            -6 -38 rmoveto
            25 9 -17 -21 -27 -12 -30 -36 -24 -10 17 21 28 14 29 34 hvcurveto
            endchar
          </CharString>
          <CharString index="41">
            rmoveto
            -44 -36 -6 -16 -44 hvcurveto
            -9 -101 43 2 3 28 rlineto
            1 5 9 23 0 vvcurveto
            11 21 18 5 21 hhcurveto
            33 21 -21 -33 return
          </CharString>
          <CharString index="42">
            -431 -31 callgsubr
            return
          </CharString>
          <CharString index="43">
            58 callsubr
            -53 5 -5 -16 -14 -36 -6 -15 rlinecurve
            return
          </CharString>
          <CharString index="44">
            510 503 rmoveto
            -18 -20 -9 -16 -20 hvcurveto
            13 -86 -78 12 -37 hhcurveto
            -94 -128 -210 -154 -99 35 -50 69 57 59 50 77 49 hvcurveto
            -84 6 37 -43 71 hhcurveto
            86 79 49 91 55 hvcurveto
            -31 23 rlineto
            -67 -49 -56 -36 -51 hhcurveto
            -39 -21 34 65 19 2 21 3 21 hvcurveto
            166 33 99 79 102 vvcurveto
            52 -50 27 -95 vhcurveto
            -347 -453 rmoveto
            -28 -19 40 58 123 71 178 50 42 60 -26 -9 19 hvcurveto
            -155 -17 -113 -209 -65 hhcurveto
            return
          </CharString>
          <CharString index="45">
            rmoveto
            -45 25 -27 30 -21 vhcurveto
            hintmask 11101000
            -46 -24 -55 -41 -58 vvcurveto
            -65 59 -28 67 80 77 37 82 48 -32 29 -36 23 vhcurveto
            hintmask 11010100
            39 23 48 38 54 vvcurveto
            57 -53 31 -60 vhcurveto
            hintmask 11011000
            -72 -71 -40 -73 hvcurveto
            hintmask 11101000
            30 -213 rmoveto
            43 34 32 30 20 vhcurveto
            35 -22 32 -20 -37 vvcurveto
            -43 -32 -29 -43 -35 -21 22 34 vhcurveto
            hintmask 11010100
            153 236 rmoveto
            -39 -27 -32 -24 -20 vhcurveto
            -32 19 -27 19 37 vvcurveto
            38 33 28 31 27 19 -21 -29 vhcurveto
            endchar
          </CharString>
          <CharString index="46">
            -48 hlineto
            -13 -11 rlineto
            0 -33 -150 -9 -46 vhcurveto
            22 -24 rlineto
            6 25 18 2 13 hhcurveto
            46 22 -22 -38 -76 -56 -41 -124 -24 hvcurveto
            6 -38 rlineto
            158 21 97 65 108 vvcurveto
            62 -42 37 -77 -13 -16 -1 -3 -14 vhcurveto
            return
          </CharString>
          <CharString index="47">
            -54 5 -4 -16 -14 -36 -6 -15 rlinecurve
            -2 -7 -12 -16 -11 -14 rrcurveto
            -4 -22 -34 -5 -30 hhcurveto
            return
          </CharString>
          <CharString index="48">
            -20 hstemhm
            57 40 hintmask 10010011
            71 504 rmoveto
            hintmask 10001011
            -16 -24 rlineto
            hintmask 01010011
            -33 callsubr
            hintmask 10010011
            22 -19 rlineto
            hintmask 00110011
            51 13 rlineto
            hintmask 10000111
            -71 callsubr
            hintmask 10010011
            -11 19 -59 -15 rlineto
            return
          </CharString>
          <CharString index="49">
            32 callgsubr
            232 hlineto
            20 90 -4 0 hvcurveto
            return
          </CharString>
          <CharString index="50">
            6 42 12 50 4 14 return
          </CharString>
          <CharString index="51">
            rmoveto
            -53 -48 -8 -21 -66 hvcurveto
            -8 -145 56 3 4 45 1 7 6 15 12 28 rlinecurve
            16 28 22 6 35 hhcurveto
            64 34 -35 -65 -101 -73 -55 -154 -18 hvcurveto
            8 -48 rlineto
            0 31 3 42 vhcurveto
            hintmask 11110000
            78 49 -42 -65 -108 -133 -94 -222 -32 hvcurveto
            11 -53 rlineto
            255 27 185 120 146 vvcurveto
            71 -46 53 -84 23 vhcurveto
            hintmask 11101000
            93 36 57 66 87 vvcurveto
            89 -64 49 -120 vhcurveto
            endchar
          </CharString>
          <CharString index="52">
            rmoveto
            -87 35 -73 91 132 54 128 121 88 -35 73 -90 -133 -54 -129 -121 vhcurveto
            230 104 rmoveto
            -74 -41 -145 -57 -38 -12 51 50 74 41 144 57 38 12 -50 -50 vhcurveto
            endchar
          </CharString>
          <CharString index="53">
            83 -45 57 -83 -109 -68 -100 -109 -83 45 -55 83 109 68 98 109 vhcurveto
            -136 87 rmoveto
            return
          </CharString>
          <CharString index="54">
            26 -15 68 15 14 101 rlineto
            204 48 104 122 46 hhcurveto
            28 6 -25 -27 hvcurveto
            return
          </CharString>
          <CharString index="55">
            -31 callgsubr
            -79 -16 6 callgsubr
            return
          </CharString>
          <CharString index="56">
            -63 -65 callsubr
            return
          </CharString>
          <CharString index="57">
            2 22 30 3 27 hhcurveto
            61 hlineto
            -1 -19 0 -47 -2 -15 -63 -431 rcurveline
            -71 callgsubr
            -78 -16 rcurveline
            -3 -50 rlineto
            0 return
          </CharString>
          <CharString index="58">
            -11 66 -49 -21 36 -21 446 58 return
          </CharString>
          <CharString index="59">
            -113 hlineto
            15 3 54 6 41 vhcurveto
            -1 callgsubr
            77 7 rlineto
            return
          </CharString>
          <CharString index="60">
            0 15 1 6 23 16 -11 -25 -34 -25 -20 -34 -20 -20 6 5 -16 vhcurveto
            return
          </CharString>
          <CharString index="61">
            184 hintmask 01010000
            hintmask 01001000
            353 651 rmoveto
            hintmask 00101000
            5 59 rlineto
            -18 callgsubr
            hintmask 01001000
            -20 -91 -86 callsubr
            hintmask 00101000
            73 -12 rlineto
            hintmask 10001000
            -13 0 -46 -3 -17 vhcurveto
            -81 -557 rlineto
            -3 -20 -102 -169 0 vvcurveto
            31 -22 55 56 103 107 4 27 rlinecurve
            80 548 -57 callsubr
            rlinecurve
            return
          </CharString>
          <CharString index="62">
            -209 -21 230 56 -56 65 473 -20 hstemhm
            -13 478 hintmask 11011000
            235 -230 rmoveto
            84 26 29 204 rlineto
            88 hlineto
            hintmask 10111000
            11 67 -90 -4 24 162 -81 -27 rlineto
            hintmask 11011000
            -21 -138 -191 -7 223 280 17 22 131 126 6 6 rlinecurve
            -60 51 -418 -485 37 -53 rlineto
            246 hlineto
            endchar
          </CharString>
          <CharString index="63">
            hintmask 01011100
            391 504 rmoveto
            -63 -74 -70 -110 -53 hvcurveto
            9 55 12 54 15 51 -23 20 rcurveline
            hintmask 01111100
            -165 -43 rlineto
            -39 vlineto
            83 -4 -16 -166 -14 -84 -42 -168 rlinecurve
            hintmask 10011100
            26 -15 68 15 14 104 18 132 81 151 76 43 rlinecurve
            6 -120 37 -3 45 169 -17 24 rlineto
            hintmask 01011100
            1 -1 -12 3 -10 hhcurveto
            return
          </CharString>
          <CharString index="64">
            rmoveto
            -47 4 rlineto
            3 0 37 5 28 vhcurveto
            22 149 rlineto
            4 30 22 113 0 vvcurveto
            return
          </CharString>
          <CharString index="65">
            rmoveto
            -187 -160 32 -41 72 49 callgsubr
            -242 62 rmoveto
            -186 -160 32 -41 71 49 callgsubr
            endchar
          </CharString>
          <CharString index="66">
            rmoveto
            13 53 rlineto
            -313 hlineto
            -8 -53 rlineto
            endchar
          </CharString>
          <CharString index="67">
            63 hlineto
            27 -7 callgsubr
            0 -31 -16 vvcurveto
            return
          </CharString>
          <CharString index="68">
            710 -23 callsubr
            return
          </CharString>
          <CharString index="69">
            -16 18 rlineto
            0 -92 -10 -20 vhcurveto
            return
          </CharString>
          <CharString index="70">
            -11 callgsubr
            262 -20 hstem
            29 91 183 88 vstem
            -104 callsubr
            return
          </CharString>
          <CharString index="71">
            -8 15 27 -10 36 hhcurveto
            63 55 40 61 46 -35 28 -52 1 hvcurveto
            return
          </CharString>
          <CharString index="72">
            6 -21 36 -21 return
          </CharString>
          <CharString index="73">
            -134 -22 vhcurveto
            -99 callsubr
            return
          </CharString>
          <CharString index="74">
            5 -146 38 -3 26 81 51 9 40 7 84 1 rlinecurve
            -81 -132 -59 -88 -166 -203 rrcurveto
            return
          </CharString>
          <CharString index="75">
            0 57 -43 -21 23 -21 649 61 -61 66 -53 53 -25 20 return
          </CharString>
          <CharString index="76">
            -39 -76 41 -39 hhcurveto
            -39 -55 -91 0 hvcurveto
            return
          </CharString>
          <CharString index="77">
            131 -15 64 598 57 6 -20 return
          </CharString>
          <CharString index="78">
            0 57 -41 -21 return
          </CharString>
          <CharString index="79">
            -48 -26 callsubr
            79 352 41 43 -20 return
          </CharString>
          <CharString index="80">
            -28 15 -19 30 41 21 30 41 31 -16 17 -29 return
          </CharString>
          <CharString index="81">
            -235 72 -51 -21 224 return
          </CharString>
          <CharString index="82">
            -271 441 47 225 46 hstem
            69 75 116 76 vstem
            240 759 rmoveto
            -93 -78 -94 -114 -71 34 -39 61 94 78 95 114 71 -34 38 -62 hvcurveto
            -16 -46 rmoveto
            23 13 -23 -41 -98 -31 -63 -49 -23 -13 22 41 98 31 64 49 hvcurveto
            endchar
          </CharString>
          <CharString index="83">
            -41 -26 -45 -40 -33 17 -21 33 hvcurveto
            -4 -44 -31 -36 -43 -19 5 -22 rcurveline
            91 18 55 85 82 vvcurveto
            42 1 -15 33 -42 hhcurveto
            return
          </CharString>
          <CharString index="84">
            rmoveto
            -18 callgsubr
            return
          </CharString>
          <CharString index="85">
            -15 164 0 callsubr
            return
          </CharString>
          <CharString index="86">
            -280 16 callsubr
            437 -20 return
          </CharString>
          <CharString index="87">
            -3 -49 rlineto
            0 93 5 38 vhcurveto
            return
          </CharString>
          <CharString index="88">
            -2 -17 -14 -46 return
          </CharString>
          <CharString index="89">
            6 38 12 53 5 20 rrcurveto
            -40 callsubr
            return
          </CharString>
          <CharString index="90">
            -20 -91 5 0 return
          </CharString>
          <CharString index="91">
            vvcurveto
            -50 36 -25 52 36 33 14 8 17 vhcurveto
            -8 33 rlineto
            -7 -17 -20 -6 return
          </CharString>
          <CharString index="92">
            -28 17 -12 8 -4 vhcurveto
            return
          </CharString>
          <CharString index="93">
            4 callsubr
            hstemhm
            return
          </CharString>
          <CharString index="94">
            -38 -24 -42 -38 -30 15 -19 30 38 25 41 38 32 -14 18 -32 hvcurveto
            return
          </CharString>
          <CharString index="95">
            -5 callsubr
            207 hlineto
            return
          </CharString>
          <CharString index="96">
            -14 -110 -15 -68 0 vvcurveto
            return
          </CharString>
          <CharString index="97">
            -13 -73 -14 -66 -13 -46 rrcurveto
            return
          </CharString>
          <CharString index="98">
            73 callsubr
            -11 -137 -24 -156 -27 -112 rlinecurve
            -10 -42 -56 -114 -39 -67 29 -26 rcurveline
            46 58 98 121 7 41 38 226 19 168 30 105 rrcurveto
            return
          </CharString>
          <CharString index="99">
            4 -31 -53 9 -28 hhcurveto
            -96 -125 -210 -155 -98 34 -52 65 72 73 79 110 54 hvcurveto
            return
          </CharString>
          <CharString index="100">
            0 callgsubr
            16 59 rlineto
            return
          </CharString>
          <CharString index="101">
            -13 0 -46 -3 -23 callgsubr
            -3 -13 rlinecurve
            return
          </CharString>
          <CharString index="102">
            -69 callsubr
            vhcurveto
            return
          </CharString>
          <CharString index="103">
            5 21 vhcurveto
            hintmask 01010100
            79 49 -5 0 hvcurveto
            15 59 rlineto
            hintmask 00110100
            -79 7 rlineto
            hintmask 01010100
            14 3 -30 callgsubr
            5 34 rlineto
            89 hlineto
            10 67 -90 -6 24 164 -83 -27 -20 -142 return
          </CharString>
          <CharString index="104">
            -26 238 rmoveto
            -38 -25 -43 -38 -31 15 -19 31 39 26 41 39 33 -15 18 -33 hvcurveto
            endchar
          </CharString>
          <CharString index="105">
            63 32 178 34 vvcurveto
            -4 116 -24 15 rlineto
            return
          </CharString>
          <CharString index="106">
            -138 -13 69 -48 -21 34 -21 429 75 -2 -20 22 -20 return
          </CharString>
          <CharString index="107">
            44 3 36 -89 return
          </CharString>
          <CharString index="108">
            rmoveto
            -58 -29 -35 -50 -36 21 -24 44 56 29 36 49 37 -21 23 -42 hvcurveto
            -5 -32 rmoveto
            21 7 -14 -18 -23 -10 -26 -30 -21 -8 15 18 23 12 25 29 hvcurveto
            return
          </CharString>
          <CharString index="109">
            -20 hstemhm
            76 94 -48 85 142 86 -51 83 190 89 return
          </CharString>
          <CharString index="110">
            -229 hmoveto
            -41 -21 -31 -41 -28 return
          </CharString>
          <CharString index="111">
            61 -58 57 6 -20 return
          </CharString>
          <CharString index="112">
            25 -15 160 44 3 35 -90 5 23 165 24 156 26 94 rlinecurve
            endchar
          </CharString>
          <CharString index="113">
            9 callsubr
            rlineto
            return
          </CharString>
          <CharString index="114">
            32 -21 rlineto
            0 return
          </CharString>
          <CharString index="115">
            -83 callsubr
            endchar
          </CharString>
          <CharString index="116">
            -13 0 -46 -2 -17 -57 callgsubr
            return
          </CharString>
          <CharString index="117">
            rmoveto
            -67 hlineto
            -21 -18 -67 -329 34 -21 rlineto
            9 42 38 4 23 hhcurveto
            return
          </CharString>
          <CharString index="118">
            26 -15 155 46 callgsubr
            3 229 42 174 47 277 rlinecurve
            -250 -304 rmoveto
            38 55 -25 -10 21 hvcurveto
            return
          </CharString>
          <CharString index="119">
            82 -4 -11 -136 -24 -156 -27 -112 rlinecurve
            -10 -40 -55 -114 -40 -68 31 -27 rcurveline
            47 58 100 121 7 41 return
          </CharString>
          <CharString index="120">
            -13 -79 -16 rcurveline
            -69 callsubr
            return
          </CharString>
          <CharString index="121">
            53 24 31 39 50 vvcurveto
            57 -39 31 -76 vhcurveto
            return
          </CharString>
          <CharString index="122">
            12 67 12 59 13 44 rrcurveto
            return
          </CharString>
          <CharString index="123">
            6 63 callsubr
            37 return
          </CharString>
          <CharString index="124">
            237 339 -43 callsubr
            return
          </CharString>
          <CharString index="125">
            rmoveto
            -42 -26 -33 -43 return
          </CharString>
          <CharString index="126">
            -67 -118 hvcurveto
            hintmask 11101000
            17 -352 rmoveto
            return
          </CharString>
          <CharString index="127">
            -11 53 241 53 -17 53 241 53 53 -20 hstemhm
            79 74 157 74 31 74 157 74 return
          </CharString>
          <CharString index="128">
            rmoveto
            -257 -289 31 -46 rlineto
            return
          </CharString>
          <CharString index="129">
            7 1 58 callgsubr
            rlinecurve
            return
          </CharString>
          <CharString index="130">
            7 rlineto
            14 -2 -30 callgsubr
            hintmask 00110010
            29 194 rlineto
            hintmask 01010010
            -57 callsubr
            return
          </CharString>
          <CharString index="131">
            -111 42 callsubr
            -6 -82 -12 -65 -28 -106 rlinecurve
            18 -10 58 10 6 44 rlineto
            return
          </CharString>
          <CharString index="132">
            225 770 rmoveto
            -166 -28 1 -39 84 -12 -17 -216 -50 -326 -40 -149 rlinecurve
            return
          </CharString>
          <CharString index="133">
            33 -18 20 -31 vhcurveto
            endchar
          </CharString>
          <CharString index="134">
            225 45 callgsubr
            return
          </CharString>
          <CharString index="135">
            177 -11 77 437 -20 21 -20 return
          </CharString>
          <CharString index="136">
            -104 -11 57 401 57 return
          </CharString>
          <CharString index="137">
            -5 0 hvcurveto
            16 59 return
          </CharString>
          <CharString index="138">
            -16 rcurveline
            6 callgsubr
            return
          </CharString>
          <CharString index="139">
            -12 rlineto
            hintmask 10000110
            -13 0 -46 -3 -17 vhcurveto
            -34 -254 -19 callsubr
            -3 -13 rlinecurve
            return
          </CharString>
          <CharString index="140">
            -2 0 hvcurveto
            21 16 26 128 -52 4 -10 -35 -2 -4 -6 -14 -9 -13 rlinecurve
            -3 return
          </CharString>
          <CharString index="141">
            -110 42 callsubr
            rlineto
            -7 -80 -29 -77 -53 vvcurveto
            -28 16 -24 31 return
          </CharString>
          <CharString index="142">
            -11 0 vvcurveto
            21 19 rlineto
            60 vlineto
            -6 6 rlineto
            return
          </CharString>
          <CharString index="143">
            60 42 -3 0 hvcurveto
            9 42 return
          </CharString>
          <CharString index="144">
            129 0 -20 hstemhm
            return
          </CharString>
          <CharString index="145">
            68 -27 68 hstemhm
            return
          </CharString>
          <CharString index="146">
            -6 -50 -23 -60 0 vvcurveto
            -85 -15 -6 -40 rlineto
            0 95 4 69 vhcurveto
            15 13 return
          </CharString>
          <CharString index="147">
            6 50 23 60 0 vvcurveto
            85 15 7 40 rlineto
            0 -95 -4 -69 vhcurveto
            -15 -13 return
          </CharString>
          <CharString index="148">
            51 callgsubr
            38 return
          </CharString>
          <CharString index="149">
            -26 rlineto
            -28 vlineto
            47 -2 return
          </CharString>
          <CharString index="150">
            rrcurveto
            -8 -8 -29 -11 -39 hhcurveto
            -33 -36 11 9 -20 hvcurveto
            -24 -61 rlineto
            -7 return
          </CharString>
          <CharString index="151">
            504 rmoveto
            -165 -43 1 -39 82 -4 return
          </CharString>
          <CharString index="152">
            368 -39 callsubr
            return
          </CharString>
          <CharString index="153">
            0 50 55 30 vhcurveto
            54 113 -60 60 hhcurveto
            50 73 104 0 hvcurveto
            return
          </CharString>
          <CharString index="154">
            69 94 -4 0 hvcurveto
            7 40 -83 15 rlineto
            0 -5 60 6 50 vhcurveto
            return
          </CharString>
          <CharString index="155">
            -21 -19 rlineto
            -60 vlineto
            7 -6 rlineto
            0 return
          </CharString>
          <CharString index="156">
            0 38 -38 41 -23 -21 119 46 return
          </CharString>
          <CharString index="157">
            rmoveto
            -528 -738 44 -32 return
          </CharString>
          <CharString index="158">
            -21 402 67 208 80 return
          </CharString>
          <CharString index="159">
            hlineto
            hintmask 10011000
            -10 -64 -2 -17 -14 -45 -4 -14 rlinecurve
            hintmask 10010100
            return
          </CharString>
          <CharString index="160">
            vhcurveto
            -9 33 rlineto
            -9 -22 -18 -4 -15 hhcurveto
            -32 -15 20 25 return
          </CharString>
          <CharString index="161">
            -3 0 hvcurveto
            hintmask 01111000
            22 20 rlineto
            hintmask 10111000
            29 142 return
          </CharString>
          <CharString index="162">
            -78 rlineto
            hintmask 10111110
            -10 21 63 -10 return
          </CharString>
          <CharString index="163">
            -2 -21 -18 -112 -8 -45 rrcurveto
            return
          </CharString>
          <CharString index="164">
            -16 -3 -50 rlineto
            0 return
          </CharString>
          <CharString index="165">
            21 18 37 151 return
          </CharString>
          <CharString index="166">
            -59 -14 rlineto
            3 return
          </CharString>
          <CharString index="167">
            -4 12 50 1 6 9 14 9 14 rlinecurve
            2 20 return
          </CharString>
          <CharString index="168">
            -15 callsubr
            -14 callgsubr
            return
          </CharString>
          <CharString index="169">
            -5 50 -45 57 -41 -21 return
          </CharString>
          <CharString index="170">
            -21 36 -21 29 return
          </CharString>
          <CharString index="171">
            -235 67 174 -21 36 -21 422 56 return
          </CharString>
          <CharString index="172">
            rmoveto
            0 -50 -60 -30 vhcurveto
            -54 -101 60 -70 hhcurveto
            return
          </CharString>
          <CharString index="173">
            76 -30 73 88 76 -54 73 return
          </CharString>
          <CharString index="174">
            -66 rlineto
            0 -40 -9 -19 vhcurveto
            return
          </CharString>
          <CharString index="175">
            186 -21 185 return
          </CharString>
          <CharString index="176">
            4 15 108 22 return
          </CharString>
          <CharString index="177">
            hstemhm
            10 186 return
          </CharString>
          <CharString index="178">
            rlineto
            hintmask 01011000
            2 28 rlineto
            hintmask 00111000
            -50 3 return
          </CharString>
          <CharString index="179">
            37 226 19 162 31 111 rrcurveto
            return
          </CharString>
          <CharString index="180">
            503 rmoveto
            -163 -43 1 -37 83 -4 return
          </CharString>
          <CharString index="181">
            45 1 7 5 15 11 28 rlinecurve
            16 26 return
          </CharString>
        <CharString name=".notdef">
          -352 endchar
        </CharString>
        <CharString name="A">
          -98 callgsubr
          endchar
        </CharString>
        <CharString name="AE">
          -95 callgsubr
          endchar
        </CharString>
        <CharString name="AEacute">
          -95 callgsubr
          263 596 rmoveto
          hintmask 1001010010000000
          -223 -100 -89 callgsubr
        </CharString>
        <CharString name="Aacute">
          -98 callgsubr
          279 616 -88 callsubr
        </CharString>
        <CharString name="Abreve">
          -70 callgsubr
          63 56 -62 callgsubr
          241 616 -95 callsubr
          endchar
        </CharString>
        <CharString name="Acircumflex">
          -98 callgsubr
          176 611 -89 callsubr
        </CharString>
        <CharString name="Adieresis">
          -70 callgsubr
          70 119 hstemhm
          227 52 callgsubr
          hintmask 0001111110000000
          hintmask 0100111110000000
          -85 callsubr
          hintmask 1000111110000000
          -56 -99 -63 -17 rlineto
          hintmask 0001111110000000
          -20 callsubr
          hintmask 1000111110000000
          85 hlineto
          12 54 rlineto
          hintmask 0100111110000000
          -76 callsubr
          hintmask 0010111110000000
          -73 -20 rlineto
          hintmask 1000111110000000
          -4 -49 rlineto
          hintmask 0001111110000000
          -20 callgsubr
          hintmask 1000111110000000
          -246 557 rmoveto
          50 -271 -175 -4 rlineto
          289 602 -67 callgsubr
        </CharString>
        <CharString name="Agrave">
          -98 callgsubr
          18 543 rmoveto
          -36 callgsubr
        </CharString>
        <CharString name="Amacron">
          -70 callgsubr
          86 53 -62 callgsubr
          309 499 -41 callsubr
        </CharString>
        <CharString name="Aogonek">
          65 -197 42 155 59 -43 -21 237 52 431 -20 hstemhm
          280 63 hintmask 11011100
          609 54 rmoveto
          -59 10 -25 85 -118 566 -57 -10 -253 -545 rlineto
          hintmask 10111100
          -56 -99 -64 -17 -3 -49 rlineto
          0 96 5 36 vhcurveto
          hintmask 11011100
          83 hlineto
          13 54 -67 10 20 63 46 105 rlineto
          213 hlineto
          11 -60 rlineto
          2 -19 2 -21 -15 vvcurveto
          -46 -16 -31 -34 -27 vhcurveto
          -75 -60 -24 -23 -52 vvcurveto
          -50 35 -25 53 35 33 14 8 18 53 callsubr
          43 45 58 68 9 hvcurveto
          140 hlineto
          -246 557 rmoveto
          53 -271 -178 -4 rlineto
          endchar
        </CharString>
        <CharString name="Aring">
          -70 callgsubr
          50 38 95 38 hstemhm
          304 48 82 46 hintmask 0001110111000000
          hintmask 0100110111000000
          -85 callsubr
          hintmask 1000110111000000
          -56 -99 -63 -17 rlineto
          hintmask 0001110111000000
          -20 callsubr
          hintmask 1000110111000000
          85 hlineto
          12 54 rlineto
          hintmask 0100110111000000
          -76 callsubr
          hintmask 0010110111000000
          -73 -20 rlineto
          hintmask 1000110111000000
          -4 -49 rlineto
          hintmask 0001110111000000
          -20 callgsubr
          hintmask 1000111111000000
          -194 916 rmoveto
          -68 -34 -42 -58 -43 25 -28 52 66 33 42 58 43 -24 28 -50 hvcurveto
          -52 -359 rmoveto
          50 -271 -175 -4 rlineto
          171 596 rmoveto
          25 9 -17 -21 -27 -12 -30 -36 -24 -10 17 21 28 14 29 34 hvcurveto
          endchar
        </CharString>
        <CharString name="Aringacute">
          -70 callgsubr
          34 32 81 32 hstemhm
          314 41 69 40 hintmask 0001101111000000
          hintmask 0100111111000000
          -85 callsubr
          hintmask 1000101111000000
          -56 -99 -63 -17 rlineto
          hintmask 0001101111000000
          -20 callsubr
          hintmask 1000101111000000
          85 hlineto
          12 54 rlineto
          hintmask 0100101111000000
          -76 callsubr
          hintmask 0010101111000000
          -73 -20 rlineto
          hintmask 1000101111000000
          -4 -49 rlineto
          hintmask 0001101111000000
          -20 callgsubr
          hintmask 1000101111000000
          -246 557 rmoveto
          50 -271 -175 -4 rlineto
          172 592 1 callsubr
          70 155 rmoveto
          -201 -90 18 -43 77 33 rlineto
          17 6 115 29 -13 callgsubr
        </CharString>
        <CharString name="Atilde">
          -70 callgsubr
          68 38 callsubr
          -23 635 hintmask 0001110110000000
          hintmask 0100110110000000
          -85 callsubr
          hintmask 1000110110000000
          -56 -99 -63 -17 rlineto
          hintmask 0001110110000000
          -20 callsubr
          hintmask 1000110110000000
          85 hlineto
          12 54 rlineto
          hintmask 0100110110000000
          -76 callsubr
          hintmask 0010110110000000
          -73 -20 rlineto
          hintmask 1000110110000000
          -4 -49 rlineto
          hintmask 0001110110000000
          -20 callgsubr
          hintmask 1000111010000000
          -246 557 rmoveto
          50 -271 -175 -4 rlineto
          304 600 16 callgsubr
          -31 callsubr
          hintmask 0001110110000000
          -4 callgsubr
          39 75 -68 callsubr
        </CharString>
        <CharString name="B">
          19 -5 58 284 57 267 54 -5 -20 hstemhm
          16 182 246 101 -72 94 hintmask 11100100
          hintmask 11100010
          390 715 rmoveto
          -60 -45 -9 -1 -60 hvcurveto
          hintmask 11011100
          -28 1 -73 4 0 vvcurveto
          -13 -54 69 -12 rlineto
          -50 callgsubr
          -65 -65 callsubr
          -76 -54 callgsubr
          75 4 29 1 vhcurveto
          -1 77 74 -4 48 hhcurveto
          125 102 84 129 88 -59 54 -86 13 hvcurveto
          1 7 rlineto
          hintmask 11100010
          93 22 73 75 99 vvcurveto
          95 -83 54 -94 vhcurveto
          -101 -60 rmoveto
          3 25 29 3 30 hhcurveto
          61 39 -42 -66 -102 -76 -57 -89 hvcurveto
          -7 hlineto
          -15 -57 rlineto
          11 hlineto
          hintmask 11101100
          81 66 -39 -86 -101 -67 -58 -89 -34 -32 3 3 -24 hvcurveto
          12 4 52 6 44 vhcurveto
          56 371 rlineto
          hintmask 11100010
          6 44 15 60 4 13 rrcurveto
          endchar
        </CharString>
        <CharString name="C">
          17 -15 58 499 -20 140 58 hstem
          49 103 vstem
          -98 callsubr
          -176 96 -120 176 79 62 18 16 64 hvcurveto
          endchar
        </CharString>
        <CharString name="Cacute">
          17 -15 58 499 -20 140 58 hstem
          49 103 vstem
          -98 callsubr
          -176 96 -120 176 79 62 18 16 64 hvcurveto
          5 879 -88 callsubr
        </CharString>
        <CharString name="Ccaron">
          17 -15 58 499 -20 140 58 hstem
          49 103 vstem
          -98 callsubr
          -176 96 -120 176 79 62 18 16 64 hvcurveto
          49 874 -85 callgsubr
        </CharString>
        <CharString name="Ccedilla">
          17 -17 callgsubr
          79 58 -56 56 499 -20 140 58 hstemhm
          49 103 187 64 hintmask 1010010111100000
          -98 callsubr
          hvcurveto
          hintmask 1000101111100000
          -165 84 -115 154 -14 vhcurveto
          -18 -81 10 -10 rlineto
          hintmask 1010010111100000
          -47 callsubr
          hintmask 0110010111100000
          -17 -35 rlineto
          hintmask 1001010111100000
          -36 callsubr
          15 44 74 2 60 16 61 16 rlinecurve
          endchar
        </CharString>
        <CharString name="Ccircumflex">
          17 -15 58 499 -20 140 58 hstem
          49 103 vstem
          -98 callsubr
          -176 96 -120 176 79 62 18 16 64 hvcurveto
          -97 874 -89 callsubr
        </CharString>
        <CharString name="Cdotaccent">
          17 -15 58 499 -20 140 58 41 129 hstem
          49 103 215 117 vstem
          -98 callsubr
          -176 96 -120 176 79 62 18 16 64 hvcurveto
          -91 871 -19 callgsubr
        </CharString>
        <CharString name="D">
          -82 callsubr
          endchar
        </CharString>
        <CharString name="Dcaron">
          -82 callsubr
          hintmask 10100100
          165 238 -85 callgsubr
        </CharString>
        <CharString name="Dcroat">
          -87 callgsubr
        </CharString>
        <CharString name="Delta">
          104 -15 59 672 -20 hstem
          23 630 vstem
          614 -15 rmoveto
          39 68 rlineto
          0 -27 59 -7 24 vhcurveto
          -6 22 -161 558 0 vvcurveto
          -56 -13 -291 -537 rlineto
          -13 -28 -69 -88 0 vvcurveto
          23 -65 rlineto
          476 149 rmoveto
          4 -16 6 -40 3 -28 rrcurveto
          -3 -117 -164 -3 -18 hhcurveto
          -35 -46 1 1 -40 hvcurveto
          29 72 250 467 rlineto
          endchar
        </CharString>
        <CharString name="E">
          -4 0 57 -40 -10 callgsubr
          10 -20 -5 callgsubr
          hintmask 10110011
          -83 callgsubr
          hintmask 01110111
          -72 callgsubr
          hintmask 10110111
          -58 callsubr
          hintmask 01110011
          -64 callsubr
          hintmask 10110111
          -107 callgsubr
          hintmask 10101011
          -38 callsubr
          -219 hlineto
          hintmask 10110011
          -29 callgsubr
          endchar
        </CharString>
        <CharString name="Eacute">
          -107 callsubr
          366 188 rmoveto
          -223 -100 rlineto
          hintmask 1010100110000000
          -89 callgsubr
        </CharString>
        <CharString name="Ebreve">
          -61 callgsubr
          63 56 -5 callgsubr
          hintmask 1011001011000000
          -83 callgsubr
          hintmask 0111001111000000
          -72 callgsubr
          hintmask 1011001111000000
          -58 callsubr
          hintmask 0111001011000000
          -64 callsubr
          hintmask 1011001111000000
          -107 callgsubr
          hintmask 1010011011000000
          -38 callsubr
          -219 hlineto
          hintmask 1011001011000000
          -29 callgsubr
          345 188 rmoveto
          -50 -7 -37 -34 -48 hhcurveto
          hintmask 1010101011000000
          26 callgsubr
        </CharString>
        <CharString name="Ecaron">
          -107 callsubr
          410 183 rmoveto
          -90 -41 rlineto
          hintmask 1010100110000000
          -12 -4 -31 -12 -22 -9 -58 25 rcurveline
          -80 41 -27 -39 153 -107 184 107 rlineto
          endchar
        </CharString>
        <CharString name="Ecircumflex">
          -107 callsubr
          264 183 rmoveto
          -184 -107 rlineto
          hintmask 1010100110000000
          -90 callgsubr
        </CharString>
        <CharString name="Edieresis">
          -61 callgsubr
          70 119 70 callsubr
          5 108 88 47 -14 107 -34 63 hintmask 1011000011010000
          -83 callgsubr
          hintmask 0111000101010000
          -72 callgsubr
          hintmask 1011000101010000
          -58 callsubr
          hintmask 0111000011010000
          -64 callsubr
          hintmask 1011000101010000
          -107 callgsubr
          hintmask 1010010011010000
          -38 callsubr
          -219 hlineto
          hintmask 1011000011010000
          -29 callgsubr
          377 174 rmoveto
          -41 -21 -31 -41 hvcurveto
          hintmask 1010101010100000
          -27 callsubr
          vhcurveto
          -69 callgsubr
        </CharString>
        <CharString name="Edotaccent">
          -61 callgsubr
          66 129 70 callsubr
          121 117 -37 47 59 63 hintmask 1011000001100000
          -83 callgsubr
          hintmask 0111000101100000
          -72 callgsubr
          hintmask 1011000101100000
          -58 callsubr
          hintmask 0111000001100000
          -64 callsubr
          hintmask 1011000101100000
          -107 callgsubr
          hintmask 1010010001100000
          -38 callsubr
          -219 hlineto
          hintmask 1011000001100000
          -29 callgsubr
          270 180 18 callsubr
          hvcurveto
          hintmask 1010101010100000
          -32 callgsubr
          26 callsubr
        </CharString>
        <CharString name="Egrave">
          -107 callsubr
          105 115 rmoveto
          0 129 -32 18 -6 vhcurveto
          hintmask 1010100110000000
          85 -37 20 48 -222 100 rlineto
          endchar
        </CharString>
        <CharString name="Emacron">
          -61 callgsubr
          86 53 -5 callgsubr
          hintmask 1011001011000000
          -83 callgsubr
          hintmask 0111001111000000
          -72 callgsubr
          hintmask 1011001111000000
          -58 callsubr
          hintmask 0111001011000000
          -64 callsubr
          hintmask 1011001111000000
          -107 callgsubr
          hintmask 1010011011000000
          -38 callsubr
          -219 hlineto
          hintmask 1011001011000000
          -29 callgsubr
          402 71 rmoveto
          13 53 rlineto
          hintmask 1010101011000000
          -313 hlineto
          -8 -53 rlineto
          endchar
        </CharString>
        <CharString name="Eng">
          161 -32 callsubr
          -20 21 hstemhm
          9 778 -777 160 447 168 hintmask 1001000010000000
          hintmask 1000100000100000
          787 7 callgsubr
          -76 -5 -77 vhcurveto
          hintmask 1001000000100000
          -79 2 -15 -60 77 -6 rlineto
          -18 -2 -49 -3 -16 vhcurveto
          -57 -395 -201 367 rlineto
          -10 22 -61 133 0 vvcurveto
          hintmask 1000001010000000
          -16 21 rlineto
          hintmask 1000000110000000
          -43 hlineto
          -19 -1 -92 5 0 vvcurveto
          hintmask 1000100001000000
          -13 -54 rlineto
          hintmask 1000010001000000
          75 -12 rlineto
          hintmask 0011000001000000
          -15 0 -45 -2 -16 vhcurveto
          -63 -431 -19 callsubr
          -4 -13 rlinecurve
          -78 57 callsubr
          86 5 19 78 41 0 callgsubr
          hintmask 1001000001000000
          15 59 -77 7 rlineto
          hintmask 0011000001000000
          58 callgsubr
          vhcurveto
          hintmask 1001000001000000
          57 389 295 -552 rlineto
          -17 -38 -86 -144 0 vvcurveto
          30 -22 47 57 86 109 3 27 rlinecurve
          0 39 264 6 40 vhcurveto
          34 231 rlineto
          hintmask 0100010000100000
          6 40 19 54 7 19 79 16 rcurveline
          endchar
        </CharString>
        <CharString name="Eogonek">
          -4 -197 42 155 57 -41 -21 22 -10 callgsubr
          10 -20 70 callsubr
          88 63 50 47 59 63 hintmask 1100110011100000
          -83 callgsubr
          hintmask 1010110111100000
          -72 callgsubr
          0 94 5 20 vhcurveto
          hintmask 1100110111100000
          232 hlineto
          11 hlineto
          -62 -50 -20 -24 -48 vvcurveto
          -50 35 -25 53 35 34 14 8 17 53 callsubr
          41 42 65 95 hvcurveto
          hintmask 1001110011100000
          16 hlineto
          -30 4 rlineto
          hintmask 1100110111100000
          16 14 37 151 -53 5 -5 -16 -14 -36 -6 -15 rlinecurve
          -107 callgsubr
          hintmask 1100101011100000
          -38 callsubr
          -219 hlineto
          hintmask 1100110011100000
          -29 callgsubr
          endchar
        </CharString>
        <CharString name="Eth">
          -87 callgsubr
        </CharString>
        <CharString name="Etilde">
          -61 callgsubr
          68 68 -27 68 -5 callgsubr
          hintmask 1011000001100000
          -83 callgsubr
          hintmask 0111000011100000
          -72 callgsubr
          hintmask 1011000011100000
          -58 callsubr
          hintmask 0111000001100000
          -64 callsubr
          hintmask 1011000011100000
          -107 callgsubr
          hintmask 1010010001100000
          -38 callsubr
          -219 hlineto
          hintmask 1011000001100000
          -29 callgsubr
          392 172 16 callgsubr
          hintmask 1010101001100000
          -31 callsubr
          32 -21 rlineto
          hintmask 1011000101100000
          0 33 44 26 vhcurveto
          39 75 -68 callsubr
        </CharString>
        <CharString name="Euro">
          92 -15 58 196 35 -23 34 60 35 -23 34 213 58 hstemhm
          112 105 hintmask 10101110
          hintmask 11001110
          19 237 rmoveto
          93 4 rlineto
          -153 6 83 -103 163 hhcurveto
          75 69 18 16 63 hvcurveto
          17 151 -60 -2 rlineto
          0 -6 -37 -3 -10 vhcurveto
          -2 -10 -8 -23 -11 -23 rrcurveto
          -13 -39 -50 -9 -35 hhcurveto
          hintmask 10101110
          -103 -50 86 117 -4 hvcurveto
          202 10 3 34 -205 -10 1 25 2 24 4 23 rlinecurve
          206 10 3 34 -202 -9 rlineto
          123 30 77 94 117 hhcurveto
          34 42 -10 -13 34 hvcurveto
          2 -20 2 -21 -2 -9 -6 -45 rcurveline
          58 -6 33 148 rlineto
          16 -58 -55 18 -76 hhcurveto
          hintmask 11010110
          -184 -116 -115 -165 -38 hvcurveto
          -92 -4 -3 -35 88 4 rlineto
          -3 -23 -3 -24 -24 vvcurveto
          -90 -4 rlineto
          endchar
        </CharString>
        <CharString name="F">
          -40 -29 callsubr
          335 56 263 56 54 callgsubr
          70 callsubr
          200 48 59 63 hintmask 1011000110000000
          hintmask 1010010110000000
          557 715 rmoveto
          0 -92 -10 -20 vhcurveto
          hintmask 1011000110000000
          -219 hlineto
          -20 -91 -86 callsubr
          hintmask 0110101110000000
          -33 callgsubr
          0 94 5 20 79 75 -46 callgsubr
          hintmask 1011001110000000
          -96 -75 callgsubr
          hintmask 0111001110000000
          23 160 rlineto
          hintmask 1011001110000000
          2 17 16 1 9 hhcurveto
          50 hlineto
          20 57 -6 0 hvcurveto
          -2 -67 49 -38 callgsubr
          2 20 11 64 0 vvcurveto
          -45 5 -18 67 callsubr
          -70 hlineto
          -8 -17 1 1 -16 hvcurveto
          22 150 6 39 12 51 5 21 rlinecurve
          126 72 callgsubr
          -14 -7 vvcurveto
          2 -15 1 -23 -16 vvcurveto
          57 5 13 136 rlineto
          endchar
        </CharString>
        <CharString name="G">
          -27 callgsubr
          hstem
          49 102 vstem
          -106 callgsubr
          endchar
        </CharString>
        <CharString name="Gbreve">
          -27 callgsubr
          38 56 hstem
          49 102 vstem
          -106 callgsubr
          99 178 -95 callsubr
          endchar
        </CharString>
        <CharString name="Gcircumflex">
          -27 callgsubr
          hstem
          49 102 vstem
          -106 callgsubr
          18 173 -89 callsubr
        </CharString>
        <CharString name="Gcommaaccent">
          -27 callgsubr
          hstem
          49 102 141 99 vstem
          -106 callgsubr
          -142 -844 -93 callgsubr
        </CharString>
        <CharString name="Gdieresis">
          -27 callgsubr
          35 119 hstem
          49 102 113 52 callgsubr
          vstem
          -106 callgsubr
          121 154 -67 callgsubr
        </CharString>
        <CharString name="Gdotaccent">
          -27 callgsubr
          41 129 hstem
          49 102 239 117 vstem
          -106 callgsubr
          24 170 -19 callgsubr
        </CharString>
        <CharString name="Gtilde">
          -27 callgsubr
          33 38 callsubr
          49 102 hintmask 11110110
          -106 callgsubr
          hintmask 11111010
          136 152 16 callgsubr
          hintmask 11110110
          -31 callsubr
          -4 callgsubr
          hintmask 11111010
          39 75 -68 callsubr
        </CharString>
        <CharString name="H">
          -93 callsubr
          endchar
        </CharString>
        <CharString name="Hbar">
          176 -29 callsubr
          332 53 119 44 101 -14 callsubr
          9 763 -762 186 -25 89 -85 185 60 186 -26 90 hintmask 1011010100000000
          hintmask 1011001100000000
          772 -39 callsubr
          hintmask 1011010000001000
          -20 -91 -86 callsubr
          hintmask 1011001000001000
          73 -12 rlineto
          hintmask 1011100001001000
          -13 0 -46 -3 -17 vhcurveto
          -4 -25 rlineto
          -318 hlineto
          6 41 11 46 4 14 77 7 rcurveline
          hintmask 1011010001000000
          4 59 rlineto
          hintmask 1011010000100000
          -18 callgsubr
          hintmask 1011001000100000
          -20 -91 -86 callsubr
          hintmask 1011010001000000
          73 -12 rlineto
          -50 callgsubr
          hintmask 1011001001000000
          -4 -25 rlineto
          hintmask 1011100001000000
          -87 hlineto
          -6 -44 rlineto
          87 hlineto
          -53 -362 -52 callsubr
          0 94 5 20 vhcurveto
          hintmask 0111010010000000
          79 64 30 callsubr
          -86 -75 callgsubr
          hintmask 1011010010000000
          23 160 rlineto
          319 hlineto
          hintmask 0111010010000000
          -28 -190 rlineto
          hintmask 1011010010010000
          -19 callsubr
          -3 13 callsubr
          79 64 -46 callgsubr
          hintmask 0111010000010000
          -85 -75 callgsubr
          48 332 rlineto
          96 hlineto
          hintmask 1011010000010000
          6 44 rlineto
          -95 hlineto
          hintmask 0111010000010000
          6 41 11 46 4 14 rrcurveto
          hintmask 1011010000010000
          76 7 rlineto
          -531 -273 rmoveto
          17 121 rlineto
          hintmask 1011010000001000
          319 hlineto
          -17 -116 rlineto
          endchar
        </CharString>
        <CharString name="Hcircumflex">
          -93 callsubr
          -298 242 rmoveto
          hintmask 0110100001000000
          -184 -107 rlineto
          hintmask 1010100001000000
          16 -39 91 41 12 4 30 12 24 9 rlinecurve
          57 -25 rlineto
          hintmask 1010100000100000
          79 -41 28 39 rlineto
          endchar
        </CharString>
        <CharString name="I">
          -51 callgsubr
          hstemhm
          15 353 -352 -96 callsubr
          endchar
        </CharString>
        <CharString name="IJ">
          9 -29 callsubr
          649 61 -58 57 -48 49 5 -20 hstemhm
          3 618 -616 184 hintmask 10010010
          hintmask 10000110
          621 7 callgsubr
          -57 -5 -77 vhcurveto
          hintmask 10010010
          -265 hlineto
          -20 -92 -86 callsubr
          hintmask 10000110
          73 -12 rlineto
          hintmask 10001010
          -50 callgsubr
          hintmask 10100010
          -63 -431 -19 callsubr
          -4 -13 rlinecurve
          -78 -16 rlineto
          hintmask 01010001
          -4 -50 rlineto
          0 96 5 20 77 63 -7 callsubr
          hintmask 10010001
          -86 7 rlineto
          58 callgsubr
          vhcurveto
          hintmask 01010001
          54 371 rlineto
          hintmask 10100001
          7 42 12 50 4 14 82 12 rcurveline
          79 -12 rlineto
          -50 callgsubr
          -81 -557 rlineto
          hintmask 10001010
          -3 -20 -103 -169 0 vvcurveto
          hintmask 10100010
          30 -22 54 56 103 107 4 27 rlinecurve
          79 548 7 42 12 50 4 14 rlinecurve
          76 7 rlineto
          endchar
        </CharString>
        <CharString name="Iacute">
          -51 callgsubr
          hstemhm
          15 376 -375 -96 callsubr
          -1 247 rmoveto
          -223 -100 rlineto
          hintmask 10010001
          -89 callgsubr
        </CharString>
        <CharString name="Ibreve">
          -51 callgsubr
          68 56 hstemhm
          15 380 -379 186 -21 184 hintmask 1001011000000000
          hintmask 1000110010000000
          45 callsubr
          hintmask 1001010010000000
          -20 -91 -86 callsubr
          hintmask 1000110010000000
          73 -12 rlineto
          hintmask 1010010010000000
          -6 callsubr
          hintmask 0101010100000000
          -79 -16 -69 callsubr
          79 64 -46 callgsubr
          hintmask 1001010100000000
          -85 -75 callgsubr
          hintmask 0101010100000000
          54 371 rlineto
          hintmask 1001010100000000
          -57 callsubr
          76 7 rcurveline
          -22 247 rmoveto
          -50 -7 -37 -34 -48 hhcurveto
          hintmask 1001010010000000
          26 callgsubr
        </CharString>
        <CharString name="Icircumflex">
          -51 callgsubr
          hstemhm
          15 398 -397 -96 callsubr
          -103 242 rmoveto
          -184 -107 rlineto
          hintmask 10010001
          -90 callgsubr
        </CharString>
        <CharString name="Idieresis">
          -51 callgsubr
          75 119 hstemhm
          16 186 -69 107 64 106 hintmask 1001010110000000
          366 884 rmoveto
          -78 callgsubr
          -171 hmoveto
          -79 callsubr
          hintmask 1000110110000000
          173 -174 rmoveto
          hintmask 1001010110000000
          0 -57 -5 -79 -17 callsubr
          vhcurveto
          hintmask 1000110110000000
          -13 -54 rlineto
          hintmask 0110011010000000
          73 -12 rlineto
          -6 callsubr
          -79 -16 -69 callsubr
          -25 callgsubr
          hintmask 1001011010000000
          15 59 -85 7 rlineto
          hintmask 0101011010000000
          14 3 -30 callgsubr
          hintmask 1001011010000000
          -1 callgsubr
          76 7 rlineto
          endchar
        </CharString>
        <CharString name="Idotaccent">
          -51 callgsubr
          71 129 hstemhm
          16 186 -21 184 -167 117 hintmask 1001000010000000
          hintmask 1000100100000000
          45 callsubr
          hintmask 1001000100000000
          -20 -91 -86 callsubr
          hintmask 1000100100000000
          73 -12 rlineto
          hintmask 1010000100000000
          -6 callsubr
          hintmask 0101001000000000
          -79 -16 -69 callsubr
          79 64 -46 callgsubr
          hintmask 1001001000000000
          -85 -75 callgsubr
          hintmask 0101001000000000
          54 371 rlineto
          hintmask 1001001000000000
          -57 callsubr
          76 7 rcurveline
          -97 239 18 callsubr
          hvcurveto
          hintmask 1001000100000000
          -32 callgsubr
          vhcurveto
          hintmask 1001010010000000
          26 callsubr
        </CharString>
        <CharString name="Igrave">
          -51 callgsubr
          hstemhm
          15 353 -352 -96 callsubr
          -261 174 rmoveto
          0 129 -32 18 -6 vhcurveto
          hintmask 10010001
          85 -37 20 48 -222 100 rlineto
          endchar
        </CharString>
        <CharString name="Imacron">
          -51 callgsubr
          91 53 hstemhm
          15 406 -405 186 hintmask 10010110
          408 781 rmoveto
          13 53 rlineto
          -251 hlineto
          -8 -53 rlineto
          hintmask 10001110
          206 -71 rmoveto
          hintmask 10010110
          0 -57 -5 -79 -17 callsubr
          vhcurveto
          hintmask 10001110
          -13 -54 rlineto
          hintmask 10100110
          73 -12 rlineto
          -13 0 -46 -3 -17 vhcurveto
          -63 -431 rlineto
          hintmask 01010101
          -19 callsubr
          -3 13 callsubr
          -25 callgsubr
          hintmask 10010101
          15 59 -85 7 rlineto
          hintmask 01010101
          14 3 -30 callgsubr
          hintmask 10010101
          -1 callgsubr
          76 7 rlineto
          endchar
        </CharString>
        <CharString name="Iogonek">
          -226 -197 42 150 62 -57 57 587 -14 callsubr
          -30 63 147 183 hintmask 11001010
          70 13 rmoveto
          -71 -63 -29 -18 -54 vvcurveto
          -50 36 -25 52 36 33 14 8 18 vhcurveto
          -9 33 rlineto
          -9 -22 -19 -4 -14 hhcurveto
          -32 -16 20 25 hvcurveto
          hintmask 10101010
          43 45 58 68 9 vhcurveto
          68 55 -5 0 hvcurveto
          hintmask 11001011
          16 59 -86 7 rlineto
          58 callgsubr
          vhcurveto
          54 371 7 42 12 50 4 14 rlinecurve
          77 7 5 59 rlineto
          hintmask 11000111
          0 -57 -5 -77 -20 -92 5 0 vhcurveto
          hintmask 11001011
          -13 -54 73 -12 rlineto
          hintmask 11000111
          -50 callgsubr
          hintmask 11010011
          -63 -431 rlineto
          -2 vlineto
          -12 -75 -7 -24 -26 -23 rrcurveto
          endchar
        </CharString>
        <CharString name="Itilde">
          -51 callgsubr
          73 38 callsubr
          15 405 -404 186 -21 184 hintmask 1001001100000000
          hintmask 1000101001000000
          45 callsubr
          hintmask 1001001001000000
          -20 -91 -86 callsubr
          hintmask 1000101001000000
          73 -12 rlineto
          hintmask 1010001001000000
          -6 callsubr
          hintmask 0101001010000000
          -79 -16 -69 callsubr
          79 64 -46 callgsubr
          hintmask 1001001010000000
          -85 -75 callgsubr
          hintmask 0101001010000000
          54 371 rlineto
          hintmask 1001001010000000
          -57 callsubr
          76 7 rcurveline
          25 231 16 callgsubr
          hintmask 1001010001000000
          -31 callsubr
          -4 callgsubr
          hintmask 1001001001000000
          39 75 -68 callsubr
        </CharString>
        <CharString name="J">
          -252 644 -14 callsubr
          -18 376 -187 -46 callsubr
          endchar
        </CharString>
        <CharString name="Jcircumflex">
          -252 644 -14 callsubr
          -18 415 -226 -46 callsubr
          -33 249 rmoveto
          hintmask 01001000
          -184 -107 -90 callgsubr
        </CharString>
        <CharString name="K">
          103 -29 callsubr
          652 57 6 -20 hstemhm
          9 678 -677 185 hintmask 10101000
          9 callgsubr
          hintmask 10011000
          4 59 rlineto
          0 -46 -9 callgsubr
          hintmask 10101000
          -21 -81 -86 callsubr
          hintmask 01011000
          -3 callgsubr
          hintmask 10101000
          0 -57 -5 -79 -17 callsubr
          vhcurveto
          hintmask 01011000
          -12 -54 72 -12 rlineto
          -50 callgsubr
          hintmask 10101000
          -51 callsubr
          hintmask 10011000
          -78 -16 -3 -59 callgsubr
          79 64 -46 callgsubr
          hintmask 01100100
          -85 -75 callgsubr
          -1 callgsubr
          hintmask 10100100
          76 7 rlineto
          endchar
        </CharString>
        <CharString name="Kcommaaccent">
          103 -29 callsubr
          652 57 6 -20 hstemhm
          10 185 87 99 hintmask 10100100
          9 callgsubr
          hintmask 10010100
          4 59 rlineto
          0 -46 -9 callgsubr
          hintmask 10100100
          -21 -81 -86 callsubr
          hintmask 01010100
          -3 callgsubr
          hintmask 10100100
          0 -57 -5 -79 -17 callsubr
          vhcurveto
          hintmask 01010100
          -12 -54 72 -12 rlineto
          -50 callgsubr
          hintmask 10100100
          -51 callsubr
          hintmask 01011100
          -78 -16 -3 -59 callgsubr
          -25 callgsubr
          15 59 -85 -75 callgsubr
          -1 callgsubr
          hintmask 10101100
          76 7 rlineto
          -75 -775 rmoveto
          hintmask 01101100
          -15 callsubr
          hintmask 10101100
          -14 callgsubr
          34 -12 rlineto
          0 66 90 60 vvcurveto
          32 -14 19 -27 -26 -32 -23 -43 vhcurveto
          endchar
        </CharString>
        <CharString name="L">
          -82 callgsubr
          endchar
        </CharString>
        <CharString name="Lacute">
          -82 callgsubr
          247 vmoveto
          hintmask 10010001
          -223 -100 -89 callgsubr
        </CharString>
        <CharString name="Lcaron">
          -58 0 57 -40 -21 369 241 38 -14 callsubr
          9 504 -503 186 hintmask 10101010
          427 607 rmoveto
          0 -2 -127 -2 -19 vhcurveto
          -14 -94 55 -3 49 243 rlineto
          hintmask 10100110
          -151 103 -23 callsubr
          hintmask 10101010
          -20 -91 -86 callsubr
          hintmask 10100110
          73 -12 rlineto
          hintmask 10110010
          6 callsubr
          hintmask 01101001
          -12 callsubr
          hintmask 10101001
          -12 callgsubr
          hintmask 01101010
          -60 callsubr
          hintmask 10101001
          19 callgsubr
        </CharString>
        <CharString name="Lcommaaccent">
          -57 0 57 -40 -21 648 -14 callsubr
          10 68 callsubr
          -146 99 hintmask 10010001
          hintmask 10001010
          362 -39 callsubr
          hintmask 10010010
          -20 -91 -86 callsubr
          hintmask 10001010
          73 -12 rlineto
          hintmask 10100010
          6 callsubr
          hintmask 01010101
          -12 callsubr
          hintmask 10010101
          -12 callgsubr
          hintmask 01010001
          -60 callsubr
          hintmask 10010101
          -48 callsubr
          -144 -775 rmoveto
          hintmask 10010010
          61 callsubr
          hintmask 10010001
          34 -12 rlineto
          0 66 90 60 vvcurveto
          32 -14 19 -27 -26 -32 -23 -43 vhcurveto
          endchar
        </CharString>
        <CharString name="Ldot">
          -58 0 57 -40 -21 345 139 164 -14 callsubr
          10 68 callsubr
          7 127 hintmask 1010101010000000
          441 480 rmoveto
          -45 -29 -35 -47 -34 19 -23 35 44 29 34 48 36 -20 21 -33 hvcurveto
          hintmask 1010010100000000
          -79 230 -23 callsubr
          hintmask 1010100100000000
          -20 -91 -86 callsubr
          hintmask 1010010100000000
          73 -12 rlineto
          hintmask 1011000100000000
          6 callsubr
          hintmask 0110101010000000
          -12 callsubr
          hintmask 1010101010000000
          -12 callgsubr
          hintmask 0110101010000000
          -60 callsubr
          hintmask 1010101010000000
          19 callgsubr
        </CharString>
        <CharString name="Lslash">
          -58 0 57 -40 -21 504 -20 164 -14 callsubr
          9 489 -488 68 callsubr
          hintmask 1010101000000000
          hintmask 1010010010000000
          362 -39 callsubr
          hintmask 1010100010000000
          -20 -91 -86 callsubr
          hintmask 1010010010000000
          73 -12 rlineto
          hintmask 1011000010000000
          -50 callgsubr
          -24 -165 -65 -23 9 -41 49 17 -32 -219 -31 callgsubr
          -79 -16 rlineto
          hintmask 0110100100000000
          -12 callsubr
          hintmask 1010100100000000
          -12 callgsubr
          hintmask 0110101000000000
          -60 callsubr
          hintmask 1010100100000000
          -113 hlineto
          15 3 54 6 41 vhcurveto
          32 223 194 69 -9 41 -178 -63 15 101 -57 callsubr
          59 callgsubr
          endchar
        </CharString>
        <CharString name="M">
          326 -29 callsubr
          652 57 -48 54 -25 20 -20 21 4 -20 hstemhm
          -5 904 -903 167 419 191 hintmask 1010000100000000
          720 705 rmoveto
          hintmask 1000100100000000
          -22 -20 rlineto
          0 -60 -126 -13 -22 vhcurveto
          -183 -362 -76 354 rlineto
          -6 24 -22 132 0 vvcurveto
          hintmask 1000010100000000
          -15 21 rlineto
          -58 hlineto
          hintmask 1000001100000000
          -20 -1 -112 5 0 vvcurveto
          hintmask 1001000100000000
          -13 -54 78 -12 -7 -75 -90 -437 rlineto
          hintmask 0110000010000000
          -5 -17 -16 -41 -5 -13 -78 31 callsubr
          0 85 5 19 vhcurveto
          hintmask 1010000010000000
          77 48 30 callsubr
          rlineto
          hintmask 0110000010000000
          -77 7 rlineto
          hintmask 1010000011000000
          1 16 5 57 4 28 84 422 rcurveline
          126 -584 rlineto
          37 hlineto
          296 584 -35 -422 -5 -28 -12 -58 -3 -15 rlinecurve
          -78 -16 rlineto
          hintmask 0110000001000000
          6 callgsubr
          0 96 5 19 -25 callgsubr
          14 59 rlineto
          hintmask 1010000001000000
          -77 7 -5 71 rlineto
          hintmask 0110000001000000
          31 437 rlineto
          hintmask 1010000001000000
          2 17 8 46 4 12 78 7 rcurveline
          5 59 rlineto
          0 -74 -5 -77 vhcurveto
          endchar
        </CharString>
        <CharString name="N">
          164 -100 callsubr
          endchar
        </CharString>
        <CharString name="Nacute">
          162 -100 callsubr
          -240 241 -88 callsubr
        </CharString>
        <CharString name="Ncaron">
          162 -100 callsubr
          -196 236 -85 callgsubr
        </CharString>
        <CharString name="Ncommaaccent">
          44 callgsubr
          hstemhm
          10 163 129 99 215 170 hintmask 1001000111000000
          hintmask 1000100111000000
          788 7 callgsubr
          -76 -5 -77 vhcurveto
          hintmask 1001000111000000
          -80 2 -14 -60 75 -6 rlineto
          -18 -1 -49 -2 -16 vhcurveto
          -58 -395 -199 367 rlineto
          -11 22 -60 133 0 vvcurveto
          hintmask 1000001111000000
          -16 21 rlineto
          hintmask 1001000111000000
          -45 -1 rlineto
          -21 -91 5 0 hvcurveto
          -12 -54 rlineto
          hintmask 1000100111000000
          75 -12 rlineto
          hintmask 0011000111000000
          -15 0 -45 -2 -16 -57 callgsubr
          -2 -50 rlineto
          0 85 5 20 79 41 -7 callsubr
          hintmask 1001000111000000
          -77 7 rlineto
          14 2 50 7 42 vhcurveto
          hintmask 0011000111000000
          56 389 rlineto
          hintmask 1001000111000000
          297 -563 rlineto
          62 hlineto
          0 39 264 6 40 vhcurveto
          34 231 rlineto
          hintmask 0100010111000000
          6 40 18 54 7 19 78 16 rcurveline
          -483 -781 -93 callgsubr
        </CharString>
        <CharString name="Ntilde">
          44 callgsubr
          58 38 callsubr
          9 779 -778 163 443 170 hintmask 1001000011000000
          hintmask 1000100010010000
          788 7 callgsubr
          -76 -5 -77 vhcurveto
          hintmask 1001000010010000
          -80 2 -14 -60 75 -6 rlineto
          -18 -1 -49 -2 -16 vhcurveto
          -58 -395 -199 367 rlineto
          -11 22 -60 133 0 vvcurveto
          hintmask 1000001011000000
          -16 21 rlineto
          hintmask 1001000010100000
          -45 -1 rlineto
          -21 -91 5 0 hvcurveto
          -12 -54 rlineto
          hintmask 1000100010100000
          75 -12 rlineto
          hintmask 0011000010100000
          -15 0 -45 -2 -16 -57 callgsubr
          -2 -50 rlineto
          0 85 5 20 79 41 -7 callsubr
          hintmask 1001000010100000
          -77 7 rlineto
          14 2 50 7 42 vhcurveto
          hintmask 0011000010100000
          56 389 rlineto
          hintmask 1001000010100000
          297 -563 rlineto
          62 hlineto
          0 39 264 6 40 vhcurveto
          34 231 rlineto
          hintmask 0100010100010000
          6 40 18 54 7 19 78 16 rcurveline
          -214 225 16 callgsubr
          -31 callsubr
          -4 callgsubr
          hintmask 1001000011000000
          39 75 -68 callsubr
        </CharString>
        <CharString name="O">
          50 callgsubr
          hstem
          49 107 438 107 vstem
          -105 callgsubr
          endchar
        </CharString>
        <CharString name="OE">
          376 -15 53 -38 57 -40 -21 344 52 257 56 -38 53 -5 -20 hstemhm
          49 104 624 47 58 64 hintmask 0101100111000000
          902 165 rmoveto
          -53 5 -5 -16 -14 -36 -5 -15 rlinecurve
          -3 -9 -11 -14 -12 -14 rrcurveto
          -4 -22 -34 -5 -30 hhcurveto
          -140 hlineto
          1 19 4 51 5 40 25 170 rcurveline
          2 16 18 1 8 hhcurveto
          52 hlineto
          19 57 -6 0 hvcurveto
          -1 -67 48 -38 callgsubr
          12 80 -44 5 -19 67 callsubr
          -71 hlineto
          -7 -18 1 1 -16 hvcurveto
          21 144 6 36 7 37 10 38 rlinecurve
          127 hlineto
          28 -7 callgsubr
          1 -23 -16 vvcurveto
          57 5 rlineto
          hintmask 0101001111000000
          14 136 -17 18 rlineto
          0 -92 -10 -19 vhcurveto
          hintmask 0101100111000000
          -218 hlineto
          -12 -47 2 2 -29 hvcurveto
          7 -28 -30 4 -34 hhcurveto
          hintmask 1001010111000000
          -245 -133 -190 -247 -177 88 -121 183 34 31 4 7 30 hvcurveto
          2 30 47 2 12 hhcurveto
          hintmask 0101100111000000
          230 hlineto
          20 90 -4 0 hvcurveto
          21 18 rlineto
          hintmask 0011100111000000
          -379 94 rmoveto
          -44 -42 -53 -26 -63 hhcurveto
          hintmask 1001010111000000
          -121 -54 107 138 198 93 186 173 62 46 -28 -44 30 hvcurveto
          endchar
        </CharString>
        <CharString name="Oacute">
          50 callgsubr
          hstem
          49 107 438 107 vstem
          -105 callgsubr
          379 615 -88 callsubr
        </CharString>
        <CharString name="Obreve">
          50 callgsubr
          38 56 hstem
          49 107 438 107 vstem
          -105 callgsubr
          377 615 -95 callsubr
          endchar
        </CharString>
        <CharString name="Ocircumflex">
          50 callgsubr
          hstem
          49 107 438 107 vstem
          -105 callgsubr
          276 610 -89 callsubr
        </CharString>
        <CharString name="Odieresis">
          50 callgsubr
          45 119 hstemhm
          49 107 98 52 callgsubr
          4 107 hintmask 11010010
          -105 callgsubr
          hintmask 11111100
          389 601 -67 callgsubr
        </CharString>
        <CharString name="Ograve">
          50 callgsubr
          hstem
          49 107 438 107 vstem
          -105 callgsubr
          118 542 rmoveto
          -36 callgsubr
        </CharString>
        <CharString name="Ohungarumlaut">
          50 callgsubr
          hstem
          49 107 438 107 vstem
          -105 callgsubr
          293 630 -41 callgsubr
        </CharString>
        <CharString name="Omacron">
          50 callgsubr
          61 53 hstem
          49 107 438 107 vstem
          -105 callgsubr
          429 498 -41 callsubr
        </CharString>
        <CharString name="Omega">
          218 -4 11 -7 57 610 53 hstemhm
          14 58 25 106 54 59 115 60 145 107 hintmask 01101001
          180 57 rmoveto
          hintmask 01111001
          -31 -33 5 4 -22 hvcurveto
          -8 14 -6 15 -1 8 -2 15 -3 36 -1 16 -55 -5 rcurveline
          hintmask 10111001
          -7 -158 9 -11 rlineto
          0 102 4 20 vhcurveto
          hintmask 01101101
          75 hlineto
          40 54 -4 0 hvcurveto
          12 97 rlineto
          hintmask 10101111
          -83 40 -37 66 104 vvcurveto
          175 82 189 175 123 53 -93 -123 -161 -67 -150 -134 -47 vhcurveto
          -8 -97 rlineto
          0 54 4 40 vhcurveto
          69 hlineto
          20 103 -4 0 hvcurveto
          hintmask 01101011
          11 11 37 158 -54 5 rlineto
          hintmask 10101001
          -5 -16 -13 -36 -6 -15 -3 -8 -12 -15 -12 -14 rrcurveto
          -4 -22 -35 -5 -31 hhcurveto
          -77 -4 rlineto
          hintmask 01101111
          1 11 rlineto
          160 58 91 145 184 vvcurveto
          175 -101 94 -175 -230 -140 -176 -230 -124 56 -80 105 -44 vhcurveto
          -1 -13 rlineto
          endchar
        </CharString>
        <CharString name="Oslash">
          -78 callsubr
          endchar
        </CharString>
        <CharString name="Oslashacute">
          -78 callsubr
          -58 477 -88 callsubr
        </CharString>
        <CharString name="Otilde">
          50 callgsubr
          43 38 callsubr
          49 107 438 107 hintmask 11101100
          -105 callgsubr
          404 599 16 callgsubr
          hintmask 11011100
          -31 callsubr
          -4 callgsubr
          hintmask 11101100
          39 75 -68 callsubr
        </CharString>
        <CharString name="P">
          -6 -29 callsubr
          296 50 324 50 -5 -20 70 callsubr
          291 95 hintmask 10110010
          383 715 rmoveto
          -46 -76 -9 -1 -51 hvcurveto
          hintmask 01101110
          -33 1 -62 4 0 vvcurveto
          -13 -54 -33 callgsubr
          0 94 5 20 vhcurveto
          hintmask 10110110
          79 68 30 callsubr
          rlineto
          hintmask 01110110
          -90 7 rlineto
          hintmask 10110110
          14 3 -30 callgsubr
          18 126 rlineto
          -1 30 35 -1 30 hhcurveto
          143 121 87 161 117 -81 59 -118 hvcurveto
          -124 -177 rmoveto
          hintmask 10110010
          5 35 13 61 7 26 rrcurveto
          3 25 23 2 12 hhcurveto
          89 54 -46 -89 -125 -78 -64 -114 -17 -23 2 2 -24 hvcurveto
          endchar
        </CharString>
        <CharString name="Q">
          151 -15 53 -16 -21 666 53 hstemhm
          49 107 438 107 hintmask 10111000
          583 -224 rmoveto
          72 92 rlineto
          hintmask 01111000
          0 -129 61 -14 11 vhcurveto
          -75 61 rlineto
          173 53 91 165 201 vvcurveto
          178 -93 122 -182 -244 -133 -189 -247 vhcurveto
          hintmask 10111000
          -177 92 -122 182 13 11 1 1 12 vhcurveto
          -203 296 rmoveto
          198 93 186 172 119 54 -107 -139 -198 -92 -185 -171 -119 -56 107 138 vhcurveto
          endchar
        </CharString>
        <CharString name="R">
          -100 callgsubr
          endchar
        </CharString>
        <CharString name="Racute">
          -100 callgsubr
          122 233 -88 callsubr
        </CharString>
        <CharString name="Rcaron">
          -100 callgsubr
          166 228 -85 callgsubr
        </CharString>
        <CharString name="Rcommaaccent">
          54 -5 62 -57 57 244 50 314 50 -5 -20 hstemhm
          10 187 95 99 99 95 hintmask 01110111
          385 715 rmoveto
          -45 -74 -8 -2 -52 hvcurveto
          hintmask 10101111
          -33 2 -65 3 0 vvcurveto
          -13 -54 74 -12 rlineto
          -14 0 -45 -16 callgsubr
          -64 -65 callsubr
          -80 -54 callgsubr
          95 5 20 vhcurveto
          hintmask 01110111
          80 64 30 callsubr
          rlineto
          hintmask 10110111
          -87 7 rlineto
          hintmask 01110111
          14 3 -30 callgsubr
          20 136 rlineto
          -1 29 34 -1 29 hhcurveto
          69 -185 rlineto
          9 -24 27 -92 0 vvcurveto
          79 76 -5 0 hvcurveto
          15 59 rlineto
          hintmask 10110111
          -69 7 rlineto
          hintmask 01110111
          -12 22 -18 33 -7 15 -4 8 -37 82 -34 93 rrcurveto
          99 29 74 79 122 vvcurveto
          113 -81 58 -119 vhcurveto
          -39 -50 rmoveto
          89 55 -45 -86 -121 -67 -62 -114 -19 -28 2 3 -28 hvcurveto
          27 182 7 44 12 53 7 24 rlinecurve
          3 25 22 3 12 hhcurveto
          -54 -789 -93 callgsubr
        </CharString>
        <CharString name="S">
          -33 -15 60 620 55 hstem
          95 103 186 108 vstem
          -99 callgsubr
          endchar
        </CharString>
        <CharString name="Sacute">
          -33 -15 60 620 55 hstem
          95 103 186 108 vstem
          -99 callgsubr
          321 712 -88 callsubr
        </CharString>
        <CharString name="Scaron">
          -33 -15 60 620 55 hstem
          95 103 186 108 vstem
          -99 callgsubr
          375 707 -85 callgsubr
        </CharString>
        <CharString name="Scedilla">
          -33 -235 42 -21 -21 132 9 -9 44 -44 148 -118 -21 102 -21 678 55 hstemhm
          95 103 51 64 71 108 hintmask 1010001111100000
          59 192 rmoveto
          -37 -154 rlineto
          0 65 -43 110 -8 vhcurveto
          hintmask 1000011111100000
          -18 -81 10 -10 rlineto
          hintmask 1010001111100000
          -47 callsubr
          hintmask 0110001111100000
          -17 -35 rlineto
          hintmask 1001001111100000
          -36 callsubr
          15 44 rlineto
          137 4 114 73 145 194 -294 3 138 vvcurveto
          79 60 44 67 44 30 -4 -18 37 vhcurveto
          2 -19 3 -22 -11 vvcurveto
          -4 -7 -44 0 vhcurveto
          57 -6 36 151 rlineto
          16 -60 -72 16 -63 hhcurveto
          -133 -104 -76 -132 hvcurveto
          -185 289 -1 -142 vvcurveto
          hintmask 1000100111100000
          -86 -59 -53 -87 -47 -43 13 14 -31 vhcurveto
          -1 14 -1 24 13 vvcurveto
          13 8 50 0 vhcurveto
          endchar
        </CharString>
        <CharString name="Scircumflex">
          -33 -15 60 620 55 hstem
          95 103 186 108 vstem
          -99 callgsubr
          229 707 -89 callsubr
        </CharString>
        <CharString name="Scommaaccent">
          -33 -15 60 620 55 hstemhm
          95 103 2 99 85 108 hintmask 11101000
          -99 callgsubr
          hintmask 11011000
          77 -310 -93 callgsubr
        </CharString>
        <CharString name="T">
          -86 callgsubr
          endchar
        </CharString>
        <CharString name="Tbar">
          2 -29 callsubr
          358 44 252 56 10 -20 hstemhm
          128 185 243 57 hintmask 10110110
          613 553 rmoveto
          hintmask 10101110
          3 callgsubr
          hintmask 10110110
          -288 hlineto
          -15 callgsubr
          hintmask 10101110
          -35 callgsubr
          hintmask 01110110
          2 22 30 3 27 hhcurveto
          61 hlineto
          -1 -19 0 -47 -2 -15 -25 -171 rcurveline
          -148 hlineto
          -7 -44 rlineto
          148 hlineto
          -31 -216 -31 callgsubr
          -78 -16 -3 -37 callgsubr
          21 78 64 -7 callsubr
          hintmask 10110110
          -86 22 callsubr
          hintmask 01110110
          27 186 rlineto
          hintmask 10110110
          149 hlineto
          7 44 rlineto
          -150 hlineto
          21 141 6 38 12 53 5 20 rlinecurve
          -40 callsubr
          endchar
        </CharString>
        <CharString name="Tcaron">
          -86 callgsubr
          -28 345 -85 callgsubr
        </CharString>
        <CharString name="Tcedilla">
          2 -17 callgsubr
          89 62 -36 -21 649 56 10 -20 hstemhm
          128 185 -37 64 216 57 hintmask 1010010100110000
          613 553 rmoveto
          hintmask 1010010010110000
          3 callgsubr
          hintmask 1010010100110000
          -288 hlineto
          -15 callgsubr
          hintmask 1010010010110000
          -35 callgsubr
          hintmask 1010010101010000
          -50 callsubr
          67 4 33 1 vhcurveto
          -21 -94 10 -10 rlineto
          hintmask 1000101100110000
          0 15 1 6 23 16 -11 -25 -34 -25 -20 -34 vhcurveto
          hintmask 1010010100110000
          -20 -20 6 5 -16 hvcurveto
          -17 -35 rlineto
          -8 15 27 -10 36 hhcurveto
          63 55 40 61 hvcurveto
          hintmask 0110010100110000
          46 -35 28 -52 1 vhcurveto
          hintmask 1001010100110000
          20 59 rlineto
          63 -1 48 -4 0 vvcurveto
          16 59 rlineto
          hintmask 1010001101010000
          -86 7 rlineto
          hintmask 1010010101010000
          1 58 callgsubr
          54 371 rcurveline
          -18 callsubr
          endchar
        </CharString>
        <CharString name="Thorn">
          -9 -29 callsubr
          154 50 324 50 71 -14 callsubr
          46 183 -18 87 204 92 hintmask 1011010001000000
          392 651 rmoveto
          hintmask 1011001001000000
          5 59 rlineto
          0 -56 -5 -78 vhcurveto
          hintmask 1011010011000000
          -19 -92 -86 callsubr
          hintmask 1011001011000000
          72 -12 rlineto
          hintmask 1011100011000000
          -13 0 -46 -2 -23 callgsubr
          -4 -13 rlinecurve
          -78 -16 rlineto
          hintmask 0111010101000000
          -3 -50 rlineto
          0 96 5 19 78 63 -46 callgsubr
          hintmask 1011010101000000
          -86 7 rlineto
          12 1 40 5 38 vhcurveto
          hintmask 0111010101000000
          -1 28 31 -1 27 hhcurveto
          hintmask 1011010101000000
          142 130 88 161 116 -70 59 -118 -30 -41 -3 -3 -37 hvcurveto
          6 33 7 33 4 11 rrcurveto
          -26 -127 rmoveto
          3 27 26 3 15 hhcurveto
          hintmask 1011010011000000
          90 55 -46 -89 -125 -79 -64 -114 -16 -25 2 3 -24 hvcurveto
          endchar
        </CharString>
        <CharString name="U">
          -106 callsubr
          endchar
        </CharString>
        <CharString name="Uacute">
          -106 callsubr
          -198 247 -88 callsubr
        </CharString>
        <CharString name="Ubreve">
          -30 callsubr
          68 56 -84 callgsubr
          -220 247 -95 callsubr
          endchar
        </CharString>
        <CharString name="Ucircumflex">
          -106 callsubr
          -301 242 -89 callsubr
        </CharString>
        <CharString name="Udieresis">
          -30 callsubr
          75 119 hstemhm
          99 96 -44 189 -71 52 callgsubr
          -23 168 hintmask 1100100000000000
          hintmask 1010100010000000
          752 7 callgsubr
          -50 -9 callgsubr
          hintmask 1100100010000000
          -21 -81 -86 callsubr
          hintmask 1010100010000000
          -101 callsubr
          hintmask 1100010000000000
          5 59 rlineto
          0 -64 -9 callgsubr
          hintmask 1010010000000000
          -29 callgsubr
          -12 -54 rlineto
          hintmask 1100010000000000
          74 -12 rlineto
          -15 -1 -49 -16 callgsubr
          hintmask 1010010000000000
          -44 -297 rlineto
          -171 -24 72 -110 167 hhcurveto
          167 98 110 171 24 -72 callsubr
          5 15 rlinecurve
          hintmask 1100100010000000
          77 7 rlineto
          -188 233 rmoveto
          -41 -21 -31 -41 -28 15 -19 30 41 21 30 41 hvcurveto
          hintmask 1101101100000000
          31 -16 17 -29 vhcurveto
          -69 callgsubr
        </CharString>
        <CharString name="Ugrave">
          -106 callsubr
          -459 174 rmoveto
          -36 callgsubr
        </CharString>
        <CharString name="Uhungarumlaut">
          -106 callsubr
          -294 262 -41 callgsubr
        </CharString>
        <CharString name="Umacron">
          -30 callsubr
          91 53 -84 callgsubr
          -158 130 -41 callsubr
        </CharString>
        <CharString name="Uogonek">
          131 -197 42 140 64 598 57 6 -20 hstemhm
          99 96 -44 189 -101 63 280 168 hintmask 11101000
          hintmask 11011001
          752 7 callgsubr
          -50 -9 callgsubr
          hintmask 11101001
          -21 -81 -86 callsubr
          hintmask 11011001
          -101 callsubr
          hintmask 11100100
          5 59 rlineto
          0 -64 -9 callgsubr
          hintmask 11010100
          -29 callgsubr
          -12 -54 rlineto
          hintmask 11100100
          74 -12 rlineto
          -15 -1 -49 -16 callgsubr
          hintmask 11010100
          -44 -297 -24 -166 67 -108 157 -7 rlinecurve
          -49 -40 -16 -24 -43 vvcurveto
          -50 36 -25 52 36 33 14 8 17 vhcurveto
          hintmask 11101011
          -8 33 rlineto
          -7 -17 -20 -6 -20 hhcurveto
          -32 -14 17 23 29 22 39 31 34 hvcurveto
          145 15 86 106 22 158 39 267 rcurveline
          7 43 12 53 5 15 77 7 rcurveline
          endchar
        </CharString>
        <CharString name="Uring">
          -30 callsubr
          55 38 95 38 hstemhm
          99 96 -44 189 16 48 82 46 50 168 hintmask 1101110110000000
          hintmask 1011110111000000
          752 7 callgsubr
          -50 -9 callgsubr
          hintmask 1101110111000000
          -21 -81 -86 callsubr
          hintmask 1011110111000000
          -101 callsubr
          hintmask 1101101110000000
          5 59 rlineto
          0 -64 -9 callgsubr
          hintmask 1011101110000000
          -29 callgsubr
          -12 -54 rlineto
          hintmask 1101101110000000
          74 -12 rlineto
          -15 -1 -49 -16 callgsubr
          hintmask 1011101110000000
          -44 -297 rlineto
          -171 -24 72 -110 167 hhcurveto
          167 98 110 171 24 -72 callsubr
          5 15 rlinecurve
          hintmask 1101110111000000
          77 7 rlineto
          -290 265 -67 callsubr
        </CharString>
        <CharString name="Utilde">
          -30 callsubr
          73 38 callsubr
          99 96 -44 189 242 168 hintmask 11001100
          hintmask 10101101
          752 7 callgsubr
          -50 -9 callgsubr
          hintmask 11001101
          -21 -81 -86 callsubr
          hintmask 10101101
          -101 callsubr
          hintmask 11001010
          5 59 rlineto
          0 -64 -9 callgsubr
          hintmask 10101010
          -29 callgsubr
          -12 -54 rlineto
          hintmask 11001010
          74 -12 rlineto
          -15 -1 -49 -16 callgsubr
          hintmask 10101010
          -44 -297 rlineto
          -171 -24 72 -110 167 hhcurveto
          167 98 110 171 24 -72 callsubr
          5 15 rlinecurve
          hintmask 11010101
          77 7 rlineto
          -173 231 16 callgsubr
          -31 callsubr
          -4 callgsubr
          hintmask 11001100
          39 75 -68 callsubr
        </CharString>
        <CharString name="V">
          97 21 -21 641 64 -59 59 -44 44 5 -20 hstemhm
          58 674 hintmask 10100100
          278 hmoveto
          62 hlineto
          262 545 rlineto
          hintmask 10010100
          26 54 33 45 0 vvcurveto
          67 17 rlineto
          hintmask 10001100
          4 49 rlineto
          0 -104 -5 -36 vhcurveto
          hintmask 10100100
          -88 hlineto
          -13 -54 72 -10 rlineto
          0 -10 -42 -10 -21 vhcurveto
          -206 -430 -85 385 rlineto
          -13 57 0 51 0 vvcurveto
          hintmask 11000100
          79 20 rlineto
          hintmask 10010100
          4 49 rlineto
          hintmask 10001100
          0 -118 -5 -28 vhcurveto
          -105 hlineto
          hintmask 10100100
          -13 -54 62 -10 rlineto
          hintmask 11000100
          0 21 -48 8 -37 vhcurveto
          endchar
        </CharString>
        <CharString name="W">
          -102 callsubr
          endchar
        </CharString>
        <CharString name="Wacute">
          -102 callsubr
          -295 254 rmoveto
          hintmask 01001010
          -223 -100 -89 callgsubr
        </CharString>
        <CharString name="Wcircumflex">
          -102 callsubr
          -388 249 rmoveto
          hintmask 01001010
          -184 -107 -90 callgsubr
        </CharString>
        <CharString name="Wdieresis">
          405 0 148 -127 -21 641 64 -59 59 -44 44 5 -20 75 119 hstemhm
          406 52 callgsubr
          hintmask 0101001110000000
          hintmask 0100101110000000
          1040 661 rmoveto
          hintmask 0100011110000000
          -26 callgsubr
          hintmask 1001001110000000
          -88 hlineto
          -12 -54 71 -10 rlineto
          0 -9 -37 -10 -26 vhcurveto
          -181 -430 -84 537 rlineto
          -54 hlineto
          -231 -537 -54 385 rlineto
          -7 51 -3 57 0 vvcurveto
          hintmask 0110001110000000
          79 20 rlineto
          hintmask 0100101110000000
          4 49 rlineto
          hintmask 0100011110000000
          0 -118 -5 -28 vhcurveto
          -105 hlineto
          hintmask 0101001110000000
          -13 -54 62 -10 rlineto
          hintmask 0110001110000000
          0 19 -43 7 -42 vhcurveto
          98 -556 rlineto
          62 hlineto
          218 506 89 -506 rlineto
          61 hlineto
          237 545 rlineto
          18 39 41 60 0 vvcurveto
          -275 240 rmoveto
          hintmask 0100101110000000
          -41 -21 -31 -41 -27 callsubr
          hvcurveto
          -69 callgsubr
        </CharString>
        <CharString name="Wgrave">
          -102 callsubr
          -546 181 rmoveto
          hintmask 01001010
          -36 callgsubr
        </CharString>
        <CharString name="X">
          120 -5 47 -42 59 587 59 -42 42 5 -20 hstemhm
          -15 737 hintmask 01100100
          311 355 rmoveto
          -155 -191 rlineto
          hintmask 10100100
          -20 -24 -61 -56 -27 -25 -61 -17 rcurveline
          -2 -47 rlineto
          0 141 5 17 vhcurveto
          hintmask 01100100
          24 56 -1 0 hvcurveto
          15 55 -75 10 14 23 18 29 12 16 rlinecurve
          134 169 85 -159 rlineto
          hintmask 10100100
          11 -18 13 -37 7 -27 -65 -18 rcurveline
          -2 -47 rlineto
          0 143 5 32 19 63 -1 0 vhcurveto
          hintmask 01010100
          15 55 -74 10 -17 22 -22 30 -10 16 rlinecurve
          -129 236 154 201 17 19 45 38 25 21 rlinecurve
          69 16 2 47 rlineto
          0 -114 -5 -52 vhcurveto
          hintmask 01001100
          -28 -51 1 0 hvcurveto
          -14 -55 rlineto
          hintmask 01100100
          72 -10 -14 -22 -16 -26 -11 -15 rlinecurve
          -115 -156 -72 133 -10 19 -11 43 -6 24 rlinecurve
          78 22 3 47 rlineto
          hintmask 01010100
          0 -148 -5 -35 -20 -66 1 0 vhcurveto
          hintmask 01001100
          -15 -55 76 -10 rlineto
          hintmask 01100100
          48 -83 rlineto
          endchar
        </CharString>
        <CharString name="Y">
          -104 callgsubr
          endchar
        </CharString>
        <CharString name="Yacute">
          -104 callgsubr
          -103 254 -88 callsubr
        </CharString>
        <CharString name="Ycircumflex">
          -104 callgsubr
          -206 249 -89 callsubr
        </CharString>
        <CharString name="Ydieresis">
          69 -29 callsubr
          646 64 -59 59 -44 44 5 -20 75 119 hstemhm
          159 186 -108 52 callgsubr
          hintmask 1001001011000000
          hintmask 1000101011000000
          689 661 rmoveto
          hintmask 1000011011000000
          -26 callgsubr
          hintmask 1001001011000000
          -88 hlineto
          -12 -54 70 -10 rlineto
          0 -20 -39 -15 -24 vhcurveto
          -145 -234 -71 189 rlineto
          -21 59 -4 49 0 vvcurveto
          hintmask 1010001011000000
          79 20 rlineto
          hintmask 1000101011000000
          3 49 rlineto
          hintmask 1000011011000000
          0 -118 -5 -28 vhcurveto
          -105 hlineto
          hintmask 1001001011000000
          -13 -54 63 -10 rlineto
          hintmask 0110001101000000
          0 27 -44 14 -41 vhcurveto
          108 -298 -18 -121 -19 callsubr
          -3 -13 rlinecurve
          -79 -16 -69 callsubr
          79 64 -46 callgsubr
          hintmask 1001001101000000
          -85 -75 callgsubr
          hintmask 0101001101000000
          15 107 rlineto
          hintmask 1000101101000000
          176 271 rlineto
          33 52 43 47 0 vvcurveto
          -322 240 rmoveto
          -41 -21 -31 -41 -28 15 -19 30 40 23 29 42 hvcurveto
          hintmask 1001001011000000
          31 -16 17 -30 vhcurveto
          229 hmoveto
          -41 -21 -31 -41 -27 callsubr
          hvcurveto
          endchar
        </CharString>
        <CharString name="Ygrave">
          -104 callgsubr
          -364 181 rmoveto
          -36 callgsubr
        </CharString>
        <CharString name="Ytilde">
          69 -29 callsubr
          646 64 -59 59 -44 44 5 -20 73 38 callsubr
          64 628 -533 186 hintmask 1001000110000000
          hintmask 1000100110000000
          689 661 rmoveto
          hintmask 1000010110000000
          -26 callgsubr
          hintmask 1001000110000000
          -88 hlineto
          -12 -54 70 -10 rlineto
          0 -20 -39 -15 -24 vhcurveto
          -145 -234 -71 189 rlineto
          -21 59 -4 49 0 vvcurveto
          hintmask 1010000110000000
          79 20 rlineto
          hintmask 1000100110000000
          3 49 rlineto
          hintmask 1000010110000000
          0 -118 -5 -28 vhcurveto
          -105 hlineto
          hintmask 1001000110000000
          -13 -54 63 -10 rlineto
          hintmask 1010000110000000
          0 27 -44 14 -41 vhcurveto
          108 -298 -18 -121 -19 callsubr
          -3 -13 rlinecurve
          hintmask 0101000101000000
          -79 -16 -69 callsubr
          79 64 -46 callgsubr
          hintmask 1001000101000000
          -85 -75 callgsubr
          hintmask 0101000101000000
          15 107 rlineto
          hintmask 1000101001000000
          176 271 rlineto
          33 52 43 47 0 vvcurveto
          -78 238 16 callgsubr
          -31 callsubr
          -4 callgsubr
          hintmask 1001000110000000
          39 75 -68 callsubr
        </CharString>
        <CharString name="Z">
          -94 callsubr
          endchar
        </CharString>
        <CharString name="Zacute">
          -94 callsubr
          176 252 -88 callsubr
        </CharString>
        <CharString name="Zcaron">
          -94 callsubr
          240 247 -85 callgsubr
        </CharString>
        <CharString name="Zdotaccent">
          -33 0 59 -42 -21 532 -20 138 59 10 -20 66 129 hstemhm
          292 117 hintmask 10110110
          436 646 rmoveto
          -83 -126 -223 -301 rlineto
          -35 -48 -94 -114 0 vvcurveto
          -1 -57 rlineto
          339 hlineto
          20 90 -4 0 hvcurveto
          hintmask 01110110
          22 18 35 161 -54 5 -4 -16 -14 -46 -6 -15 rlinecurve
          hintmask 10110110
          -2 -7 -10 -15 -12 -13 rrcurveto
          -4 -22 -34 -5 -30 hhcurveto
          -195 hlineto
          87 132 222 303 126 155 rlineto
          56 -323 vlineto
          -15 callgsubr
          hintmask 10101110
          -29 -169 56 -5 5 26 13 43 5 15 rlinecurve
          21 34 rlineto
          hintmask 10110110
          2 21 35 3 28 hhcurveto
          100 244 -19 callgsubr
        </CharString>
        <CharString name="a">
          -47 -49 callsubr
          hstemhm
          30 91 hintmask 10011000
          -103 callgsubr
          hintmask 00111000
          -11 callsubr
          hintmask 01011000
          4 callgsubr
          hintmask 10011000
          -94 callgsubr
          endchar
        </CharString>
        <CharString name="a.sups">
          -63 callgsubr
        </CharString>
        <CharString name="aacute">
          -47 -49 callsubr
          251 -20 -101 callgsubr
          237 700 -91 callsubr
        </CharString>
        <CharString name="abreve">
          -47 -49 callsubr
          83 56 -101 callgsubr
          246 672 -95 callsubr
          endchar
        </CharString>
        <CharString name="acircumflex">
          -47 -49 callsubr
          261 -20 -101 callgsubr
          172 710 -92 callsubr
          endchar
        </CharString>
        <CharString name="acute">
          755 -20 hstem
          122 220 vstem
          297 755 -91 callsubr
        </CharString>
        <CharString name="acute.cap">
          539 148 hstem
          98 252 vstem
          321 687 -88 callsubr
        </CharString>
        <CharString name="adieresis">
          -47 -49 callsubr
          90 119 hstemhm
          30 91 31 107 122 106 -97 callgsubr
          hintmask 10011111
          -94 callgsubr
          278 658 rmoveto
          -78 callgsubr
          -229 hmoveto
          -79 callsubr
          endchar
        </CharString>
        <CharString name="ae">
          90 -10 60 394 59 -54 54 hstemhm
          29 87 182 87 188 82 hintmask 10111100
          -63 callsubr
          hintmask 11011100
          27 callgsubr
          endchar
        </CharString>
        <CharString name="aeacute">
          90 -10 60 394 59 -54 54 252 -20 hstemhm
          29 87 182 87 188 82 hintmask 10111110
          -63 callsubr
          hintmask 11011110
          27 callgsubr
          30 311 -91 callsubr
        </CharString>
        <CharString name="agrave">
          -47 -49 callsubr
          251 -20 -101 callgsubr
          246 550 -68 callgsubr
        </CharString>
        <CharString name="amacron">
          -47 -49 callsubr
          102 53 -101 callgsubr
          302 551 -41 callsubr
        </CharString>
        <CharString name="ampersand">
          10 -11 73 382 59 0 -20 hstemhm
          25 86 213 80 93 72 hintmask 11011100
          708 564 rmoveto
          -38 -37 -48 -39 -56 -38 rrcurveto
          2 18 1 19 19 vvcurveto
          45 -7 43 -14 58 vhcurveto
          -92 -28 rlineto
          28 -62 13 -66 -63 vvcurveto
          -9 0 -9 -1 -10 vhcurveto
          -48 -29 -52 -27 -54 -24 rrcurveto
          42 31 20 30 30 vvcurveto
          59 -42 28 -88 -107 -142 -201 -151 -107 44 -55 86 185 168 176 218 47 vhcurveto
          hintmask 10111100
          63 33 66 33 73 32 6 30 rcurveline
          -563 -449 rmoveto
          -66 -23 27 76 12 1 14 1 13 hvcurveto
          141 27 113 54 118 61 rrcurveto
          -147 -39 -128 -137 -118 hhcurveto
          hintmask 11011100
          50 382 rmoveto
          56 18 -12 -36 -60 -67 -46 -133 -33 hvcurveto
          96 25 55 91 46 hhcurveto
          endchar
        </CharString>
        <CharString name="aogonek">
          -47 -197 42 144 66 391 58 hstem
          30 91 92 63 vstem
          -103 callgsubr
          -13 -101 -14 -64 -2 -11 rrcurveto
          -66 -51 -20 -24 -49 -16 callsubr
          -20 hhcurveto
          -32 -14 17 23 28 21 39 31 34 hvcurveto
          150 43 rlineto
          -94 callgsubr
          endchar
        </CharString>
        <CharString name="approxequal">
          -16 94 77 -17 77 38 77 -17 77 hstemhm
          30 489 hintmask 01011000
          hintmask 01101000
          483 406 65 callsubr
          hintmask 01011000
          -50 -75 -99 0 hvcurveto
          36 -33 rlineto
          46 callsubr
          hintmask 10101000
          -59 -142 65 callsubr
          -50 -75 -99 0 hvcurveto
          36 -33 rlineto
          hintmask 01011000
          46 callsubr
          endchar
        </CharString>
        <CharString name="aring">
          -47 -49 callsubr
          76 38 95 38 hstemhm
          30 91 112 48 82 46 hintmask 1001111110000000
          -103 callgsubr
          hintmask 0011111110000000
          -11 callsubr
          hintmask 0101111110000000
          4 callgsubr
          hintmask 1001111110000000
          -94 callgsubr
          170 696 -67 callsubr
        </CharString>
        <CharString name="aringacute">
          -47 -49 callsubr
          41 32 81 32 hstemhm
          30 91 113 41 69 40 hintmask 1001111110000000
          -103 callgsubr
          hintmask 0011111110000000
          -11 callsubr
          hintmask 0101111110000000
          4 callgsubr
          hintmask 1001111110000000
          -94 callgsubr
          242 758 rmoveto
          -201 -90 18 -43 77 33 rlineto
          17 6 115 29 0 vvcurveto
          -112 -58 1 callsubr
          endchar
        </CharString>
        <CharString name="asciicircum">
          -33 313 415 hstem
          26 523 vstem
          326 615 rmoveto
          156 -302 67 44 -207 371 -316 -371 55 -44 rlineto
          endchar
        </CharString>
        <CharString name="asciitilde">
          -16 175 82 -22 82 hstemhm
          46 475 hintmask 01100000
          hintmask 10100000
          486 312 rmoveto
          0 -50 -55 -30 vhcurveto
          hintmask 01100000
          -54 -113 60 -70 hhcurveto
          -50 -73 -104 0 hvcurveto
          35 -33 rlineto
          0 50 55 30 vhcurveto
          54 123 -60 60 hhcurveto
          hintmask 10100000
          50 73 104 0 hvcurveto
          endchar
        </CharString>
        <CharString name="asterisk">
          -154 494 -20 31 -20 hstemhm
          234 35 -16 34 hintmask 01010000
          105 650 rmoveto
          89 -81 -100 -64 rlineto
          hintmask 10100000
          21 -27 117 37 5 -119 33 2 28 119 104 -54 16 31 -90 82 100 66 -21 26 rlineto
          hintmask 01010000
          -117 -37 -5 116 -32 -2 -28 -118 -105 53 rlineto
          endchar
        </CharString>
        <CharString name="at">
          338 -213 62 141 60 -44 -21 36 -21 449 54 115 49 hstemhm
          52 93 129 87 458 81 hintmask 1100111110000000
          hintmask 1010111110000000
          570 -15 rmoveto
          202 16 128 165 183 vvcurveto
          215 -151 103 -215 -300 -180 -221 -300 -2 vhcurveto
          -230 133 -129 230 60 165 65 0 vhcurveto
          -5 32 rlineto
          0 -162 -35 -50 -195 -83 117 178 vhcurveto
          250 -2 134 224 250 hhcurveto
          176 116 -100 -176 -162 -76 -113 -110 -19 hvcurveto
          -2 153 34 149 32 138 -23 15 rcurveline
          -57 -13 rlineto
          3 -29 -63 10 -31 hhcurveto
          -94 -126 -210 -154 hvcurveto
          hintmask 1100111110000000
          -99 35 -50 66 69 72 76 107 54 vhcurveto
          hintmask 1001111110000000
          -13 -110 -11 -63 0 vvcurveto
          -66 449 rmoveto
          40 57 -26 -9 18 hvcurveto
          hintmask 1100111110000000
          -155 -16 -113 -209 -60 hhcurveto
          -27 -18 40 58 hvcurveto
          hintmask 1001111110000000
          123 69 178 50 vhcurveto
          endchar
        </CharString>
        <CharString name="atilde">
          -47 -49 callsubr
          100 38 callsubr
          30 91 hintmask 10010110
          -103 callgsubr
          hintmask 00110110
          -11 callsubr
          hintmask 01010110
          4 callgsubr
          hintmask 10011010
          -94 callgsubr
          288 668 17 callgsubr
          hintmask 10010110
          -76 callgsubr
          hintmask 10011010
          39 65 -68 callsubr
        </CharString>
        <CharString name="b">
          -85 -11 58 -41 -21 36 -21 438 65 267 -20 hstemhm
          374 91 hintmask 10011100
          27 callsubr
          rlineto
          hintmask 00111100
          -14 -178 -46 -338 -47 -175 rrcurveto
          hintmask 01011100
          26 -15 rlineto
          hintmask 00111100
          63 17 rlineto
          hintmask 10011100
          -4 30 58 -9 29 hhcurveto
          96 125 209 156 97 -34 52 -65 -67 -69 -70 -100 -53 hvcurveto
          19 126 23 128 29 163 rrcurveto
          10 -703 rmoveto
          -38 -55 24 10 -21 hvcurveto
          154 17 111 203 58 hhcurveto
          27 17 -39 -56 -123 -67 -173 -49 hvcurveto
          endchar
        </CharString>
        <CharString name="b.sups">
          -256 440 51 207 60 hstem
          282 72 vstem
          12 callgsubr
          -6 -85 -26 -211 -34 -120 rlinecurve
          19 -10 49 9 rlineto
          -2 19 37 -7 18 hhcurveto
          66 75 125 100 53 -18 40 -38 -46 -44 -42 -61 -34 hvcurveto
          12 73 16 82 18 95 rrcurveto
          3 -414 53 callgsubr
          7 -20 -27 -73 -33 -87 -26 hvcurveto
          endchar
        </CharString>
        <CharString name="backslash">
          -178 -67 840 hstem
          92 262 vstem
          354 -47 rmoveto
          -196 820 -66 -20 195 -820 rlineto
          endchar
        </CharString>
        <CharString name="bar">
          -301 752 8 0 -20 hstemhm
          61 192 hintmask 01100000
          135 -122 rmoveto
          hintmask 10100000
          118 874 -64 8 -128 -873 rlineto
          endchar
        </CharString>
        <CharString name="braceleft">
          -300 -121 13 834 40 hstem
          50 300 vstem
          229 601 rmoveto
          40 callsubr
          -3 -91 -14 -138 -20 -144 rlinecurve
          -14 -19 -25 -20 -33 -5 -4 -23 rcurveline
          26 -6 25 -20 9 -19 -21 -141 -25 -136 -22 -95 11 -13 rcurveline
          47 callsubr
          33 234 -12 17 -20 15 -20 8 rlinecurve
          1 4 17 6 25 14 20 18 rlinecurve
          endchar
        </CharString>
        <CharString name="braceright">
          -300 -121 36 394 23 417 13 -13 17 hstemhm
          -25 300 hintmask 11101000
          95 40 rmoveto
          39 callsubr
          2 91 14 137 20 144 rlinecurve
          13 19 26 20 34 6 4 23 rcurveline
          -27 5 -26 21 -8 19 21 140 25 137 23 95 -11 13 rcurveline
          hintmask 11011000
          47 callgsubr
          -33 -234 13 -17 19 -15 20 -8 rlinecurve
          -4 vlineto
          -17 -6 -25 -14 -21 -18 rrcurveto
          endchar
        </CharString>
        <CharString name="bracketleft">
          -309 -121 13 834 40 hstem
          41 300 vstem
          52 -121 rmoveto
          47 callsubr
          80 561 rlineto
          40 callsubr
          -6 -204 -64 -436 -51 -217 rlinecurve
          endchar
        </CharString>
        <CharString name="bracketright">
          -309 -121 36 834 13 -13 17 hstemhm
          -25 300 hintmask 11010000
          264 762 rmoveto
          hintmask 10110000
          47 callgsubr
          -80 -561 rlineto
          39 callsubr
          rlineto
          hintmask 11010000
          6 204 63 436 52 217 rrcurveto
          endchar
        </CharString>
        <CharString name="breve">
          587 56 hstem
          108 271 vstem
          325 727 -95 callsubr
          endchar
        </CharString>
        <CharString name="breve.cap">
          547 56 hstem
          102 271 vstem
          319 687 -95 callsubr
          endchar
        </CharString>
        <CharString name="brokenbar">
          -320 752 8 0 -20 hstemhm
          52 192 hintmask 01100000
          196 392 rmoveto
          hintmask 10100000
          48 360 -64 8 -52 -360 rlineto
          -30 -188 rmoveto
          -46 -325 74 -9 43 327 rlineto
          endchar
        </CharString>
        <CharString name="bullet">
          -311 167 173 hstem
          49 146 vstem
          132 340 rmoveto
          -51 -32 -56 -50 -41 22 -26 41 51 32 54 50 44 -20 25 -43 hvcurveto
          endchar
        </CharString>
        <CharString name="c">
          37 callgsubr
          hstem
          29 91 vstem
          -92 callgsubr
          endchar
        </CharString>
        <CharString name="c.sups">
          -325 441 51 214 51 hstem
          65 72 110 29 vstem
          199 757 rmoveto
          -57 -77 -128 -96 -59 28 -33 49 54 51 33 52 34 hvcurveto
          -25 20 rlineto
          -35 -30 -29 -19 -26 hhcurveto
          -23 -11 17 32 72 33 93 27 12 14 -3 -8 23 hvcurveto
          2 -58 28 -1 23 94 -13 20 rlineto
          4 -30 -37 3 -20 hhcurveto
          endchar
        </CharString>
        <CharString name="cacute">
          37 callgsubr
          252 -20 hstem
          29 91 vstem
          -92 callgsubr
          144 252 -91 callsubr
        </CharString>
        <CharString name="caron">
          765 -20 hstem
          85 322 vstem
          122 765 -77 callgsubr
          endchar
        </CharString>
        <CharString name="caron.cap">
          536 146 hstem
          64 337 vstem
          384 682 -85 callgsubr
        </CharString>
        <CharString name="ccaron">
          37 callgsubr
          262 -20 hstem
          29 91 vstem
          -92 callgsubr
          -51 262 -77 callgsubr
          endchar
        </CharString>
        <CharString name="ccedilla">
          -179 -17 callgsubr
          106 -21 445 67 hstemhm
          29 91 53 64 hintmask 1010011110000000
          233 503 rmoveto
          -86 -118 -211 -153 hvcurveto
          -1 -88 32 -51 62 -9 rrcurveto
          hintmask 1000111110000000
          -19 -85 10 -10 rlineto
          hintmask 1010011110000000
          -47 callsubr
          hintmask 0110011110000000
          -17 -35 rlineto
          hintmask 1001011110000000
          -36 callsubr
          17 50 78 8 70 48 51 83 rlinecurve
          -32 24 rlineto
          -65 -49 -53 -36 -52 hhcurveto
          -39 -21 33 63 117 65 170 46 18 20 -5 -16 46 hvcurveto
          6 -95 36 -2 38 147 -15 24 rlineto
          hintmask 1010011110000000
          9 -70 -52 5 -25 hhcurveto
          endchar
        </CharString>
        <CharString name="ccircumflex">
          37 callgsubr
          262 -20 hstem
          29 91 vstem
          -92 callgsubr
          78 262 -92 callsubr
          endchar
        </CharString>
        <CharString name="cdotaccent">
          37 callgsubr
          88 37 callsubr
          29 91 116 117 hintmask 11011100
          -92 callgsubr
          71 217 18 callsubr
          hvcurveto
          hintmask 11101100
          -32 callgsubr
          vhcurveto
          hintmask 11011100
          26 callsubr
        </CharString>
        <CharString name="cedilla">
          -17 callgsubr
          hstemhm
          166 64 hintmask 10100100
          167 10 rmoveto
          -47 hlineto
          hintmask 10001100
          -24 -104 10 -10 rlineto
          hintmask 10100100
          -47 callsubr
          hintmask 01100100
          -17 -35 rlineto
          hintmask 10010100
          -36 callsubr
          endchar
        </CharString>
        <CharString name="cent">
          -107 522 57 -34 -20 hstemhm
          36 91 hintmask 01100000
          208 -42 rmoveto
          20 109 rlineto
          99 1 70 53 0 vvcurveto
          -20 47 rlineto
          0 -63 -35 -74 -1 vhcurveto
          hintmask 10100000
          72 390 19 -3 17 -8 19 -18 rlinecurve
          2 -14 1 -13 -1 -7 -5 -36 rcurveline
          55 -3 rlineto
          hintmask 01100000
          29 125 rlineto
          hintmask 10100000
          -49 17 -32 14 -45 3 20 107 rcurveline
          -32 3 -20 -109 rlineto
          -167 -6 -87 -130 -170 vvcurveto
          -114 51 -79 107 -12 vhcurveto
          -20 -108 rlineto
          -47 318 rmoveto
          103 43 130 109 10 vhcurveto
          -73 -387 rlineto
          -57 15 -22 60 69 vvcurveto
          endchar
        </CharString>
        <CharString name="circumflex">
          765 -20 hstem
          65 322 vstem
          251 765 -92 callsubr
          endchar
        </CharString>
        <CharString name="circumflex.cap">
          536 146 hstem
          54 337 vstem
          238 682 -89 callsubr
        </CharString>
        <CharString name="colon">
          -378 -10 139 -118 -21 350 139 hstemhm
          12 117 -74 117 hintmask 01110000
          hintmask 01101000
          121 479 -65 callgsubr
          hintmask 10110000
          -43 -350 -65 callgsubr
          endchar
        </CharString>
        <CharString name="comma">
          -372 -83 -21 115 -21 hstem
          6 123 vstem
          72 129 8 callgsubr
        </CharString>
        <CharString name="copyright">
          269 -115 44 100 47 347 47 101 44 hstemhm
          57 44 124 83 206 44 -36 43 178 45 hintmask 1111111010000000
          hintmask 1111110110000000
          567 49 rmoveto
          -3 103 -42 -1 rlineto
          0 0 -25 -1 -8 vhcurveto
          -5 -4 -16 -5 -11 vhcurveto
          -6 -25 -32 -4 -24 hhcurveto
          -82 -41 77 97 97 41 76 82 hvcurveto
          hintmask 1111111010000000
          23 29 -5 -6 24 hvcurveto
          3 -9 4 -14 -5 vvcurveto
          -32 vlineto
          41 -3 7 101 rlineto
          9 -40 -40 11 -52 hhcurveto
          -136 -69 -90 -131 -131 69 -89 136 hvcurveto
          hintmask 1111110110000000
          52 45 11 9 40 hvcurveto
          hintmask 1111111010000000
          221 201 -34 callgsubr
          endchar
        </CharString>
        <CharString name="d">
          -44 -49 callsubr
          266 -20 hstemhm
          30 91 207 67 hintmask 10011110
          464 770 rmoveto
          -166 -28 2 -39 84 -12 -4 -55 -8 -71 -9 -74 rlinecurve
          -8 callsubr
          hintmask 00111110
          56 callsubr
          hintmask 01011110
          11 callsubr
          hintmask 10011110
          18 callgsubr
          hintmask 01011110
          122 67 174 49 vhcurveto
          endchar
        </CharString>
        <CharString name="d.sups">
          -232 441 61 -36 31 callgsubr
          231 51 hstemhm
          69 72 121 49 hintmask 00011110
          354 920 rmoveto
          -116 -19 1 -28 51 -7 -2 -27 -5 -47 -6 -41 rlinecurve
          3 -20 -31 5 -16 hhcurveto
          -66 -75 -125 -100 hvcurveto
          hintmask 10001110
          -53 18 -40 38 52 50 55 74 35 vhcurveto
          hintmask 01001110
          -6 -35 -10 -45 -12 -40 18 -10 rcurveline
          111 26 rlineto
          hintmask 00101110
          2 28 rlineto
          hintmask 00011110
          -54 3 5 107 23 130 33 171 rlinecurve
          -172 -197 rmoveto
          23 30 -12 -6 15 hvcurveto
          hintmask 10001110
          -90 -13 -60 -98 -32 hhcurveto
          -16 -6 19 28 hvcurveto
          hintmask 00011110
          72 33 87 26 vhcurveto
          endchar
        </CharString>
        <CharString name="dagger">
          -72 -79 -21 594 -20 33 -20 22 -20 277 -20 hstemhm
          478 21 hintmask 10011100
          11 callgsubr
          -13 -91 rmoveto
          -8 -50 -99 -455 0 vvcurveto
          19 -18 90 10 7 6 rlineto
          0 38 487 3 20 vhcurveto
          hintmask 11001100
          -60 71 rmoveto
          hintmask 10011100
          -62 4 -104 11 0 vvcurveto
          hintmask 11001100
          48 callsubr
          147 18 26 1 vhcurveto
          hintmask 10101100
          90 hmoveto
          62 -4 103 35 callsubr
          hintmask 11001100
          0 -148 -18 -25 -1 vhcurveto
          endchar
        </CharString>
        <CharString name="daggerdbl">
          -72 -79 -21 413 110 71 -20 33 -20 22 -20 277 -20 hstemhm
          54 143 212 21 48 21 hintmask 1100111110000000
          11 callgsubr
          -43 -291 rmoveto
          -7 -50 -70 -255 0 vvcurveto
          19 -18 90 10 7 6 rlineto
          0 9 287 2 20 vhcurveto
          hintmask 0010001000000000
          -30 271 rmoveto
          hintmask 0000101000000000
          -62 4 -104 11 0 vvcurveto
          hintmask 0010000100000000
          48 callsubr
          147 18 26 1 vhcurveto
          hintmask 0001000010000000
          90 hmoveto
          62 -4 103 35 callsubr
          hintmask 0110001110000000
          0 -148 -18 -25 -1 vhcurveto
          -119 -200 rmoveto
          -63 4 -63 11 0 vvcurveto
          48 callsubr
          107 18 25 1 vhcurveto
          90 hmoveto
          63 -4 63 35 callsubr
          0 -108 -18 -25 -1 vhcurveto
          -17 19 rmoveto
          3 25 12 84 1 1 rrcurveto
          -50 hlineto
          -16 -110 rlineto
          endchar
        </CharString>
        <CharString name="dcaron">
          -26 -49 callsubr
          252 -20 34 -20 hstemhm
          30 91 207 67 hintmask 10010110
          hintmask 10011010
          541 756 rmoveto
          0 -10 -127 -2 -19 vhcurveto
          -15 -94 56 -3 48 243 rlineto
          hintmask 10010111
          -154 14 rmoveto
          -166 -28 2 -39 84 -12 -4 -55 -8 -71 -9 -74 rlinecurve
          -8 callsubr
          hintmask 00110111
          56 callsubr
          hintmask 01010111
          11 callsubr
          hintmask 10010111
          18 callgsubr
          hintmask 01010111
          122 67 174 49 vhcurveto
          endchar
        </CharString>
        <CharString name="dcroat">
          -44 -49 callsubr
          59 44 163 -20 hstemhm
          30 91 207 67 hintmask 10011111
          464 770 rmoveto
          -166 -28 2 -39 84 -12 -8 -84 rlineto
          -111 hlineto
          -7 -44 rlineto
          113 hlineto
          -2 -24 -3 -24 -3 -24 rrcurveto
          -8 callsubr
          hintmask 00111111
          56 callsubr
          hintmask 01011111
          26 -15 155 46 callgsubr
          2 173 24 141 32 179 rlinecurve
          80 hlineto
          7 44 rlineto
          -78 hlineto
          25 143 rlineto
          -250 -304 rmoveto
          38 55 -25 -10 21 hvcurveto
          hintmask 10011111
          18 callgsubr
          hintmask 01011111
          122 67 174 49 vhcurveto
          endchar
        </CharString>
        <CharString name="degree">
          -217 368 51 196 51 hstem
          84 76 143 78 vstem
          381 543 rmoveto
          80 -1 -51 43 -78 hhcurveto
          -100 -67 -74 -103 hvcurveto
          -80 -1 50 -41 78 hhcurveto
          102 67 70 105 1 hvcurveto
          -137 72 rmoveto
          42 18 -31 -44 -1 hvcurveto
          -60 1 -27 -61 -57 hhcurveto
          -42 -17 29 44 -1 hvcurveto
          60 27 63 57 vhcurveto
          endchar
        </CharString>
        <CharString name="dieresis">
          594 119 hstem
          66 107 122 106 vstem
          357 713 rmoveto
          -78 callgsubr
          -229 hmoveto
          -79 callsubr
          endchar
        </CharString>
        <CharString name="dieresis.cap">
          554 119 hstem
          60 52 callgsubr
          vstem
          351 673 -67 callgsubr
        </CharString>
        <CharString name="divide">
          -31 -10 129 -108 -21 223 68 88 37 callsubr
          194 109 -59 109 hintmask 01101100
          57 279 rmoveto
          -9 41 callgsubr
          hintmask 10101100
          -236 -165 rmoveto
          -38 -24 -42 -38 -1 hvcurveto
          -30 1 15 -19 30 hhcurveto
          38 25 41 38 hvcurveto
          32 -1 -13 18 -32 hhcurveto
          hintmask 01101010
          49 379 rmoveto
          -38 -23 -42 -38 -1 hvcurveto
          hintmask 01110010
          -30 15 -19 30 38 25 41 38 1 vhcurveto
          hintmask 01101010
          32 -15 18 -32 vhcurveto
          endchar
        </CharString>
        <CharString name="dollar">
          -71 -92 140 -119 -21 24 -21 101 -21 502 -20 136 52 95 -20 23 -20 hstemhm
          96 94 170 98 hintmask 0011110111000000
          hintmask 0101111011000000
          214 -92 rmoveto
          15 82 rlineto
          124 4 105 69 127 vvcurveto
          91 -69 44 -63 39 vhcurveto
          -26 15 42 228 22 -2 18 -6 24 -10 rlinecurve
          3 -21 4 -19 -1 -9 -8 -47 rcurveline
          51 -6 36 144 -43 12 -49 12 -47 4 rlinecurve
          18 97 rlineto
          hintmask 1000110111000000
          -32 3 -19 -98 rlineto
          -2 hlineto
          -123 -98 -69 -120 -87 68 -47 61 -32 hvcurveto
          26 -14 -46 -244 -36 3 -29 10 -24 10 rlinecurve
          -1 20 -2 27 2 11 9 54 rcurveline
          -59 6 rlineto
          hintmask 0011110111000000
          -37 -150 rlineto
          0 61 -42 106 -6 vhcurveto
          -15 -80 rlineto
          180 259 rmoveto
          hintmask 1000110111000000
          -71 -49 -46 -71 -5 vhcurveto
          41 227 rlineto
          hintmask 0011110111000000
          45 -26 34 -31 -48 vvcurveto
          -170 329 rmoveto
          70 55 40 62 vhcurveto
          3 hlineto
          -40 -212 rlineto
          -44 27 -36 29 46 vvcurveto
          endchar
        </CharString>
        <CharString name="dotaccent">
          591 37 callsubr
          176 117 hintmask 01100000
          244 720 18 callsubr
          hvcurveto
          hintmask 10100000
          -32 callgsubr
          vhcurveto
          hintmask 01100000
          26 callsubr
        </CharString>
        <CharString name="dotaccent.cap">
          551 129 hstem
          170 117 vstem
          238 680 -19 callgsubr
        </CharString>
        <CharString name="dotbelowcomb">
          -200 129 hstem
          60 117 vstem
          129 -71 rmoveto
          -43 -26 -33 -43 -32 17 -21 33 41 26 32 44 33 -18 20 -30 hvcurveto
          endchar
        </CharString>
        <CharString name="dotlessi">
          -276 16 callsubr
          437 -20 hstemhm
          50 201 hintmask 01011000
          213 73 callsubr
          -14 -152 -11 -82 -46 -185 rlinecurve
          hintmask 10111000
          5 callsubr
        </CharString>
        <CharString name="dotlessj">
          -311 -214 -21 738 -20 hstem
          -49 267 vstem
          197 -9 callsubr
          endchar
        </CharString>
        <CharString name="e">
          -11 callgsubr
          hstem
          29 91 183 88 vstem
          -42 callgsubr
          endchar
        </CharString>
        <CharString name="e.sups">
          -312 441 50 219 47 hstem
          65 71 103 67 vstem
          210 757 rmoveto
          -60 -85 -127 -97 -63 32 -29 46 52 57 34 51 35 hvcurveto
          -24 20 rlineto
          -30 -26 -37 -25 -29 hhcurveto
          -21 -14 15 36 10 0 10 2 11 hvcurveto
          104 19 64 49 64 vvcurveto
          34 -33 18 -63 vhcurveto
          -7 -47 rmoveto
          26 10 -7 -15 -34 -37 -35 -58 -12 hvcurveto
          54 12 25 49 22 hhcurveto
          endchar
        </CharString>
        <CharString name="eacute">
          -11 callgsubr
          252 -20 hstem
          29 91 183 88 vstem
          -42 callgsubr
          136 313 -91 callsubr
        </CharString>
        <CharString name="ebreve">
          -11 callgsubr
          84 56 hstem
          29 91 183 88 vstem
          -104 callsubr
          140 224 -95 callsubr
          -199 -285 8 callsubr
        </CharString>
        <CharString name="ecaron">
          -37 callsubr
          -63 262 -77 callgsubr
          -4 -262 8 callsubr
        </CharString>
        <CharString name="ecircumflex">
          -37 callsubr
          66 262 -92 callsubr
          -207 -154 8 callsubr
        </CharString>
        <CharString name="edieresis">
          -11 callgsubr
          91 119 hstemhm
          29 91 5 107 71 88 -37 106 hintmask 11110100
          -42 callgsubr
          hintmask 11101010
          -52 271 rmoveto
          -79 callsubr
          229 hmoveto
          -78 callgsubr
          endchar
        </CharString>
        <CharString name="edotaccent">
          -11 callgsubr
          88 37 callsubr
          29 91 115 117 -49 88 hintmask 11011010
          -42 callgsubr
          hintmask 11011100
          64 278 18 callsubr
          hvcurveto
          hintmask 11101100
          -32 callgsubr
          vhcurveto
          hintmask 11011100
          26 callsubr
        </CharString>
        <CharString name="egrave">
          -11 callgsubr
          252 -20 hstem
          29 91 183 88 vstem
          -42 callgsubr
          164 163 -68 callgsubr
        </CharString>
        <CharString name="eight">
          -71 -10 47 598 47 hstemhm
          24 91 -17 87 180 92 -57 87 hintmask 11101000
          hintmask 11011000
          98 497 rmoveto
          -72 41 -44 50 -34 vhcurveto
          hintmask 11101000
          -71 -38 -94 -70 -98 vvcurveto
          -103 88 -48 103 125 24 callgsubr
          -92 vhcurveto
          hintmask 11011000
          -110 -108 19 callsubr
          81 71 60 51 33 vhcurveto
          7 -3 rlineto
          62 -39 59 -37 -66 vvcurveto
          -79 -69 -58 -74 -64 -43 43 65 vhcurveto
          hintmask 11010100
          285 390 rmoveto
          -76 -60 -57 -41 -30 vhcurveto
          -59 37 -55 33 66 vvcurveto
          69 64 58 60 54 37 -43 -57 vhcurveto
          endchar
        </CharString>
        <CharString name="eight.dnom">
          -247 -6 40 342 40 hstemhm
          -15 66 callsubr
          hintmask 11011000
          31 303 -62 callsubr
        </CharString>
        <CharString name="eight.numr">
          -247 294 40 176 -20 45 -20 161 40 hstemhm
          35 66 callsubr
          hintmask 10110110
          hintmask 11010110
          81 603 rmoveto
          -45 25 -27 30 -21 vhcurveto
          hintmask 11011010
          -46 -24 -55 -41 -58 vvcurveto
          -65 59 -28 67 80 77 37 82 vhcurveto
          hintmask 10110110
          48 -32 29 -36 23 vhcurveto
          hintmask 10110101
          39 23 48 38 54 vvcurveto
          57 -53 31 -60 vhcurveto
          hintmask 11010110
          -72 -71 -40 -73 hvcurveto
          hintmask 10111010
          30 -213 rmoveto
          43 34 32 30 20 vhcurveto
          35 -22 32 -20 -37 vvcurveto
          -43 -32 -29 -43 -35 -21 22 34 vhcurveto
          hintmask 10110101
          153 236 rmoveto
          -39 -27 -32 -24 -20 vhcurveto
          -32 19 -27 19 37 vvcurveto
          38 33 28 31 27 19 -21 -29 vhcurveto
          endchar
        </CharString>
        <CharString name="eight.osf">
          -81 -10 47 598 47 hstemhm
          22 90 -17 88 174 92 -55 87 hintmask 11101000
          hintmask 11011000
          95 497 rmoveto
          -73 41 -44 50 -33 vhcurveto
          hintmask 11101000
          -71 -39 -93 -69 -98 vvcurveto
          -103 85 -48 103 124 115 65 129 80 -54 48 -58 36 vhcurveto
          hintmask 11100100
          61 36 83 65 90 vvcurveto
          92 -79 51 -90 vhcurveto
          hintmask 11011000
          -109 -108 19 callsubr
          80 70 61 51 33 vhcurveto
          6 -3 rlineto
          61 -39 57 -37 -66 vvcurveto
          -79 -67 -58 -73 -63 -42 42 66 vhcurveto
          hintmask 11010100
          282 391 rmoveto
          -77 -59 -57 -41 -30 vhcurveto
          -58 37 -53 33 66 vvcurveto
          69 63 58 59 53 36 -42 -57 vhcurveto
          endchar
        </CharString>
        <CharString name="eight.sinf">
          -106 40 355 41 hstemhm
          -19 76 -29 74 93 76 -54 74 hintmask 11011000
          28 213 rmoveto
          -46 26 -28 31 -22 vhcurveto
          hintmask 11101000
          -47 -25 -57 -43 -60 vvcurveto
          -66 61 -29 68 82 79 38 84 50 -33 31 -37 23 vhcurveto
          hintmask 11010100
          40 24 50 40 55 vvcurveto
          58 -54 33 -62 vhcurveto
          hintmask 11011000
          -74 -73 -42 -75 hvcurveto
          hintmask 11101000
          29 -221 rmoveto
          45 36 35 31 21 vhcurveto
          37 -23 34 -21 -39 vvcurveto
          -45 -34 -31 -45 -37 -22 23 35 vhcurveto
          hintmask 11010100
          160 244 rmoveto
          -41 -29 -33 -25 -21 vhcurveto
          -33 21 -28 19 39 vvcurveto
          40 34 29 33 28 20 -21 -32 vhcurveto
          endchar
        </CharString>
        <CharString name="eight.sups">
          -247 444 40 342 40 hstemhm
          65 66 callsubr
          hintmask 11011000
          111 753 -62 callsubr
        </CharString>
        <CharString name="eight.tf">
          -66 -10 47 598 47 hstemhm
          25 91 -17 87 182 92 -57 87 hintmask 11101000
          hintmask 11011000
          99 497 rmoveto
          -72 42 -44 50 -34 vhcurveto
          hintmask 11101000
          -71 -38 -95 -70 -98 vvcurveto
          -103 89 -48 103 126 24 callgsubr
          -93 vhcurveto
          hintmask 11011000
          -110 -109 19 callsubr
          81 71 60 52 33 vhcurveto
          7 -3 rlineto
          63 -39 59 -37 -66 vvcurveto
          -79 -69 -58 -75 -64 -44 43 65 vhcurveto
          hintmask 11010100
          287 390 rmoveto
          -76 -60 -57 -41 -31 vhcurveto
          -1 0 1 0 hvcurveto
          -59 37 -56 33 66 vvcurveto
          69 65 58 60 55 37 -43 -57 vhcurveto
          endchar
        </CharString>
        <CharString name="eight.tosf">
          -66 -10 47 598 47 hstemhm
          26 90 -17 88 180 92 -55 87 hintmask 11101000
          hintmask 11011000
          99 497 rmoveto
          -73 42 -44 51 -33 vhcurveto
          hintmask 11101000
          -72 -39 -94 -69 -98 vvcurveto
          -103 86 -48 105 126 116 65 129 80 -55 48 -59 36 vhcurveto
          hintmask 11100100
          62 36 84 65 90 vvcurveto
          92 -80 51 -92 vhcurveto
          hintmask 11011000
          -110 -110 19 callsubr
          81 71 60 52 33 vhcurveto
          7 -3 rlineto
          63 -39 58 -37 -66 vvcurveto
          -79 -69 -58 -74 -65 -43 42 66 vhcurveto
          hintmask 11010100
          288 391 rmoveto
          -77 -60 -57 -42 -31 vhcurveto
          1 vlineto
          -60 37 -55 33 66 vvcurveto
          69 65 58 60 55 37 -42 -57 vhcurveto
          endchar
        </CharString>
        <CharString name="ellipsis">
          -36 -10 139 hstem
          30 117 59 117 64 -6 callgsubr
          181 hmoveto
          -41 -25 -45 -40 -33 17 -21 33 41 26 44 40 35 -16 20 -35 hvcurveto
          endchar
        </CharString>
        <CharString name="emacron">
          -11 callgsubr
          103 53 hstem
          29 91 183 88 vstem
          -42 callgsubr
          201 164 -41 callsubr
        </CharString>
        <CharString name="emdash">
          430 218 71 hstem
          12 1014 vstem
          12 218 rmoveto
          998 hlineto
          16 71 rlineto
          -1006 hlineto
          endchar
        </CharString>
        <CharString name="endash">
          -72 218 71 hstem
          12 512 vstem
          12 218 rmoveto
          496 hlineto
          16 71 rlineto
          -504 hlineto
          endchar
        </CharString>
        <CharString name="eng">
          -23 -214 -21 241 -21 36 -21 420 41 -34 77 -20 20 hstemhm
          400 94 hintmask 10101010
          337 14 rmoveto
          -10 -40 -54 -114 -40 -68 31 -27 rcurveline
          47 58 99 121 8 41 rrcurveto
          22 117 54 251 69 vvcurveto
          47 -21 35 -51 -97 -80 -102 -88 -45 vhcurveto
          hintmask 10100110
          15 callsubr
          hintmask 10101010
          -23 20 rlineto
          hintmask 10110010
          -52 callgsubr
          hintmask 11001010
          -53 callsubr
          hintmask 10101010
          -88 -33 -144 -30 -129 vhcurveto
          endchar
        </CharString>
        <CharString name="eogonek">
          -174 -197 42 144 63 390 61 hstemhm
          29 91 -40 64 159 88 hintmask 11110100
          244 503 rmoveto
          -89 -126 -210 -154 hvcurveto
          -99 -1 42 -51 75 hhcurveto
          4 hlineto
          hintmask 11101100
          -52 -43 -17 -23 -45 -16 callsubr
          -19 hhcurveto
          -27 -19 11 28 26 5 37 62 52 hvcurveto
          60 19 54 44 42 67 -33 25 rcurveline
          hintmask 11110100
          -65 -48 -56 -37 -50 hhcurveto
          -39 -21 33 64 19 1 20 3 21 hvcurveto
          167 33 100 79 102 vvcurveto
          53 -51 27 -96 vhcurveto
          -5 -61 8 callsubr
        </CharString>
        <CharString name="equal">
          -36 119 68 122 68 hstem
          27 474 vstem
          490 312 rmoveto
          11 66 rlineto
          -435 hlineto
          -11 -71 rlineto
          -18 -122 rmoveto
          -10 41 callgsubr
          endchar
        </CharString>
        <CharString name="estimated">
          221 -12 20 303 18 302 20 hstem
          40 135 468 134 vstem
          180 311 rmoveto
          597 8 hlineto
          184 -165 148 -203 -203 -166 -148 -184 -183 166 -148 203 118 107 51 78 67 vhcurveto
          -54 hlineto
          -67 -57 -85 -42 -95 hhcurveto
          -89 -81 37 60 -56 hvcurveto
          -5 6 -4 7 8 vvcurveto
          181 vlineto
          3 2 1 3 vhcurveto
          463 205 rmoveto
          -182 vlineto
          -3 -2 -2 -3 vhcurveto
          -458 hlineto
          -3 -2 2 3 hvcurveto
          178 vlineto
          9 4 8 6 6 vhcurveto
          59 57 79 37 89 hhcurveto
          87 79 -36 -57 57 hvcurveto
          6 -6 4 -7 -9 vvcurveto
          endchar
        </CharString>
        <CharString name="eth">
          -97 -10 47 419 47 262 -20 hstem
          33 89 238 74 vstem
          485 734 rmoveto
          -127 -62 -19 32 -23 31 -25 30 rlinecurve
          -46 -20 21 -29 22 -31 19 -37 rlinecurve
          -130 -63 17 -35 129 62 14 -35 11 -40 6 -48 rlinecurve
          10 -21 -27 4 -23 hhcurveto
          -150 -101 -188 -150 1 hvcurveto
          -106 -1 43 -69 107 hhcurveto
          170 82 226 170 94 -20 83 -37 74 hvcurveto
          124 60 rlineto
          -141 -303 rmoveto
          -127 -47 -230 -127 -58 -6 77 57 114 45 171 114 15 33 -4 -17 30 vhcurveto
          -13 1 -14 -14 vvcurveto
          endchar
        </CharString>
        <CharString name="etilde">
          -11 callgsubr
          101 38 callsubr
          29 91 183 88 hintmask 11011100
          -104 callsubr
          hintmask 11101100
          182 220 17 callgsubr
          hintmask 11011100
          -76 callgsubr
          hintmask 11101100
          39 65 -41 39 hhcurveto
          39 56 98 0 hvcurveto
          -219 -260 8 callsubr
        </CharString>
        <CharString name="exclam">
          -348 -10 129 -108 -21 723 -20 hstemhm
          24 108 hintmask 01110000
          130 215 rmoveto
          11 10 20 190 29 108 50 190 rlinecurve
          -22 15 -81 -15 -23 -200 -9 -86 -40 -200 rlinecurve
          hintmask 10110000
          21 -108 rmoveto
          -13 callsubr
          endchar
        </CharString>
        <CharString name="exclamdown">
          -348 -214 -21 609 37 callsubr
          76 108 hintmask 10110000
          78 278 rmoveto
          -11 -10 -20 -190 -28 -108 -50 -190 rlinecurve
          22 -15 81 15 23 200 8 86 40 200 rlinecurve
          -5 237 rmoveto
          -38 -24 -42 -38 hvcurveto
          hintmask 11010000
          -30 15 -19 30 38 25 41 38 vhcurveto
          hintmask 10110000
          32 -14 18 -32 vhcurveto
          endchar
        </CharString>
        <CharString name="f">
          -289 -235 67 590 56 226 66 -3 -20 hstemhm
          -170 627 hintmask 11101000
          216 478 rmoveto
          67 callgsubr
          rrcurveto
          18 13 65 21 44 hhcurveto
          21 23 -7 0 hvcurveto
          hintmask 11011000
          26 70 rlineto
          hintmask 11101000
          0 -18 3 -17 -139 -120 -93 -34 callsubr
          116 hlineto
          14 56 rlineto
          -121 hlineto
          endchar
        </CharString>
        <CharString name="f.f">
          -77 callsubr
        </CharString>
        <CharString name="f.l">
          -278 -235 67 590 56 226 66 hstem
          -170 693 vstem
          216 478 rmoveto
          67 callgsubr
          rrcurveto
          18 13 65 21 44 hhcurveto
          21 77 -18 0 hvcurveto
          38 84 rlineto
          -101 hlineto
          42 callgsubr
          hvcurveto
          -99 callsubr
          116 hlineto
          14 56 rlineto
          endchar
        </CharString>
        <CharString name="f.sups">
          -377 307 54 344 42 119 54 hstem
          -54 407 vstem
          205 747 rmoveto
          9 53 10 34 8 12 rrcurveto
          10 7 35 10 27 hhcurveto
          13 18 -4 0 hvcurveto
          21 55 rlineto
          0 -15 3 -13 -91 -75 -55 -82 -17 vhcurveto
          -2 -10 -3 -11 -7 -5 -11 -7 -29 -7 -11 -4 -3 -34 rcurveline
          54 hlineto
          -12 -112 -23 -186 -26 -27 rrcurveto
          -9 -9 -30 -10 -29 hhcurveto
          -12 -14 2 1 -6 hvcurveto
          -23 -56 rlineto
          -1 6 9 0 12 hhcurveto
          73 77 33 83 29 hvcurveto
          18 53 6 105 21 124 rrcurveto
          68 hlineto
          10 42 rlineto
          -70 hlineto
          endchar
        </CharString>
        <CharString name="f.t">
          -77 callsubr
        </CharString>
        <CharString name="fi">
          15 64 callsubr
          26 -20 220 66 hstemhm
          -170 719 -111 111 hintmask 10110110
          hintmask 10101110
          504 504 rmoveto
          hintmask 10110110
          -100 -26 rlineto
          -188 hlineto
          67 callgsubr
          rrcurveto
          hintmask 10110101
          18 13 65 21 44 hhcurveto
          20 28 -5 -4 19 hvcurveto
          -10 -16 -6 -20 -18 vvcurveto
          -31 15 -19 31 39 26 41 39 18 -5 14 -10 9 vhcurveto
          28 -21 -43 30 -48 -40 callgsubr
          133 hlineto
          82 -4 -14 -149 -11 -86 -46 -183 rlinecurve
          hintmask 11001110
          40 callgsubr
          endchar
        </CharString>
        <CharString name="five">
          -127 -84 51 callsubr
          hstem
          311 96 vstem
          212 652 rmoveto
          -67 hlineto
          -21 -18 -65 -329 34 -21 rlineto
          10 42 29 3 23 hhcurveto
          81 43 -39 -70 -146 -142 -63 20 callgsubr
          175 104 182 vvcurveto
          104 -73 55 -118 -26 -28 -4 -5 -26 vhcurveto
          43 217 rlineto
          63 hlineto
          29 174 23 0 hvcurveto
          4 67 rlineto
          endchar
        </CharString>
        <CharString name="five.dnom">
          -282 175 54 102 67 hstem
          154 81 vstem
          111 398 rmoveto
          -61 callsubr
          10 callgsubr
        </CharString>
        <CharString name="five.numr">
          -282 475 54 102 73 -17 11 hstemhm
          204 81 hintmask 11010000
          161 698 rmoveto
          hintmask 10110000
          -61 callsubr
          hintmask 11010000
          10 callgsubr
        </CharString>
        <CharString name="five.osf">
          -81 -208 51 callsubr
          10 -20 hstemhm
          326 96 hintmask 11101000
          205 528 10 callsubr
          78 61 -31 -78 -155 -161 -54 20 callgsubr
          194 95 191 vvcurveto
          108 -90 51 -108 21 callgsubr
          192 74 callgsubr
        </CharString>
        <CharString name="five.sinf">
          -263 81 55 108 67 hstem
          156 82 vstem
          110 311 rmoveto
          -49 hlineto
          -14 -12 rlineto
          0 -34 -160 -9 -42 vhcurveto
          23 -24 rlineto
          7 26 18 1 14 hhcurveto
          48 23 -23 -40 -80 -61 -42 -126 -24 hvcurveto
          6 -38 rlineto
          161 21 102 67 111 vvcurveto
          65 -45 38 -78 -14 -16 -1 -3 -15 vhcurveto
          11 53 12 59 0 vvcurveto
          50 hlineto
          19 95 11 0 hvcurveto
          5 62 rlineto
          endchar
        </CharString>
        <CharString name="five.sups">
          -282 625 54 102 67 hstem
          234 81 vstem
          191 848 rmoveto
          -61 callsubr
          10 callgsubr
        </CharString>
        <CharString name="five.tf">
          -66 -84 51 callsubr
          hstem
          354 96 vstem
          230 652 10 callsubr
          80 62 -29 -80 -146 -142 -63 20 callgsubr
          175 104 182 vvcurveto
          110 -91 49 -110 21 callgsubr
          198 23 0 hvcurveto
          4 67 rlineto
          endchar
        </CharString>
        <CharString name="five.tosf">
          -66 -208 51 callsubr
          10 -20 hstemhm
          336 96 hintmask 11101000
          212 528 10 callsubr
          80 62 -29 -80 -158 -168 -51 20 callgsubr
          201 92 194 vvcurveto
          110 -91 49 -110 21 callgsubr
          195 74 callgsubr
        </CharString>
        <CharString name="fj">
          -5 -235 67 590 56 26 -20 220 66 hstemhm
          -170 717 -111 111 hintmask 11011000
          hintmask 10111000
          502 504 rmoveto
          hintmask 11011000
          -100 -26 rlineto
          -186 hlineto
          67 callgsubr
          rrcurveto
          hintmask 11010100
          18 13 65 21 44 hhcurveto
          19 27 -5 -4 20 hvcurveto
          -11 -15 -6 -20 -19 vvcurveto
          -31 15 -19 31 39 26 41 39 13 -3 11 -5 8 vhcurveto
          1 hlineto
          31 -18 -47 36 -53 -40 callgsubr
          131 hlineto
          12 callsubr
          rrcurveto
          hintmask 10110100
          72 callsubr
          endchar
        </CharString>
        <CharString name="fl">
          6 64 callsubr
          225 67 -20 20 hstemhm
          -170 723 hintmask 10110110
          216 478 rmoveto
          hintmask 10111010
          67 callgsubr
          11 15 50 18 42 5 82 -12 rcurveline
          -14 -178 -46 -338 -47 -175 rrcurveto
          hintmask 11010110
          26 -15 162 46 callgsubr
          28 227 31 178 49 275 rlinecurve
          -23 20 rlineto
          -108 hlineto
          42 callgsubr
          hvcurveto
          -99 callsubr
          116 hlineto
          14 56 rlineto
          endchar
        </CharString>
        <CharString name="florin">
          -209 -194 53 581 54 223 53 -8 -20 hstemhm
          -60 537 hintmask 11101000
          394 715 rmoveto
          0 3 -41 -15 vvcurveto
          -5 -6 -39 0 vhcurveto
          54 -6 rlineto
          hintmask 11011000
          32 137 -10 16 rlineto
          hintmask 11101000
          0 -52 8 -38 -115 -72 -68 -105 -19 vhcurveto
          -15 -86 -25 -14 -25 -4 -35 -11 rlinecurve
          -4 -42 rlineto
          77 hlineto
          -76 -430 rlineto
          -90 -15 -16 -61 -88 hhcurveto
          -9 -53 rlineto
          113 72 68 105 19 hvcurveto
          81 461 rlineto
          135 hlineto
          14 54 rlineto
          -140 hlineto
          13 72 rlineto
          90 15 16 61 90 hhcurveto
          7 12 -1 -1 7 hvcurveto
          endchar
        </CharString>
        <CharString name="foundryicon">
          148 61 152 52 157 135 87 hstem
          88 91 74 67 74 65 142 70 vstem
          591 61 rmoveto
          52 28 28 52 hvcurveto
          423 vlineto
          52 -28 28 -52 vhcurveto
          -423 hlineto
          -52 -28 -28 -52 hvcurveto
          -423 vlineto
          -52 28 -28 52 vhcurveto
          148 403 rmoveto
          45 33 -31 -42 hvcurveto
          -178 -74 136 vlineto
          38 -14 18 -29 -18 -6 -3 -9 vhcurveto
          -180 -74 344 74 -116 vlineto
          -6 2 -3 4 3 3 2 2 3 vhcurveto
          155 -14 rmoveto
          18 vlineto
          89 56 rlineto
          21 -28 hlineto
          -6 4 -4 6 vhcurveto
          58 -36 -58 hlineto
          -7 -3 -4 -6 hvcurveto
          -90 vlineto
          -40 12 -17 29 8 9 1 3 9 vhcurveto
          -25 vlineto
          -63 -37 rlineto
          -45 -33 31 42 hvcurveto
          132 vlineto
          7 -3 3 -7 vhcurveto
          endchar
        </CharString>
        <CharString name="four">
          -61 62 callsubr
          206 54 hstemhm
          6 480 -327 197 hintmask 01011000
          426 739 rmoveto
          -420 -485 36 -53 rlineto
          250 52 callsubr
          -102 -54 callgsubr
          113 -4 callsubr
          -192 -3 222 280 17 22 133 126 6 6 rlinecurve
          endchar
        </CharString>
        <CharString name="four.dnom">
          -236 49 callsubr
          hstemhm
          -19 56 callgsubr
          hintmask 01011000
          238 451 21 callsubr
          hintmask 10010010
          137 hlineto
          -4 -24 rlineto
          hintmask 10010100
          15 callgsubr
          hintmask 00110100
          22 callgsubr
          hintmask 01010010
          36 callsubr
          rlineto
          hintmask 00110010
          -43 4 rlineto
          hintmask 01010010
          -79 callgsubr
        </CharString>
        <CharString name="four.numr">
          -236 300 41 75 46 71 -20 hstemhm
          31 56 callgsubr
          hintmask 11110000
          288 751 -48 callgsubr
        </CharString>
        <CharString name="four.osf">
          -81 -45 callsubr
        </CharString>
        <CharString name="four.sinf">
          -217 -100 41 -23 -21 123 46 hstemhm
          -25 314 -220 145 -66 71 hintmask 10110000
          241 366 rmoveto
          -266 -299 32 -47 rlineto
          hintmask 10100100
          143 hlineto
          -4 -26 rlineto
          hintmask 10101000
          -1 -11 -11 -35 -1 -5 -63 -8 rcurveline
          hintmask 01101000
          -2 -38 rlineto
          0 57 3 22 vhcurveto
          hintmask 10100100
          60 42 -3 0 hvcurveto
          10 42 rlineto
          hintmask 01100100
          -45 4 rlineto
          hintmask 10100100
          5 0 28 4 27 vhcurveto
          2 17 rlineto
          58 hlineto
          8 55 -58 -3 14 94 -74 -24 -11 -75 -103 -1 142 169 rlineto
          12 15 81 73 -13 callgsubr
        </CharString>
        <CharString name="four.sups">
          -236 450 43 73 46 95 -20 hstemhm
          61 56 callgsubr
          hintmask 11110000
          318 901 -48 callgsubr
        </CharString>
        <CharString name="four.tf">
          -66 62 callsubr
          206 54 hstemhm
          5 478 -326 196 hintmask 01011000
          423 739 rmoveto
          -418 -485 36 -53 rlineto
          248 52 callsubr
          -101 -54 callgsubr
          112 -4 callsubr
          -190 -3 221 280 17 22 132 126 6 6 rlinecurve
          endchar
        </CharString>
        <CharString name="four.tosf">
          -66 -45 callsubr
        </CharString>
        <CharString name="fraction">
          -518 721 -20 hstem
          -265 572 vstem
          263 721 50 callsubr
          528 738 rlineto
          endchar
        </CharString>
        <CharString name="g">
          -70 -26 callsubr
          66 391 58 hstemhm
          39 90 hintmask 10111000
          -97 callsubr
          hintmask 01111000
          -31 -78 rlineto
          hintmask 10111000
          -96 callgsubr
          endchar
        </CharString>
        <CharString name="g.sups">
          -251 307 55 79 61 206 51 hstem
          72 72 vstem
          336 759 rmoveto
          -44 -10 rlineto
          2 -18 -40 8 -22 hhcurveto
          -66 -74 -126 -100 -52 18 -40 37 52 50 54 74 35 hvcurveto
          -6 -48 -17 -64 -12 vvcurveto
          -1 -19 -4 -37 -9 -8 43 callsubr
          14 37 -7 37 hhcurveto
          70 95 31 121 16 hvcurveto
          12 98 12 98 25 91 rrcurveto
          -153 -38 rmoveto
          23 30 -12 -6 14 hvcurveto
          -90 -13 -60 -98 -32 hhcurveto
          -15 -6 19 28 72 33 87 26 hvcurveto
          endchar
        </CharString>
        <CharString name="gbreve">
          -70 -26 callsubr
          66 391 58 83 56 hstemhm
          39 90 hintmask 10111100
          -97 callsubr
          hintmask 01111100
          -31 -78 rlineto
          hintmask 10111100
          -96 callgsubr
          160 281 -95 callsubr
          endchar
        </CharString>
        <CharString name="gcircumflex">
          -70 -26 callsubr
          66 391 58 261 -20 hstemhm
          39 90 hintmask 10111100
          -97 callsubr
          hintmask 01111100
          -31 -78 rlineto
          hintmask 10111100
          -96 callgsubr
          86 319 -92 callsubr
          endchar
        </CharString>
        <CharString name="gcommaaccent">
          -70 -26 callsubr
          66 391 58 252 -20 hstemhm
          39 90 135 99 hintmask 10111110
          -97 callsubr
          hintmask 01111110
          -31 -78 rlineto
          hintmask 10111110
          -96 callgsubr
          117 175 rmoveto
          28 -17 12 -8 4 vhcurveto
          3 26 23 53 0 vvcurveto
          -34 12 rlineto
          0 -66 -90 -60 vvcurveto
          -32 14 -19 27 26 32 23 43 vhcurveto
          endchar
        </CharString>
        <CharString name="gdieresis">
          -70 -26 callsubr
          66 391 58 90 119 hstemhm
          39 90 18 107 122 106 hintmask 10111100
          -97 callsubr
          hintmask 01111100
          -31 -78 rlineto
          hintmask 10111101
          -96 callgsubr
          192 267 rmoveto
          -78 callgsubr
          hintmask 10111110
          -229 hmoveto
          -79 callsubr
          endchar
        </CharString>
        <CharString name="gdotaccent">
          -70 -26 callsubr
          66 391 58 87 37 callsubr
          39 90 128 117 hintmask 10110110
          -97 callsubr
          hintmask 01110110
          -31 -78 rlineto
          hintmask 10110111
          -96 callgsubr
          79 274 18 callsubr
          hvcurveto
          hintmask 10111011
          -32 callgsubr
          vhcurveto
          hintmask 10110111
          26 callsubr
        </CharString>
        <CharString name="germandbls">
          -71 -235 63 162 50 667 63 hstemhm
          250 73 68 79 -42 78 hintmask 11110100
          383 770 rmoveto
          -74 -165 -36 -241 -31 hvcurveto
          -16 -126 -21 -226 -32 -149 -12 -54 -13 -44 -16 -26 rrcurveto
          -17 -10 -66 -23 -47 hhcurveto
          -22 -27 5 0 hvcurveto
          -25 -67 rlineto
          0 10 -1 18 172 92 110 113 18 vhcurveto
          27 174 27 212 18 120 13 86 25 66 15 22 rrcurveto
          17 12 55 22 39 hhcurveto
          49 32 -21 -55 hvcurveto
          -118 -178 -20 -136 vvcurveto
          hintmask 11111000
          -124 141 -32 -80 vvcurveto
          -54 -33 -27 -48 -44 -32 35 43 -26 vhcurveto
          -39 -64 rlineto
          -25 17 47 -39 74 hhcurveto
          83 80 67 100 hvcurveto
          114 -147 36 76 vvcurveto
          hintmask 11110100
          92 183 41 136 vvcurveto
          79 -49 39 -74 vhcurveto
          endchar
        </CharString>
        <CharString name="grave">
          755 -20 hstem
          124 220 vstem
          344 605 -68 callgsubr
        </CharString>
        <CharString name="grave.cap">
          539 148 hstem
          100 252 vstem
          100 614 rmoveto
          -36 callgsubr
        </CharString>
        <CharString name="greater">
          -16 6 -21 hstem
          87 385 vstem
          207 513 rmoveto
          -60 -53 223 -212 -283 -210 45 -53 340 262 rlineto
          endchar
        </CharString>
        <CharString name="greaterequal">
          -16 0 68 441 -20 hstem
          70 445 vstem
          78 66 rmoveto
          -8 41 callgsubr
          -5 264 rmoveto
          -278 235 -54 -61 213 -174 -260 -174 37 -61 rlineto
          endchar
        </CharString>
        <CharString name="gtilde">
          -70 -26 callsubr
          66 391 58 100 38 callsubr
          39 90 hintmask 10110110
          -97 callsubr
          hintmask 01110110
          -31 -78 rlineto
          hintmask 10111010
          -96 callgsubr
          202 277 17 callgsubr
          hintmask 10110110
          -76 callgsubr
          hintmask 10111010
          39 65 -68 callsubr
        </CharString>
        <CharString name="guillemotleft">
          -162 20 444 hstem
          33 375 vstem
          33 35 callgsubr
          -20 -222 rmoveto
          118 -218 40 25 -77 193 131 193 -32 25 rlineto
          endchar
        </CharString>
        <CharString name="guillemotright">
          -160 19 444 hstem
          32 377 vstem
          409 34 callgsubr
          23 222 rmoveto
          -121 218 -39 -25 76 -194 -130 -192 32 -25 rlineto
          endchar
        </CharString>
        <CharString name="guilsinglleft">
          -319 20 444 hstem
          38 217 vstem
          38 35 callgsubr
          endchar
        </CharString>
        <CharString name="guilsinglright">
          -319 19 444 hstem
          36 219 vstem
          255 34 callgsubr
          endchar
        </CharString>
        <CharString name="h">
          -25 6 63 callsubr
          38 360 77 266 -20 hstemhm
          378 94 hintmask 01011100
          225 -56 callgsubr
          endchar
        </CharString>
        <CharString name="h.sups">
          -217 466 31 callgsubr
          219 63 hstemhm
          290 75 hintmask 00111000
          12 callgsubr
          -6 -85 -26 -211 -34 -120 rlinecurve
          19 -10 58 10 1 13 2 13 2 14 rlinecurve
          101 20 64 105 36 hhcurveto
          15 2 -16 -14 hvcurveto
          hintmask 10011000
          -44 -24 -96 -20 -76 vhcurveto
          18 -10 116 26 71 callsubr
          rlineto
          6 77 27 81 54 vvcurveto
          29 -16 21 -32 -68 -50 -71 -61 -30 vhcurveto
          13 80 18 92 20 106 rrcurveto
          endchar
        </CharString>
        <CharString name="hbar">
          -25 6 63 callsubr
          38 360 77 59 44 163 -20 hstemhm
          378 94 hintmask 01011110
          27 callsubr
          -8 -84 rlineto
          -78 hlineto
          -7 -44 rlineto
          80 hlineto
          -20 -183 -37 -241 -37 -139 rrcurveto
          hintmask 10011110
          26 -15 rlineto
          hintmask 01011110
          68 15 5 41 4 38 6 37 rlinecurve
          194 49 103 117 46 hhcurveto
          27 68 callgsubr
          -30 -129 hvcurveto
          hintmask 10111110
          25 -73 callsubr
          47 -21 35 -51 -98 -83 -104 -88 -46 vhcurveto
          12 82 14 81 15 88 rrcurveto
          113 hlineto
          7 44 rlineto
          -112 hlineto
          26 143 rlineto
          endchar
        </CharString>
        <CharString name="hcircumflex">
          -25 6 63 callsubr
          38 360 77 266 -20 hstemhm
          379 94 hintmask 01011100
          226 -56 callgsubr
          -38 174 -89 callsubr
        </CharString>
        <CharString name="hungarumlaut">
          765 -20 hstem
          42 428 vstem
          423 765 -42 callsubr
        </CharString>
        <CharString name="hungarumlaut.cap">
          523 179 hstem
          31 452 vstem
          235 702 -41 callgsubr
        </CharString>
        <CharString name="hyphen">
          -294 218 71 hstem
          31 231 vstem
          31 218 rmoveto
          215 hlineto
          16 71 rlineto
          -222 hlineto
          endchar
        </CharString>
        <CharString name="i">
          -275 -35 callsubr
          504 -20 107 131 hstemhm
          148 111 hintmask 01111000
          28 callgsubr
          -14 -149 -11 -86 -46 -183 rlinecurve
          hintmask 10111000
          40 callgsubr
          -3 callsubr
        </CharString>
        <CharString name="i.sups">
          -380 466 31 callgsubr
          282 -20 70 89 hstemhm
          144 81 hintmask 00111100
          191 759 rmoveto
          -111 -26 1 -28 46 -2 rlineto
          hintmask 10011100
          -6 -82 -10 -65 -28 -106 62 callgsubr
          rlineto
          hintmask 01011100
          2 28 rlineto
          hintmask 00111100
          -51 3 11 91 18 97 15 60 rlinecurve
          -21 153 rmoveto
          -26 -19 64 callgsubr
          -12 12 -24 hvcurveto
          endchar
        </CharString>
        <CharString name="iacute">
          -21 callsubr
          272 -20 hstemhm
          48 283 hintmask 01011100
          211 503 -81 callgsubr
          54 271 -91 callsubr
        </CharString>
        <CharString name="ibreve">
          -21 callsubr
          104 56 hstemhm
          48 301 hintmask 01011100
          211 503 -81 callgsubr
          63 243 -95 callsubr
          endchar
        </CharString>
        <CharString name="icircumflex">
          -21 callsubr
          282 -20 hstemhm
          35 322 hintmask 01011100
          211 503 -81 callgsubr
          -11 281 -92 callsubr
          endchar
        </CharString>
        <CharString name="idieresis">
          -21 callsubr
          111 119 hstemhm
          84 107 64 106 hintmask 01011110
          317 713 rmoveto
          -78 callgsubr
          -171 hmoveto
          -79 callsubr
          65 -210 rmoveto
          -163 -43 1 -37 83 -4 -14 -152 -11 -82 -46 -185 rlinecurve
          hintmask 10111110
          5 callsubr
        </CharString>
        <CharString name="idotaccent">
          -275 -35 callsubr
          504 -20 107 37 callsubr
          143 117 hintmask 01101100
          28 callgsubr
          -14 -149 -11 -86 -46 -183 rlinecurve
          hintmask 10101100
          40 callgsubr
          -26 236 18 callsubr
          hvcurveto
          hintmask 01110100
          -32 callgsubr
          vhcurveto
          hintmask 10101100
          26 callsubr
        </CharString>
        <CharString name="igrave">
          -21 callsubr
          272 -20 hstemhm
          48 246 hintmask 01011100
          211 503 -81 callgsubr
          62 121 -68 callgsubr
        </CharString>
        <CharString name="ij">
          -43 -214 -21 225 74 357 39 43 -20 108 129 hstemhm
          74 83 -10 108 147 108 hintmask 11111101
          hintmask 11111011
          209 720 rmoveto
          -13 callsubr
          255 hmoveto
          -13 callsubr
          -1 -217 rmoveto
          -155 -42 6 -38 81 -4 -18 -67 rlineto
          hintmask 11111101
          -194 -55 -86 -94 -44 hhcurveto
          -28 -7 24 28 71 30 140 40 157 hvcurveto
          -21 19 -163 -43 rlineto
          -37 vlineto
          84 -4 rlineto
          -11 -145 -42 -117 -88 vvcurveto
          -46 20 -33 46 80 78 79 111 58 vhcurveto
          -7 -58 -8 -64 -7 -45 -6 -42 -70 -113 -40 -67 29 -26 rcurveline
          47 58 97 121 7 41 38 226 20 172 31 105 rrcurveto
          endchar
        </CharString>
        <CharString name="imacron">
          -21 callsubr
          123 53 hstemhm
          43 311 hintmask 01011100
          341 606 rmoveto
          13 53 rlineto
          -251 hlineto
          -8 -53 rlineto
          111 -103 -81 callgsubr
          endchar
        </CharString>
        <CharString name="infinity">
          174 137 87 222 87 -86 87 hstemhm
          62 48 579 48 hintmask 10111000
          198 138 rmoveto
          96 51 58 69 47 hvcurveto
          -54 22 45 -74 85 hhcurveto
          119 74 123 113 hvcurveto
          hintmask 11011000
          88 -47 72 -89 -96 -51 -58 -69 -47 vhcurveto
          hintmask 10111000
          54 -22 -45 74 -85 hhcurveto
          -119 -74 -123 -113 -88 47 -72 89 hvcurveto
          45 309 rmoveto
          74 41 -53 -34 18 hvcurveto
          -73 -48 -45 -62 -75 hhcurveto
          -56 -42 38 56 70 63 58 70 hvcurveto
          313 -223 rmoveto
          -75 -40 52 35 -19 hvcurveto
          hintmask 11011000
          72 49 44 63 76 hhcurveto
          56 42 -38 -56 hvcurveto
          hintmask 10111000
          -70 -63 -58 -70 vhcurveto
          endchar
        </CharString>
        <CharString name="integral">
          -96 -235 55 840 55 -9 -20 hstemhm
          27 435 hintmask 11010000
          301 544 rmoveto
          63 9 25 53 69 hhcurveto
          17 12 -3 -4 11 hvcurveto
          hintmask 10110000
          18 53 rlineto
          hintmask 11010000
          6 -15 -17 3 -19 hhcurveto
          -103 -64 -70 -101 -14 hvcurveto
          -24 -170 1 -298 -19 -140 rrcurveto
          -63 -9 -25 -53 -69 hhcurveto
          -17 -12 3 4 -11 hvcurveto
          -18 -53 rlineto
          -6 15 17 -3 19 hhcurveto
          103 64 70 101 14 hvcurveto
          24 170 -1 298 19 140 rrcurveto
          endchar
        </CharString>
        <CharString name="iogonek">
          -275 -197 42 659 -20 107 131 hstem
          -39 63 124 111 vstem
          28 callgsubr
          -13 -135 -10 -84 -36 -151 rlinecurve
          -6 -13 -7 -10 -9 -9 rrcurveto
          -66 -69 -24 -16 -53 vvcurveto
          -50 34 -25 49 34 31 14 8 17 vhcurveto
          -9 33 rlineto
          -9 -20 -17 -4 -13 hhcurveto
          -29 -14 20 24 42 22 45 86 21 hvcurveto
          1 vlineto
          118 31 3 36 -89 5 22 163 25 156 26 95 rlinecurve
          -3 callsubr
        </CharString>
        <CharString name="itilde">
          -21 callsubr
          121 38 callsubr
          39 290 hintmask 01010110
          hintmask 01011010
          297 723 71 callgsubr
          -26 vhcurveto
          hintmask 01010110
          -34 -39 41 -33 hhcurveto
          -38 -56 -101 0 hvcurveto
          38 callgsubr
          54 26 vhcurveto
          hintmask 01011010
          34 37 -41 35 hhcurveto
          38 55 98 0 hvcurveto
          -114 -199 rmoveto
          -163 -43 1 -37 83 -4 -14 -152 -11 -82 -46 -185 rlinecurve
          hintmask 10110110
          5 callsubr
        </CharString>
        <CharString name="j">
          -308 -214 -21 739 -20 107 131 hstem
          133 111 vstem
          199 504 rmoveto
          -165 -43 1 -39 12 callsubr
          72 callsubr
          -3 callsubr
        </CharString>
        <CharString name="j.sups">
          -392 759 -20 70 89 hstem
          139 81 vstem
          186 759 rmoveto
          -111 -26 1 -28 46 -2 -6 -82 -16 -92 -17 -70 rlinecurve
          -4 -16 -32 -71 -27 -47 24 -18 rcurveline
          33 35 72 74 3 25 20 139 10 75 23 90 rrcurveto
          -20 153 rmoveto
          -26 -20 64 callgsubr
          -11 12 -24 hvcurveto
          endchar
        </CharString>
        <CharString name="jcircumflex">
          -313 -214 -21 738 -20 282 -20 hstem
          -50 396 vstem
          196 -9 callsubr
          -7 281 -92 callsubr
          endchar
        </CharString>
        <CharString name="k">
          -82 -35 callsubr
          427 77 266 -20 hstemhm
          387 79 hintmask 01111000
          25 callsubr
          hintmask 10111000
          26 -15 rlineto
          hintmask 01111000
          -45 callgsubr
          endchar
        </CharString>
        <CharString name="k.sups">
          -247 466 31 callgsubr
          226 56 hstemhm
          296 68 hintmask 00111000
          12 callgsubr
          -10 -130 -31 -197 -25 -89 rlinecurve
          20 -10 57 10 2 19 2 18 3 17 rlinecurve
          103 21 59 96 45 hhcurveto
          11 6 -7 -11 -1 hvcurveto
          1 -39 -40 -36 -68 -21 rrcurveto
          hintmask 10011000
          -27 vlineto
          76 -123 98 27 71 callsubr
          -21 22 -24 33 -18 29 rlinecurve
          72 29 40 45 54 vvcurveto
          34 -16 16 -32 -50 -58 -46 -69 -36 vhcurveto
          11 71 15 75 22 115 rrcurveto
          endchar
        </CharString>
        <CharString name="kcommaaccent">
          -82 -35 callsubr
          427 77 266 -20 hstemhm
          225 99 63 79 hintmask 01111100
          25 callsubr
          hintmask 10111100
          26 -15 rlineto
          hintmask 01111100
          -45 callgsubr
          -23 -874 -93 callgsubr
        </CharString>
        <CharString name="kgreenlandic">
          -7 -5 62 -57 57 380 57 -18 18 4 -20 21 -20 hstemhm
          3 571 -570 172 hintmask 01100010
          395 437 rmoveto
          -185 -172 115 -150 42 -56 -57 -11 -3 -50 99 2 rlineto
          78 46 -5 0 hvcurveto
          hintmask 10100010
          16 59 -60 6 -29 25 -40 32 -8 12 rlinecurve
          -111 150 91 87 20 19 52 30 34 18 rlinecurve
          73 8 6 58 rlineto
          hintmask 01000110
          0 -46 -5 -78 -19 -64 3 0 vhcurveto
          hintmask 01100010
          -13 -52 rlineto
          -103 -391 rmoveto
          -74 7 rlineto
          hintmask 01010001
          0 1 56 7 50 vhcurveto
          23 156 rlineto
          7 50 22 103 0 vvcurveto
          -16 18 rlineto
          -56 hlineto
          hintmask 01100010
          -19 -69 4 0 hvcurveto
          -13 -53 72 -16 rlineto
          hintmask 10001001
          0 0 -56 -3 -20 vhcurveto
          -31 -216 rlineto
          -3 -20 -17 -56 0 vvcurveto
          -76 57 callsubr
          89 5 19 78 47 0 callgsubr
          endchar
        </CharString>
        <CharString name="l">
          -299 -35 callsubr
          770 -20 hstemhm
          38 210 -49 callgsubr
          endchar
        </CharString>
        <CharString name="l.sups">
          -392 466 31 callgsubr
          hstemhm
          71 149 hintmask 00110000
          12 callgsubr
          rlineto
          hintmask 10010000
          -6 -85 -26 -211 -34 -120 62 callgsubr
          rlineto
          hintmask 01010000
          2 28 rlineto
          hintmask 00110000
          -51 3 13 106 21 131 32 171 rlinecurve
          endchar
        </CharString>
        <CharString name="lacute">
          -299 -35 callsubr
          770 -20 hstemhm
          38 294 -49 callgsubr
          55 199 -88 callsubr
        </CharString>
        <CharString name="lcaron">
          -269 -35 callsubr
          756 -20 34 -20 hstemhm
          38 341 hintmask 01011000
          hintmask 01101000
          303 756 rmoveto
          0 -11 -127 -2 -19 vhcurveto
          -15 -94 57 -3 47 243 rlineto
          hintmask 01011000
          -154 14 -47 callgsubr
          hintmask 10011000
          26 -15 162 46 callgsubr
          28 227 31 178 49 275 rlinecurve
          endchar
        </CharString>
        <CharString name="lcommaaccent">
          -299 -35 callsubr
          770 -20 hstemhm
          77 99 -49 callgsubr
          -171 -874 -93 callgsubr
        </CharString>
        <CharString name="ldot">
          -266 -29 callsubr
          235 139 322 65 -49 -20 51 18 4 -20 hstemhm
          -27 172 70 127 hintmask 1010110110000000
          72 707 rmoveto
          hintmask 0111000110000000
          72 -16 rlineto
          0 2 -56 -3 -20 vhcurveto
          -70 -478 -3 -20 -15 -47 -3 -9 rlinecurve
          -77 57 callsubr
          90 5 19 vhcurveto
          hintmask 1010110110000000
          78 46 30 callsubr
          rlineto
          hintmask 0110110110000000
          -75 7 rlineto
          hintmask 1010110110000000
          8 3 54 6 44 vhcurveto
          61 418 7 47 15 75 8 31 rlinecurve
          -16 18 rlineto
          -57 hlineto
          -19 -69 4 0 hvcurveto
          204 -391 rmoveto
          -46 -28 -36 -46 hvcurveto
          hintmask 1010101110000000
          -34 19 -23 35 45 28 35 47 36 -19 21 -34 vhcurveto
          endchar
        </CharString>
        <CharString name="less">
          -14 6 -21 hstem
          116 385 vstem
          116 247 rmoveto
          266 -262 61 53 -225 210 283 212 -46 53 rlineto
          endchar
        </CharString>
        <CharString name="lessequal">
          -16 0 68 441 -20 hstem
          50 455 vstem
          58 66 rmoveto
          -8 41 callgsubr
          -369 264 rmoveto
          278 -235 54 61 -213 174 260 174 -37 61 rlineto
          endchar
        </CharString>
        <CharString name="logicalnot">
          -16 238 69 hstem
          60 465 vstem
          70 307 rmoveto
          -10 -71 388 4 -26 -171 rlineto
          71 hlineto
          32 238 rlineto
          endchar
        </CharString>
        <CharString name="lozenge">
          -16 2 568 hstem
          17 524 vstem
          321 570 rmoveto
          -304 -286 221 -282 303 282 rlineto
          -287 -174 rmoveto
          -138 175 189 177 137 -177 rlineto
          endchar
        </CharString>
        <CharString name="lslash">
          -299 -35 callsubr
          500 -20 290 -20 hstemhm
          8 294 hintmask 01111000
          27 callsubr
          -6 -68 -9 -90 -13 -96 rlinecurve
          -109 -38 9 -41 93 33 -20 -144 -26 -149 -26 -98 rlinecurve
          hintmask 10111000
          26 -15 162 46 callgsubr
          15 123 16 109 19 117 rlinecurve
          112 40 -8 41 -96 -34 14 86 17 91 19 107 rlinecurve
          endchar
        </CharString>
        <CharString name="m">
          269 -22 callgsubr
          hstemhm
          401 93 178 94 hintmask 01001011
          214 504 rmoveto
          hintmask 01010011
          -52 callgsubr
          hintmask 10001011
          26 -15 rlineto
          hintmask 01001011
          68 15 5 33 5 34 4 34 rlinecurve
          204 48 104 122 47 55 callgsubr
          hintmask 10001011
          26 -15 rlineto
          hintmask 01001011
          69 15 5 44 5 41 6 37 rlinecurve
          190 50 98 115 45 55 callgsubr
          hintmask 10101011
          26 -73 callsubr
          47 -21 35 -51 -87 -73 -82 -81 -47 vhcurveto
          4 30 3 27 24 vvcurveto
          47 -20 35 -51 -97 -81 -102 -88 -45 vhcurveto
          hintmask 01000111
          15 callsubr
          endchar
        </CharString>
        <CharString name="m.sups">
          -36 466 31 callgsubr
          219 63 -55 29 hstemhm
          299 74 99 74 hintmask 00110110
          191 759 rmoveto
          hintmask 00101110
          24 callsubr
          hintmask 10010110
          105 22 62 97 35 hhcurveto
          15 2 -16 -14 -44 -24 -96 -20 -76 hvcurveto
          18 -10 58 10 1 16 2 15 2 13 rlinecurve
          101 22 61 101 36 hhcurveto
          14 3 73 callgsubr
          115 26 rlineto
          hintmask 01010110
          2 28 rlineto
          hintmask 00110110
          -49 60 callgsubr
          -56 -44 -48 -51 -30 vhcurveto
          3 18 1 17 14 vvcurveto
          29 -15 21 -32 -65 -50 -66 -61 -29 vhcurveto
          9 47 9 35 10 31 rrcurveto
          endchar
        </CharString>
        <CharString name="macron">
          606 53 hstem
          73 321 vstem
          381 606 -41 callsubr
        </CharString>
        <CharString name="macron.cap">
          586 53 hstem
          67 321 vstem
          375 586 -41 callsubr
        </CharString>
        <CharString name="minus">
          -16 220 73 hstem
          90 445 vstem
          525 223 rmoveto
          10 71 rlineto
          -435 hlineto
          -10 -76 rlineto
          endchar
        </CharString>
        <CharString name="mu">
          -28 -15 74 -50 -21 33 -21 29 37 439 -20 hstemhm
          115 11 hintmask 00101100
          hintmask 10001100
          371 -15 rmoveto
          hintmask 00111100
          154 44 3 36 -81 3 13 152 14 85 47 185 rlinecurve
          -23 15 -64 -15 -10 -66 rlineto
          hintmask 10001100
          -28 -121 -34 -91 -41 -60 rrcurveto
          -62 -42 -34 -31 -27 hhcurveto
          -28 -6 25 28 70 39 169 32 140 hvcurveto
          -22 14 -176 -45 2 -34 94 -3 rlineto
          -75 -87 -425 0 vhcurveto
          -4 -20 -35 -109 0 vvcurveto
          9 -8 rlineto
          22 hlineto
          25 32 -4 0 hvcurveto
          11 8 rlineto
          hintmask 01001100
          2 34 8 99 2 17 6 48 rcurveline
          hintmask 10001100
          -2 6 10 -1 6 hhcurveto
          81 79 81 113 59 hvcurveto
          hintmask 00101100
          -13 -72 -14 -63 -11 -44 rrcurveto
          endchar
        </CharString>
        <CharString name="multiply">
          -35 40 417 hstem
          45 458 vstem
          281 300 rmoveto
          -137 155 -57 -50 135 -157 -177 -158 43 -50 179 156 134 -155 61 53 -136 154 177 156 -45 53 rlineto
          endchar
        </CharString>
        <CharString name="n">
          -3 -22 callgsubr
          hstemhm
          400 94 hintmask 01001010
          422 504 rmoveto
          -97 -80 -102 -88 -45 hvcurveto
          hintmask 01000110
          15 callsubr
          hintmask 01001010
          -23 20 rlineto
          hintmask 01010010
          -52 callgsubr
          hintmask 10001010
          -53 callsubr
          hintmask 01001010
          -88 -36 -158 -30 -129 vhcurveto
          hintmask 10101010
          25 -73 callsubr
          hintmask 01001010
          47 -21 35 -51 vhcurveto
          endchar
        </CharString>
        <CharString name="n.sups">
          -207 466 31 callgsubr
          219 63 -55 29 hstemhm
          300 74 hintmask 00110100
          327 759 rmoveto
          -66 -50 -67 -60 -29 hvcurveto
          9 47 9 35 10 31 -19 14 rcurveline
          hintmask 00101100
          24 callsubr
          hintmask 10010100
          104 22 62 98 36 hhcurveto
          15 2 73 callgsubr
          116 26 rlineto
          hintmask 01010100
          2 28 rlineto
          hintmask 00110100
          -50 60 callgsubr
          vhcurveto
          endchar
        </CharString>
        <CharString name="nacute">
          -3 -22 callgsubr
          251 -20 hstemhm
          400 -91 callgsubr
          45 251 -91 callsubr
        </CharString>
        <CharString name="nbspace">
          -352 endchar
        </CharString>
        <CharString name="ncaron">
          -3 -22 callgsubr
          261 -20 hstemhm
          400 -91 callgsubr
          -170 261 -77 callgsubr
          endchar
        </CharString>
        <CharString name="ncommaaccent">
          -3 -22 callgsubr
          hstemhm
          209 99 92 -91 callgsubr
          -213 -628 -93 callgsubr
        </CharString>
        <CharString name="nine">
          -66 248 59 298 57 hstem
          51 98 247 98 vstem
          232 248 -80 callsubr
        </CharString>
        <CharString name="nine.dnom">
          -242 148 43 166 47 hstem
          7 82 124 82 vstem
          117 148 -73 callgsubr
        </CharString>
        <CharString name="nine.numr">
          -242 448 45 164 47 hstem
          57 82 124 82 vstem
          167 448 -73 callgsubr
        </CharString>
        <CharString name="nine.osf">
          -81 -210 -21 355 59 298 57 hstem
          30 98 240 98 vstem
          204 124 rmoveto
          28 28 6 9 21 hvcurveto
          1 47 rlineto
          0 -27 -3 -30 -63 -34 56 66 80 44 96 87 76 35 -81 -82 -2 vhcurveto
          -4 -186 -89 -224 -301 -87 11 -52 rcurveline
          334 74 147 268 212 vvcurveto
          126 -70 89 -129 -129 -108 -103 -138 -109 72 -64 102 vhcurveto
          endchar
        </CharString>
        <CharString name="nine.sinf">
          -223 53 44 173 47 hstem
          3 83 131 82 vstem
          117 53 rmoveto
          19 16 3 5 11 hvcurveto
          2 38 rlineto
          -1 -6 -12 -1 -11 hhcurveto
          -32 -18 30 38 44 21 61 54 39 17 -43 -46 -85 -39 -167 -203 -58 hvcurveto
          5 -38 rlineto
          213 41 106 173 135 vvcurveto
          79 -49 56 -86 -87 -74 -67 -89 -67 43 -41 71 vhcurveto
          endchar
        </CharString>
        <CharString name="nine.sups">
          -242 598 43 166 47 hstem
          87 82 124 82 vstem
          197 598 -73 callgsubr
        </CharString>
        <CharString name="nine.tf">
          -66 248 59 298 57 hstem
          51 98 247 98 vstem
          232 248 -80 callsubr
        </CharString>
        <CharString name="nine.tosf">
          -66 -210 -21 355 59 298 57 hstem
          33 98 247 98 vstem
          214 124 -80 callsubr
        </CharString>
        <CharString name="notequal">
          -16 16 -21 124 69 120 70 117 -20 hstem
          69 471 vstem
          298 187 rmoveto
          74 123 158 2 10 66 rlineto
          -127 hlineto
          71 117 -58 17 -81 -134 rlineto
          -240 hlineto
          -10 -71 209 2 -74 -123 -153 -1 -8 -66 rlineto
          120 hlineto
          -75 -124 58 -17 85 141 rlineto
          247 hlineto
          8 71 rlineto
          endchar
        </CharString>
        <CharString name="ntilde">
          -3 -22 callgsubr
          100 38 callsubr
          400 94 hintmask 0100100110000000
          422 504 rmoveto
          -97 -80 -102 -88 -45 hvcurveto
          hintmask 0100010110000000
          15 callsubr
          hintmask 0100100110000000
          -23 20 rlineto
          hintmask 0101000110000000
          -52 callgsubr
          hintmask 1000100110000000
          -53 callsubr
          hintmask 0100100110000000
          -88 -36 -158 -30 -129 vhcurveto
          hintmask 1010100110000000
          25 -73 callsubr
          hintmask 0100100110000000
          47 -21 35 -51 vhcurveto
          hintmask 0100101010000000
          75 219 17 callgsubr
          hintmask 0100100110000000
          -76 callgsubr
          hintmask 0100101010000000
          39 65 -68 callsubr
        </CharString>
        <CharString name="numbersign">
          -6 6 -21 31 -21 155 66 -66 70 117 70 -66 67 hstemhm
          23 552 hintmask 01100110
          hintmask 01010110
          394 219 rmoveto
          36 121 134 2 11 66 rlineto
          -125 hlineto
          46 154 -57 10 -49 -164 rlineto
          -112 hlineto
          46 154 -57 10 rlineto
          hintmask 01101010
          -49 -164 rlineto
          -138 hlineto
          -10 -71 128 1 -36 -121 -130 -1 -9 -66 rlineto
          119 hlineto
          -46 -155 rlineto
          hintmask 10100110
          57 -10 49 165 rlineto
          112 hlineto
          hintmask 01100110
          -46 -155 rlineto
          hintmask 10010110
          57 -10 49 165 rlineto
          144 hlineto
          9 71 rlineto
          -269 118 rmoveto
          112 1 rlineto
          hintmask 01100110
          -36 -121 -112 -1 rlineto
          endchar
        </CharString>
        <CharString name="o">
          29 callsubr
          hstem
          32 97 213 97 vstem
          -102 callgsubr
          endchar
        </CharString>
        <CharString name="o.sups">
          -25 callsubr
        </CharString>
        <CharString name="oacute">
          29 callsubr
          251 -20 hstem
          32 97 213 97 vstem
          -102 callgsubr
          134 308 -91 callsubr
        </CharString>
        <CharString name="obreve">
          29 callsubr
          83 56 hstem
          32 97 213 97 vstem
          -102 callgsubr
          143 280 -95 callsubr
          endchar
        </CharString>
        <CharString name="ocircumflex">
          29 callsubr
          261 -20 hstem
          32 97 213 97 vstem
          -102 callgsubr
          69 318 -92 callsubr
          endchar
        </CharString>
        <CharString name="odieresis">
          29 callsubr
          90 119 hstemhm
          32 97 32 107 74 97 -49 106 hintmask 11110100
          -102 callgsubr
          hintmask 11111010
          175 266 rmoveto
          -78 callgsubr
          -229 hmoveto
          -79 callsubr
          endchar
        </CharString>
        <CharString name="oe">
          117 -10 57 -57 60 396 57 hstemhm
          33 93 219 67 188 82 hintmask 10111100
          537 503 rmoveto
          -37 -42 -36 -53 -38 hvcurveto
          56 -19 -43 33 -74 hhcurveto
          -150 -101 -188 -150 -106 43 -69 106 60 52 29 46 40 hvcurveto
          -50 16 36 -25 53 hhcurveto
          86 79 49 91 55 hvcurveto
          -31 23 rlineto
          hintmask 01111100
          -67 -49 -56 -36 -51 hhcurveto
          -39 -21 34 65 19 1 21 3 21 hvcurveto
          166 33 100 79 102 vvcurveto
          hintmask 10111100
          52 -50 27 -95 vhcurveto
          -257 -57 rmoveto
          55 10 -73 -51 hvcurveto
          -123 1 -57 -152 -101 hhcurveto
          -51 -11 73 51 123 57 152 97 hvcurveto
          253 -2 rmoveto
          48 19 -13 -33 -65 -71 -56 -104 -22 hvcurveto
          97 23 48 92 37 hhcurveto
          endchar
        </CharString>
        <CharString name="ogonek">
          -197 42 hstem
          107 63 vstem
          207 13 rmoveto
          -77 -60 -23 -23 -52 -16 callsubr
          -20 hhcurveto
          -32 -14 17 23 36 35 53 45 39 hvcurveto
          endchar
        </CharString>
        <CharString name="ograve">
          29 callsubr
          251 -20 hstem
          32 97 213 97 vstem
          -102 callgsubr
          143 158 -68 callgsubr
        </CharString>
        <CharString name="ohungarumlaut">
          29 callsubr
          261 -20 hstem
          32 97 213 97 vstem
          -102 callgsubr
          260 318 -42 callsubr
        </CharString>
        <CharString name="omacron">
          29 callsubr
          102 53 hstem
          32 97 213 97 vstem
          -102 callgsubr
          199 159 -41 callsubr
        </CharString>
        <CharString name="one">
          -197 -5 50 -45 57 hstemhm
          34 277 -276 188 hintmask 01100000
          hintmask 01010000
          302 54 rmoveto
          -79 22 callsubr
          38 259 rlineto
          7 50 34 184 0 vvcurveto
          -46 12 rlineto
          0 -42 -48 -12 -9 vhcurveto
          -22 -16 -127 -92 0 vvcurveto
          20 -42 119 59 rlineto
          hintmask 10010000
          -57 -387 -19 callsubr
          -3 -13 rlinecurve
          -89 -54 callgsubr
          101 5 21 vhcurveto
          hintmask 01010000
          79 51 -5 0 hvcurveto
          endchar
        </CharString>
        <CharString name="one.dnom">
          -320 0 41 -23 -21 hstemhm
          -1 194 -193 140 hintmask 10100000
          hintmask 10010000
          187 39 -43 callsubr
          -48 7 rlineto
          0 -27 -29 -8 -6 vhcurveto
          -13 -10 -80 -56 0 vvcurveto
          14 -33 69 29 -31 -212 -2 -12 -10 -35 -1 -3 rlinecurve
          -55 -8 rlineto
          hintmask 01010000
          -2 -38 rlineto
          0 55 3 22 vhcurveto
          hintmask 10010000
          61 40 -3 0 hvcurveto
          endchar
        </CharString>
        <CharString name="one.numr">
          -320 300 41 362 7 0 -20 hstemhm
          49 194 -193 140 hintmask 10110000
          hintmask 11001000
          17 callsubr
          -74 callsubr
          endchar
        </CharString>
        <CharString name="one.osf">
          -82 62 callsubr
          475 57 -57 62 -59 55 hstemhm
          18 458 hintmask 01010010
          hintmask 01001010
          476 533 rmoveto
          0 -149 -9 callgsubr
          hintmask 01010010
          -20 -131 -86 callsubr
          hintmask 01001010
          143 32 callsubr
          -151 -54 callgsubr
          164 5 20 79 126 -46 callgsubr
          hintmask 01010010
          -150 23 callsubr
          144 7 rcurveline
          endchar
        </CharString>
        <CharString name="one.sinf">
          -303 -100 39 -39 42 -24 -21 hstemhm
          -6 198 -197 141 hintmask 01010000
          hintmask 01001000
          186 -60 rmoveto
          -49 4 rlineto
          4 1 37 4 29 vhcurveto
          23 154 rlineto
          5 32 22 116 0 vvcurveto
          -48 7 rlineto
          0 -27 -30 -8 -6 vhcurveto
          -14 -10 -82 -58 0 vvcurveto
          15 -33 71 31 rlineto
          hintmask 10001000
          -33 -222 -2 -12 -10 -35 -1 -4 rlinecurve
          -56 -9 rlineto
          hintmask 00101000
          -3 -38 rlineto
          0 58 3 22 vhcurveto
          hintmask 01001000
          61 41 -3 0 hvcurveto
          endchar
        </CharString>
        <CharString name="one.sups">
          -320 450 43 hstemhm
          79 194 -193 140 hintmask 11000000
          hintmask 10100000
          267 489 -43 callsubr
          -74 callsubr
          endchar
        </CharString>
        <CharString name="one.tf">
          -66 -5 50 -45 57 hstemhm
          71 302 hintmask 01100000
          373 54 rmoveto
          -96 7 2 14 1 1 callgsubr
          rlinecurve
          40 259 rlineto
          8 50 35 184 0 vvcurveto
          -40 12 rlineto
          0 -48 -48 -14 -9 vhcurveto
          -26 -16 -149 -92 0 vvcurveto
          23 -42 145 59 rlineto
          hintmask 10100000
          -62 -387 -19 callsubr
          -4 -13 rlinecurve
          -107 -16 rlineto
          -50 vlineto
          0 127 5 18 vhcurveto
          hintmask 01100000
          85 55 -5 0 hvcurveto
          endchar
        </CharString>
        <CharString name="one.tosf">
          -66 62 callsubr
          475 57 -57 62 -59 55 hstemhm
          16 478 hintmask 01010010
          hintmask 01001010
          494 533 rmoveto
          0 -159 -9 callgsubr
          hintmask 01010010
          -20 -141 -86 callsubr
          hintmask 01001010
          153 32 callsubr
          -161 -54 callgsubr
          174 5 20 79 136 -46 callgsubr
          hintmask 01010010
          -160 23 callsubr
          154 7 rcurveline
          endchar
        </CharString>
        <CharString name="onedotenleader">
          -379 -10 139 -118 -21 hstemhm
          16 117 hintmask 01100000
          hintmask 10100000
          82 129 -65 callgsubr
          endchar
        </CharString>
        <CharString name="onehalf">
          127 0 58 242 41 27 49 293 -20 31 -20 hstemhm
          50 140 214 40 126 83 hintmask 11001111
          17 callsubr
          hintmask 11010111
          -74 callsubr
          hintmask 11001111
          332 424 50 callsubr
          rlineto
          hintmask 11110111
          528 738 rlineto
          -70 -272 -66 callsubr
          -57 -33 69 callgsubr
          hvcurveto
          -55 186 -87 callsubr
        </CharString>
        <CharString name="onequarter">
          108 49 callsubr
          138 41 369 -20 31 -20 hstemhm
          31 598 -579 140 225 142 -66 71 hintmask 0101101100000000
          hintmask 0101101010000000
          17 callsubr
          hintmask 0101110010000000
          -74 callsubr
          hintmask 0101101100000000
          332 424 50 callsubr
          rlineto
          hintmask 1001110000100000
          25 callgsubr
          hintmask 1001101001000000
          15 callgsubr
          hintmask 0011101001000000
          22 callgsubr
          hintmask 0101101000100000
          36 callsubr
          rlineto
          hintmask 0011101000100000
          -43 4 rlineto
          hintmask 0101101000100000
          -79 callgsubr
        </CharString>
        <CharString name="ordfeminine">
          -63 callgsubr
        </CharString>
        <CharString name="ordmasculine">
          -25 callsubr
        </CharString>
        <CharString name="oslash">
          -104 -78 -21 88 57 401 57 -75 callsubr
          endchar
        </CharString>
        <CharString name="oslashacute">
          -104 -78 -21 88 57 401 57 251 -20 -75 callsubr
          131 308 -91 callsubr
        </CharString>
        <CharString name="otilde">
          29 callsubr
          100 38 callsubr
          30 callgsubr
          hintmask 11011100
          -102 callgsubr
          hintmask 11101100
          185 276 17 callgsubr
          hintmask 11011100
          -76 callgsubr
          hintmask 11101100
          39 65 -68 callsubr
        </CharString>
        <CharString name="p">
          -67 -11 58 373 41 -23 66 -20 20 hstemhm
          394 90 hintmask 10101000
          213 504 rmoveto
          hintmask 11001000
          -165 -43 rlineto
          -39 vlineto
          83 -4 -15 -167 -46 -315 -47 -198 rlinecurve
          26 -15 67 15 9 82 11 91 13 91 rlinecurve
          -5 31 55 -8 28 hhcurveto
          96 126 210 155 -1 hvcurveto
          hintmask 10101000
          97 1 -34 53 -66 hhcurveto
          -63 -65 -62 -91 -52 hvcurveto
          hintmask 10011000
          10 50 11 45 10 38 rrcurveto
          42 -437 rmoveto
          -39 -54 24 10 -21 hvcurveto
          hintmask 10101000
          154 16 110 203 59 hhcurveto
          27 17 -39 -56 1 hvcurveto
          hintmask 10011000
          -122 -67 -174 -49 vhcurveto
          endchar
        </CharString>
</ttFont>
